<svg width="230" height="54" viewBox="0 0 230 54" fill="none" xmlns="http://www.w3.org/2000/svg">
<path d="M73.0711 1.56451H77.6481L77.3491 0.161377H71.4611V13.0645H73.0711V1.56451Z" fill="#34B5E2"/>
<path d="M82.9379 13.1791C86.2959 13.1791 87.8369 11.0861 87.8369 6.62409C87.8369 2.16209 86.2729 0.0690918 82.9379 0.0690918C79.6029 0.0690918 78.0389 2.16209 78.0389 6.62409C78.0389 11.0861 79.5799 13.1791 82.9379 13.1791ZM79.6719 6.62409C79.6949 3.03609 80.6839 1.44909 82.9379 1.44909C85.1919 1.44909 86.1809 3.03609 86.2039 6.62409C86.1809 11.2471 84.5479 11.868 82.9379 11.868C81.3279 11.845 79.6949 11.2241 79.6719 6.62409Z" fill="#34B5E2"/>
<path d="M95.082 13.1791C97.29 13.1791 98.164 12.2359 98.187 12.1899L98.233 12.1441L98.486 10.051L98.003 10.511C97.98 10.534 96.531 11.868 95.082 11.868C92.759 11.868 91.586 10.0971 91.563 6.62409C91.563 4.25509 92.184 1.44909 94.99 1.44909C96.715 1.44909 97.405 2.50705 97.428 2.55305L97.773 3.12805L98.072 0.943047L97.98 0.850957C97.934 0.827957 97.06 0.0690918 94.967 0.0690918C91.609 0.0690918 89.884 2.27709 89.884 6.62409C89.93 10.9711 91.655 13.1791 95.082 13.1791Z" fill="#34B5E2"/>
<path d="M104.972 9.45313C106.191 9.45313 107.249 8.99304 107.801 8.44104V9.52209C107.801 10.3271 107.18 11.845 104.788 11.845C102.488 11.845 101.591 10.189 101.568 10.12L101.246 9.49918L100.786 11.9371L100.878 12.0292C100.924 12.0752 102.12 13.1792 104.788 13.1792C107.64 13.1792 109.411 11.8912 109.411 9.84418V0.161045H107.801V6.9C107.594 7.13 106.674 8.05 104.926 8.05C102.971 8.05 102.097 6.62409 102.097 5.61209V0L100.487 0.276045V5.65813C100.51 7.84313 102.419 9.45313 104.972 9.45313Z" fill="#34B5E2"/>
<path d="M113.275 13.0641H120.451L120.543 14.191H121.969L122.061 11.7299H121.164V0.299109L120.957 0.275974C120.842 0.252974 118.036 -0.0920712 116.633 0.114929C115.207 0.321929 114.011 1.28797 113.482 2.69097L113.436 2.82911C112.907 4.16311 112.562 5.06006 112.562 10.6031V11.7299H111.665L111.78 14.191H113.183L113.275 13.0641ZM119.554 1.49493V11.7299H114.149V10.6031C114.149 5.22106 114.379 4.41597 115 2.92097C115.253 2.32297 115.874 1.65606 116.679 1.51806C117.691 1.33406 119.048 1.44893 119.554 1.49493Z" fill="#34B5E2"/>
<path d="M125.879 12.8111C125.879 12.7881 125.833 10.2812 125.948 8.87823H131.514C131.583 10.2812 131.56 12.7881 131.56 12.8111V13.0643H133.308V12.8111C133.308 1.35714 130.686 0.0461426 128.708 0.0461426C126.569 0.0461426 124.108 1.49514 124.108 12.8111V13.0643H125.879V12.8111ZM128.662 1.44928C130.065 1.44928 131.1 3.70323 131.445 7.49823H126.04C126.224 5.72723 126.776 1.44928 128.662 1.44928Z" fill="#34B5E2"/>
<path d="M137.356 8.55626C137.747 8.76326 138.552 9.01626 140.139 9.01626C142.83 9.01626 144.095 7.54435 144.095 4.39335C144.095 1.79435 142.715 0.322306 140.093 0.0923061C138.184 -0.0686939 135.976 0.138351 135.953 0.138351L135.746 0.161261V13.0413H137.379V8.55626H137.356ZM140.415 7.63626C138.667 7.63626 137.701 7.38335 137.356 7.26835V1.51835C137.816 1.44935 139.058 1.33431 140.392 1.58731C141.335 1.77131 142.485 2.41522 142.485 4.48522C142.485 6.73922 141.91 7.63626 140.415 7.63626Z" fill="#34B5E2"/>
<path d="M151.34 13.1791C153.548 13.1791 154.422 12.2359 154.445 12.1899L154.491 12.1441L154.744 10.051L154.261 10.511C154.238 10.534 152.789 11.868 151.34 11.868C149.017 11.868 147.844 10.0971 147.821 6.62409C147.821 4.25509 148.442 1.44909 151.248 1.44909C152.973 1.44909 153.663 2.50705 153.686 2.55305L154.031 3.12805L154.33 0.943047L154.238 0.850957C154.192 0.827957 153.318 0.0690918 151.225 0.0690918C147.867 0.0690918 146.142 2.27709 146.142 6.62409C146.165 10.9711 147.913 13.1791 151.34 13.1791Z" fill="#34B5E2"/>
<path d="M159.39 13.0645H161V1.56451L164.657 1.67951V0.161377H155.756V1.67951L159.39 1.56451V13.0645Z" fill="#34B5E2"/>
<path d="M169.303 13.179C170.062 13.179 170.89 13.156 171.626 13.064C173.765 12.834 175.03 11.2238 174.938 8.85484C174.892 7.24484 173.926 6.27897 172.983 5.88797C173.604 5.38197 173.972 4.41588 173.926 3.26588C173.88 2.48388 173.765 0.666925 171.373 0.206925C169.694 -0.138075 166.589 0.13788 166.474 0.16088L166.244 0.184015V13.0409L166.474 13.064C166.497 13.064 167.785 13.179 169.303 13.179ZM170.982 5.28984C170.591 5.33584 170.43 5.35901 170.338 5.35901C170.2 5.38202 170.2 5.38193 169.533 5.38193C168.797 5.38193 168.199 5.35901 167.877 5.35901V1.49484C168.475 1.44884 170.154 1.35701 171.258 1.67901C172.017 1.88601 172.293 2.71392 172.293 3.42692C172.293 4.55393 171.856 5.17484 170.982 5.28984ZM173.512 8.94693C173.604 10.0739 173.075 11.4079 171.695 11.7069C170.453 11.9599 168.498 11.822 167.854 11.753V6.78484C168.176 6.78484 168.797 6.76193 169.464 6.76193C170.2 6.76193 170.361 6.76197 170.959 6.80797L171.672 6.85402C172.845 6.92302 173.443 7.93493 173.512 8.94693Z" fill="#34B5E2"/>
<path d="M184.644 11.7303H178.572V6.85451H183.241L183.563 5.45138H178.572V1.56451H184.368L184.621 0.161377H176.962V13.0645H184.644V11.7303Z" fill="#34B5E2"/>
<path d="M194.304 5.70399H188.508V0.0229492L186.898 0.298994V13.064H188.508V7.1069H194.304V13.064H195.891V0.160859H194.304V5.70399Z" fill="#34B5E2"/>
<path d="M205.873 5.70399H200.1V0.0229492L198.49 0.298994V13.064H200.1V7.1069H205.873V13.064H207.483V0.160859H205.873V5.70399Z" fill="#34B5E2"/>
<path d="M214.498 0.0461426C212.359 0.0461426 209.898 1.49514 209.898 12.8111V13.0643H211.669V12.8111C211.669 12.7881 211.623 10.2812 211.738 8.87823H217.304C217.373 10.2812 217.35 12.7881 217.35 12.8111V13.0643H219.098V12.8111C219.098 1.38014 216.476 0.0461426 214.498 0.0461426ZM214.452 1.44928C215.855 1.44928 216.89 3.70323 217.235 7.49823H211.83C212.014 5.72723 212.543 1.44928 214.452 1.44928Z" fill="#34B5E2"/>
<path d="M229.77 0.161096C229.747 0.161096 227.447 -0.022769 225.377 0.0692311C223.399 0.138231 221.398 0.713231 221.398 4.32423C221.398 5.77323 221.812 6.67019 222.755 7.26819C222.341 7.70519 222.042 8.34905 221.881 9.08505C221.743 9.72905 221.306 11.5921 221.03 12.7651L220.961 13.0642H222.571L222.617 12.8801C222.893 11.7531 223.307 10.0511 223.468 9.3611C223.698 8.5101 223.905 7.98105 224.756 7.93505C224.802 7.93505 224.871 7.93505 225.009 7.93505C225.377 7.93505 226.044 7.9351 226.849 7.8661C227.585 7.7971 228.114 7.6361 228.39 7.5211V13.0871H230V0.207141L229.77 0.161096ZM228.39 1.44923V6.27923C228.045 6.34823 227.079 6.4861 224.986 6.4861C223.33 6.4861 222.985 5.3591 222.985 4.4161C222.985 1.8171 224.227 1.49514 225.17 1.47214C226.044 1.44914 226.78 1.44923 227.332 1.44923C227.815 1.44923 228.183 1.44923 228.39 1.44923Z" fill="#34B5E2"/>
<path d="M77.1879 21.298C78.9129 21.298 79.6029 22.3559 79.6259 22.4019L79.9709 22.9769L80.2699 20.7919L80.1779 20.6998C80.1319 20.6768 79.2579 19.918 77.1649 19.918C73.8069 19.918 72.0819 22.126 72.0819 26.473C72.0819 30.82 73.8069 33.028 77.2339 33.028C79.4419 33.028 80.3159 32.085 80.3389 32.039L80.3849 31.993L80.6379 29.8998L80.1549 30.3598C80.1319 30.3828 78.6829 31.7169 77.2339 31.7169C74.9109 31.7169 73.7379 29.946 73.7149 26.473C73.7609 24.127 74.3819 21.298 77.1879 21.298Z" fill="#34B5E2"/>
<path d="M85.3531 32.9359H86.9631V21.4359L90.6201 21.5509V20.033H81.696V21.5509L85.3531 21.4359V32.9359Z" fill="#34B5E2"/>
<path d="M93.817 28.4279C94.208 28.6349 95.013 28.8879 96.6 28.8879C99.291 28.8879 100.556 27.4158 100.556 24.2648C100.556 21.6658 99.176 20.1939 96.554 19.9639C94.645 19.8029 92.437 20.0098 92.414 20.0098L92.207 20.0329V32.9129H93.84V28.4279H93.817ZM96.876 27.4848C95.128 27.4848 94.162 27.2318 93.817 27.1168V21.3668C94.277 21.2978 95.519 21.1828 96.853 21.4358C97.796 21.6198 98.946 22.2639 98.946 24.3339C98.946 26.6109 98.371 27.4848 96.876 27.4848Z" fill="#34B5E2"/>
<path d="M107.065 19.918C104.926 19.918 102.465 21.367 102.465 32.683V32.9359H104.236V32.683C104.236 32.66 104.19 30.1528 104.305 28.7498H109.871C109.94 30.1528 109.917 32.66 109.917 32.683V32.9359H111.665V32.683C111.665 21.229 109.043 19.918 107.065 19.918ZM107.019 21.298C108.422 21.298 109.457 23.5519 109.802 27.3469H104.397C104.581 25.5759 105.11 21.298 107.019 21.298Z" fill="#34B5E2"/>
<path d="M119.163 26.2198L123.28 20.033H121.21L118.335 24.8169L115.414 20.033H113.367L117.484 26.2198L113.045 32.9359H115.092L118.335 27.6459L121.532 32.9359H123.602L119.163 26.2198Z" fill="#34B5E2"/>
<path d="M129.375 19.918C126.017 19.918 124.476 22.011 124.476 26.473C124.476 30.958 126.04 33.028 129.375 33.028C132.71 33.028 134.274 30.935 134.274 26.473C134.297 21.988 132.733 19.918 129.375 19.918ZM132.641 26.473C132.618 31.096 130.985 31.7169 129.375 31.7169C127.765 31.7169 126.132 31.096 126.109 26.473C126.132 22.885 127.121 21.298 129.375 21.298C131.629 21.298 132.641 22.908 132.641 26.473Z" fill="#34B5E2"/>
<path d="M143.106 25.7371C143.727 25.2311 144.095 24.265 144.049 23.115C144.003 22.333 143.888 20.516 141.496 20.056C139.817 19.711 136.712 19.987 136.597 20.01L136.367 20.0331V32.89L136.597 32.9131C136.62 32.9131 137.908 33.0281 139.426 33.0281C140.185 33.0281 141.013 33.0051 141.749 32.9131C143.888 32.6831 145.153 31.0732 145.061 28.7042C145.015 27.0942 144.049 26.1511 143.106 25.7371ZM141.105 25.1392C140.714 25.1852 140.553 25.2081 140.461 25.2081C140.323 25.2311 140.323 25.231 139.656 25.231C138.92 25.231 138.322 25.2081 138 25.2081V21.3442C138.598 21.2982 140.277 21.2061 141.381 21.5281C142.14 21.7351 142.416 22.5631 142.416 23.2531C142.416 24.4031 141.979 25.0472 141.105 25.1392ZM138 26.6571C138.322 26.6571 138.943 26.6342 139.61 26.6342C140.346 26.6342 140.507 26.634 141.105 26.68L141.818 26.726C142.968 26.795 143.566 27.8072 143.635 28.8192C143.727 29.9462 143.198 31.2802 141.818 31.5792C140.576 31.8552 138.621 31.694 137.977 31.625V26.6571H138Z" fill="#34B5E2"/>
<path d="M151.524 19.918C149.385 19.918 146.924 21.367 146.924 32.683V32.9359H148.695V32.683C148.695 32.66 148.649 30.1528 148.764 28.7498H154.33C154.399 30.1528 154.376 32.66 154.376 32.683V32.9359H156.124V32.683C156.101 21.229 153.479 19.918 151.524 19.918ZM151.455 21.298C152.858 21.298 153.893 23.5519 154.238 27.3469H148.833C149.017 25.5759 149.569 21.298 151.455 21.298Z" fill="#34B5E2"/>
<path d="M167.026 32.936V20.056L166.796 20.0331C166.773 20.0331 164.473 19.849 162.403 19.941C160.425 20.01 158.424 20.585 158.424 24.196C158.424 25.645 158.838 26.542 159.781 27.14C159.367 27.577 159.068 28.2211 158.907 28.9571C158.769 29.6011 158.332 31.4641 158.056 32.6371L157.987 32.936H159.597L159.643 32.7521C159.919 31.6251 160.333 29.9231 160.494 29.2331C160.724 28.3821 160.931 27.8531 161.782 27.8071C161.828 27.8071 161.897 27.8071 162.035 27.8071C162.403 27.8071 163.07 27.8071 163.875 27.7381C164.611 27.6691 165.14 27.5081 165.416 27.3931V32.9592H167.026V32.936ZM165.416 21.321V26.151C165.071 26.22 164.105 26.3581 162.012 26.3581C160.356 26.3581 160.011 25.2311 160.011 24.2881C160.011 21.6891 161.253 21.3672 162.196 21.3442C163.07 21.3212 163.806 21.321 164.358 21.321C164.841 21.298 165.186 21.298 165.416 21.321Z" fill="#34B5E2"/>
<path d="M76.521 39.7671C73.163 39.7671 71.622 41.8601 71.622 46.3221C71.622 50.8071 73.186 52.8771 76.521 52.8771C79.879 52.8771 81.42 50.7841 81.42 46.3221C81.443 41.8601 79.879 39.7671 76.521 39.7671ZM79.81 46.345C79.787 50.968 78.154 51.5892 76.544 51.5892C74.934 51.5892 73.301 50.968 73.278 46.345C73.301 42.757 74.29 41.17 76.544 41.17C78.775 41.17 79.787 42.757 79.81 46.345Z" fill="#34B5E2"/>
<path d="M87.8831 39.836C85.9741 39.675 83.7661 39.882 83.7431 39.882L83.5361 39.9049V52.7849H85.1691V48.277C85.5601 48.484 86.3651 48.737 87.9521 48.737C90.6431 48.737 91.9081 47.2651 91.9081 44.1141C91.8851 41.5381 90.5051 40.066 87.8831 39.836ZM88.2051 47.357C86.4571 47.357 85.4911 47.1041 85.1461 46.9891V41.2391C85.6061 41.1701 86.8481 41.055 88.1821 41.308C89.1251 41.492 90.2751 42.136 90.2751 44.206C90.2751 46.483 89.7001 47.357 88.2051 47.357Z" fill="#34B5E2"/>
<path d="M93.311 39.8821V52.785H94.921V41.285H99.498L99.1991 39.8821H93.311Z" fill="#34B5E2"/>
<path d="M104.811 39.7671C102.672 39.7671 100.211 41.2161 100.211 52.5321V52.785H101.982V52.5321C101.982 52.5091 101.936 50.0022 102.051 48.5992H107.617C107.686 50.0022 107.663 52.5091 107.663 52.5321V52.785H109.411V52.5321C109.388 41.1011 106.766 39.7671 104.811 39.7671ZM104.742 41.17C106.145 41.17 107.18 43.4242 107.525 47.2192H102.12C102.304 45.4482 102.856 41.17 104.742 41.17Z" fill="#34B5E2"/>
<path d="M119.209 45.425H113.436V39.7441L111.803 40.02V52.785H113.436V46.8281H119.209V52.785H120.819V39.8821H119.209V45.425Z" fill="#34B5E2"/>
<path d="M125.005 49.4271V39.7441L123.395 40.02V52.785H124.913L130.433 43.286V52.785H132.043V39.8821H130.525L125.005 49.4271Z" fill="#34B5E2"/>
<path d="M141.726 45.7242C142.117 45.4022 142.692 44.8272 142.692 43.3092C142.692 41.0552 141.174 39.7671 138.506 39.7671C135.953 39.7671 135.148 40.8021 135.125 40.8481L135.079 40.8942L134.688 43.3092L135.263 42.6192C135.286 42.5962 136.482 41.1471 138.506 41.1471C141.059 41.1471 141.082 43.2172 141.082 43.3092C141.082 44.7582 140.093 45.1492 139.564 45.1492C139.472 45.1492 139.334 45.1492 139.173 45.1492C138.897 45.1492 138.529 45.1721 138.046 45.1721C136.919 45.1721 136.183 45.1492 136.183 45.1492H135.999L135.631 46.5981H135.953C135.953 46.5981 136.896 46.575 138.092 46.575C138.644 46.575 139.104 46.575 139.426 46.575C139.633 46.575 139.794 46.575 139.909 46.575C140.461 46.575 141.496 47.058 141.496 48.875C141.496 51.52 138.598 51.5431 138.483 51.5431C135.884 51.5431 135.056 49.634 135.033 49.565L134.711 48.76L134.32 51.175L134.366 51.2442C134.412 51.3132 135.378 52.8771 138.506 52.8771C140.599 52.8771 143.106 52.187 143.106 48.875C143.06 47.173 142.37 46.2302 141.726 45.7242Z" fill="#34B5E2"/>
<path d="M150.052 39.7671C147.913 39.7671 145.452 41.2161 145.452 52.5321V52.785H147.223V52.5321C147.223 52.5091 147.177 50.0022 147.292 48.5992H152.858C152.927 50.0022 152.904 52.5091 152.904 52.5321V52.785H154.652V52.5321C154.652 41.1011 152.03 39.7671 150.052 39.7671ZM150.006 41.17C151.409 41.17 152.444 43.4242 152.789 47.2192H147.384C147.568 45.4482 148.097 41.17 150.006 41.17Z" fill="#34B5E2"/>
<path d="M166.083 39.8821H164.45V51.405H158.677V39.7671L157.067 40.02V52.785H165.692L165.784 53.9121H167.095L167.21 51.405H166.083V39.8821Z" fill="#34B5E2"/>
<path d="M170.729 49.4271V39.7441L169.119 40.02V52.785H170.614L176.157 43.286V52.785H177.767V39.8821H176.249L170.729 49.4271Z" fill="#34B5E2"/>
<path d="M184.207 39.8133C182.229 39.8823 180.228 40.4573 180.228 44.0683C180.228 45.5173 180.642 46.4143 181.585 47.0123C181.171 47.4493 180.872 48.0934 180.711 48.8294C180.573 49.4734 180.136 51.3364 179.86 52.5094L179.791 52.8083H181.401L181.447 52.6244C181.723 51.4974 182.137 49.7952 182.298 49.1052C182.528 48.2542 182.735 47.7254 183.586 47.6794C183.632 47.6794 183.701 47.6794 183.839 47.6794C184.207 47.6794 184.874 47.6792 185.679 47.6102C186.415 47.5412 186.944 47.3802 187.22 47.2652V52.8313H188.83V39.9513L188.6 39.9283C188.577 39.8823 186.277 39.6983 184.207 39.8133ZM187.22 41.1702V46.0002C186.875 46.0692 185.909 46.2073 183.816 46.2073C182.16 46.2073 181.815 45.0803 181.815 44.1373C181.815 41.5383 183.057 41.2163 184 41.1933C184.874 41.1703 185.61 41.1702 186.162 41.1702C186.668 41.1702 187.013 41.1702 187.22 41.1702Z" fill="#34B5E2"/>
<path d="M57.017 24.8863C54.441 30.5213 50.232 35.2593 45.011 38.5253C43.171 39.6753 41.216 40.6414 39.146 41.3774C38.042 41.7914 36.892 42.1364 35.719 42.4124C33.35 42.9874 30.889 43.2863 28.359 43.2863C23.713 43.2863 19.32 42.2743 15.364 40.4803C9.47601 37.8123 4.554 33.3734 1.265 27.8534C0.805 27.0944 0.391 26.3124 0 25.5074C0.644 25.1164 1.288 24.7253 1.955 24.3803C5.658 22.4253 9.82101 21.1834 14.214 20.8384H14.237C15.019 20.7694 15.824 20.7463 16.629 20.7463C16.882 20.7463 17.158 20.7463 17.411 20.7463C23.207 21.0683 28.336 23.9204 31.694 28.1984C30.337 27.6694 28.842 27.3703 27.301 27.3703C23.736 27.3703 20.562 28.9114 18.354 31.3724C22.057 32.2234 25.921 32.6834 29.877 32.6834C31.349 32.6834 32.798 32.6145 34.247 32.4995C35.144 32.4305 36.041 32.3153 36.915 32.2003C38.111 32.0393 39.261 31.8325 40.434 31.5795C46.414 30.3375 52.003 28.0373 57.017 24.8863Z" fill="#0BB7A2"/>
<path d="M0 18.9063C2.576 13.2713 6.78499 8.53339 12.006 5.26739C13.846 4.11739 15.801 3.1513 17.871 2.4153C18.975 2.0013 20.125 1.6563 21.298 1.3803C23.667 0.805303 26.128 0.506348 28.658 0.506348C33.304 0.506348 37.697 1.51839 41.653 3.31239C47.541 5.98039 52.463 10.4195 55.752 15.9395C56.212 16.6985 56.626 17.4803 57.017 18.2853C56.373 18.6763 55.729 19.0674 55.062 19.4124C51.359 21.3674 47.196 22.6095 42.803 22.9545H42.78C41.998 23.0235 41.193 23.0463 40.388 23.0463C40.135 23.0463 39.859 23.0463 39.606 23.0463C33.81 22.7243 28.681 19.8725 25.323 15.5945C26.68 16.1235 28.175 16.4224 29.716 16.4224C33.281 16.4224 36.455 14.8813 38.663 12.4203C34.96 11.5693 31.096 11.1095 27.14 11.1095C25.668 11.1095 24.219 11.1784 22.77 11.2934C21.873 11.3624 20.976 11.4774 20.102 11.5924C18.906 11.7534 17.756 11.9604 16.583 12.2134C10.603 13.4554 5.014 15.7553 0 18.9063Z" fill="#34B5E2"/>
<path d="M2.92099 51.9111C2.80599 51.5891 2.553 51.1981 2.185 51.0371C2.323 50.9221 2.41501 50.784 2.48401 50.6C2.59901 50.324 3.197 48.8522 3.22 48.8292L3.28901 48.6911H2.53L2.50701 48.76C2.50701 48.783 1.95499 50.2091 1.86299 50.4621C1.79399 50.6461 1.65599 50.8762 1.28799 50.8992C1.01199 50.9222 0.782006 50.8992 0.667006 50.8992V48.645L0 48.76V53.9811H0.667006V51.5661C0.874006 51.5661 1.33401 51.5431 1.67901 51.5661C2.09301 51.5891 2.18501 51.7962 2.25401 52.0492L2.85201 53.9811H3.61099L3.565 53.8432C3.565 53.7972 3.05899 52.3021 2.92099 51.9111Z" fill="#0BB7A2"/>
<path d="M8.44103 48.668H7.77405V53.9348H8.44103V48.668Z" fill="#0BB7A2"/>
<path d="M5.74996 49.841C5.22096 49.841 4.87597 49.979 4.69197 50.071V48.5991L4.02496 48.7141V52.6699C4.02496 53.4289 4.73797 53.9581 5.72697 53.9581C6.92297 53.9581 7.52095 53.2449 7.52095 51.8649C7.54395 50.1169 6.41696 49.841 5.74996 49.841ZM6.87697 51.8881C6.87697 52.9461 6.50896 53.452 5.74996 53.452C4.99096 53.452 4.71496 52.9921 4.71496 52.6931V50.5999C4.80696 50.5539 5.08296 50.416 5.77296 50.416C6.69296 50.416 6.87697 51.2211 6.87697 51.8881Z" fill="#0BB7A2"/>
<path d="M11.132 48.645C10.35 48.576 9.47602 48.6682 9.43002 48.6682H9.33801V53.935H10.005V52.095C10.166 52.187 10.488 52.2792 11.132 52.2792C12.236 52.2792 12.742 51.6812 12.742 50.3932C12.765 49.3582 12.19 48.737 11.132 48.645ZM11.247 51.7271C10.534 51.7271 10.143 51.6352 10.005 51.5892V49.2432C10.189 49.2202 10.695 49.1741 11.247 49.2661C11.638 49.3351 12.098 49.5882 12.098 50.4392C12.098 51.4972 11.753 51.7271 11.247 51.7271Z" fill="#0BB7A2"/>
<path d="M13.225 48.668V53.9348H13.892V49.243H15.778L15.64 48.668H13.225Z" fill="#0BB7A2"/>
<path d="M17.733 49.841C17.204 49.841 16.859 49.979 16.675 50.071V48.5991L16.008 48.7141V52.6699C16.008 53.4289 16.721 53.9581 17.71 53.9581C18.906 53.9581 19.504 53.2449 19.504 51.8649C19.504 50.1169 18.4 49.841 17.733 49.841ZM18.837 51.8881C18.837 52.9461 18.469 53.452 17.71 53.452C16.951 53.452 16.675 52.9921 16.675 52.6931V50.5999C16.767 50.5539 17.043 50.416 17.733 50.416C18.653 50.416 18.837 51.2211 18.837 51.8881Z" fill="#0BB7A2"/>
<path d="M20.493 48.668H19.826V53.9348H20.493V48.668Z" fill="#0BB7A2"/>
<path d="M24.334 51.06C24.495 50.922 24.725 50.692 24.725 50.071C24.725 49.151 24.104 48.6221 23.023 48.6221C21.988 48.6221 21.643 49.0592 21.643 49.0592L21.62 49.0821L21.459 50.071L21.689 49.7721C21.689 49.7721 22.172 49.1742 23 49.1742C24.035 49.1742 24.058 50.0251 24.058 50.0481C24.058 50.6461 23.644 50.8071 23.437 50.8071C23.391 50.8071 23.345 50.8071 23.276 50.8071C23.161 50.8071 23 50.8071 22.816 50.8071C22.356 50.8071 22.057 50.7842 22.057 50.7842H21.965L21.804 51.3821H21.942C21.942 51.3821 22.333 51.3821 22.816 51.3821C23.046 51.3821 23.23 51.3821 23.368 51.3821C23.46 51.3821 23.506 51.3821 23.552 51.3821C23.782 51.3821 24.196 51.589 24.196 52.325C24.196 53.406 23.023 53.406 22.977 53.406C21.919 53.406 21.574 52.624 21.574 52.601L21.436 52.256L21.275 53.245L21.298 53.2681C21.321 53.2911 21.712 53.935 22.977 53.935C23.828 53.935 24.863 53.6591 24.863 52.3021C24.863 51.6351 24.587 51.267 24.334 51.06Z" fill="#0BB7A2"/>
<path d="M25.553 48.668V53.9348H26.22V49.243H28.083L27.945 48.668H25.553Z" fill="#0BB7A2"/>
<path d="M30.13 48.6221C28.75 48.6221 28.129 49.4731 28.129 51.3131C28.129 53.1531 28.773 54.0042 30.13 54.0042C31.487 54.0042 32.1309 53.1531 32.1309 51.3131C32.1309 49.4731 31.487 48.6221 30.13 48.6221ZM31.464 51.3131C31.464 53.1991 30.797 53.4521 30.13 53.4521C29.463 53.4521 28.7959 53.1991 28.7959 51.3131C28.7959 49.8641 29.21 49.1971 30.13 49.1971C31.05 49.1971 31.464 49.8411 31.464 51.3131Z" fill="#0BB7A2"/>
<path d="M34.707 53.4521C33.764 53.4521 33.281 52.7391 33.281 51.3131C33.281 50.3471 33.534 49.1971 34.684 49.1971C35.374 49.1971 35.673 49.6341 35.673 49.6571L35.811 49.8871L35.949 48.99L35.903 48.9442C35.88 48.9212 35.535 48.6221 34.684 48.6221C33.304 48.6221 32.614 49.5191 32.614 51.3131C32.614 53.0841 33.327 54.0042 34.73 54.0042C35.627 54.0042 35.995 53.613 35.995 53.59L36.018 53.5671L36.133 52.716L35.926 52.9C35.903 52.9 35.305 53.4521 34.707 53.4521Z" fill="#0BB7A2"/>
<path d="M38.6399 53.4521C37.6969 53.4521 37.2139 52.7391 37.2139 51.3131C37.2139 50.3471 37.4669 49.1971 38.6169 49.1971C39.3069 49.1971 39.6059 49.6341 39.6059 49.6571L39.7439 49.8871L39.8819 48.99L39.8359 48.9442C39.8129 48.9212 39.4679 48.6221 38.6169 48.6221C37.2369 48.6221 36.5469 49.5191 36.5469 51.3131C36.5469 53.0841 37.2599 54.0042 38.6629 54.0042C39.5599 54.0042 39.9279 53.613 39.9279 53.59L39.9509 53.5671L40.0659 52.716L39.8589 52.9C39.8129 52.9 39.2379 53.4521 38.6399 53.4521Z" fill="#0BB7A2"/>
<path d="M40.2271 49.289L41.6991 49.243V53.9348H42.366V49.243L43.861 49.289V48.668H40.2271V49.289Z" fill="#0BB7A2"/>
<path d="M46.184 48.645C45.402 48.576 44.528 48.6682 44.482 48.6682H44.39V53.935H45.057V52.095C45.218 52.187 45.54 52.2792 46.184 52.2792C47.288 52.2792 47.794 51.6812 47.794 50.3932C47.817 49.3582 47.265 48.737 46.184 48.645ZM46.322 51.7271C45.609 51.7271 45.218 51.6352 45.08 51.5892V49.2432C45.264 49.2202 45.77 49.1741 46.322 49.2661C46.713 49.3351 47.1729 49.5882 47.1729 50.4392C47.1499 51.4972 46.828 51.7271 46.322 51.7271Z" fill="#0BB7A2"/>
<path d="M50.37 48.6221C49.496 48.6221 48.484 49.2201 48.484 53.8431V53.935H49.197V53.8431C49.197 53.8431 49.174 52.8081 49.22 52.2331H51.497C51.52 52.8081 51.52 53.8201 51.52 53.8431V53.935H52.233V53.8431C52.256 49.1741 51.175 48.6221 50.37 48.6221ZM51.474 51.6581H49.266C49.335 50.9221 49.565 49.1971 50.347 49.1971C50.922 49.1971 51.336 50.1171 51.474 51.6581Z" fill="#0BB7A2"/>
<path d="M55.2 51.198L56.879 48.668H56.051L54.855 50.623L53.682 48.668H52.831L54.51 51.198L52.693 53.9348H53.544L54.855 51.773L56.166 53.9348H57.017L55.2 51.198Z" fill="#0BB7A2"/>
</svg>
