<svg width="189" height="50" viewBox="0 0 189 50" fill="none" xmlns="http://www.w3.org/2000/svg">
<path d="M64.485 36L55.525 11.5H60.32L67.25 31.415L74.215 11.5H78.94L69.98 36H64.485ZM85.511 36.42C84.0176 36.42 82.7926 36.1867 81.836 35.72C80.8793 35.23 80.1676 34.5883 79.701 33.795C79.2343 33.0017 79.001 32.1267 79.001 31.17C79.001 29.56 79.631 28.2533 80.891 27.25C82.151 26.2467 84.041 25.745 86.561 25.745H90.971V25.325C90.971 24.135 90.6326 23.26 89.956 22.7C89.2793 22.14 88.4393 21.86 87.436 21.86C86.526 21.86 85.7326 22.0817 85.056 22.525C84.3793 22.945 83.9593 23.575 83.796 24.415H79.421C79.5376 23.155 79.9576 22.0583 80.681 21.125C81.4276 20.1917 82.3843 19.48 83.551 18.99C84.7176 18.4767 86.0243 18.22 87.471 18.22C89.9443 18.22 91.8926 18.8383 93.316 20.075C94.7393 21.3117 95.451 23.0617 95.451 25.325V36H91.636L91.216 33.2C90.7026 34.1333 89.9793 34.9033 89.046 35.51C88.136 36.1167 86.9576 36.42 85.511 36.42ZM86.526 32.92C87.8093 32.92 88.801 32.5 89.501 31.66C90.2243 30.82 90.6793 29.7817 90.866 28.545H87.051C85.861 28.545 85.0093 28.7667 84.496 29.21C83.9826 29.63 83.726 30.155 83.726 30.785C83.726 31.4617 83.9826 31.9867 84.496 32.36C85.0093 32.7333 85.686 32.92 86.526 32.92ZM99.7262 36V18.64H103.681L104.031 21.58C104.568 20.5533 105.338 19.7367 106.341 19.13C107.368 18.5233 108.57 18.22 109.946 18.22C112.093 18.22 113.761 18.8967 114.951 20.25C116.141 21.6033 116.736 23.5867 116.736 26.2V36H112.256V26.62C112.256 25.1267 111.953 23.9833 111.346 23.19C110.74 22.3967 109.795 22 108.511 22C107.251 22 106.213 22.4433 105.396 23.33C104.603 24.2167 104.206 25.4533 104.206 27.04V36H99.7262ZM121.02 36V10.8H125.5V25.675L131.66 18.64H136.98L129.875 26.55L138.135 36H132.535L125.5 27.285V36H121.02ZM143.328 15.945C142.511 15.945 141.834 15.7 141.298 15.21C140.784 14.72 140.528 14.1017 140.528 13.355C140.528 12.6083 140.784 12.0017 141.298 11.535C141.834 11.045 142.511 10.8 143.328 10.8C144.144 10.8 144.809 11.045 145.323 11.535C145.859 12.0017 146.128 12.6083 146.128 13.355C146.128 14.1017 145.859 14.72 145.323 15.21C144.809 15.7 144.144 15.945 143.328 15.945ZM141.088 36V18.64H145.568V36H141.088ZM150.244 36V18.64H154.199L154.549 21.58C155.085 20.5533 155.855 19.7367 156.859 19.13C157.885 18.5233 159.087 18.22 160.464 18.22C162.61 18.22 164.279 18.8967 165.469 20.25C166.659 21.6033 167.254 23.5867 167.254 26.2V36H162.774V26.62C162.774 25.1267 162.47 23.9833 161.864 23.19C161.257 22.3967 160.312 22 159.029 22C157.769 22 156.73 22.4433 155.914 23.33C155.12 24.2167 154.724 25.4533 154.724 27.04V36H150.244ZM179.973 36.42C178.223 36.42 176.671 36.0467 175.318 35.3C173.964 34.5533 172.903 33.5033 172.133 32.15C171.363 30.7967 170.978 29.2333 170.978 27.46C170.978 25.6633 171.351 24.065 172.098 22.665C172.868 21.265 173.918 20.18 175.248 19.41C176.601 18.6167 178.188 18.22 180.008 18.22C181.711 18.22 183.216 18.5933 184.523 19.34C185.829 20.0867 186.844 21.1133 187.568 22.42C188.314 23.7033 188.688 25.1383 188.688 26.725C188.688 26.9817 188.676 27.25 188.653 27.53C188.653 27.81 188.641 28.1017 188.618 28.405H175.423C175.516 29.7583 175.983 30.82 176.823 31.59C177.686 32.36 178.724 32.745 179.938 32.745C180.848 32.745 181.606 32.5467 182.213 32.15C182.843 31.73 183.309 31.1933 183.613 30.54H188.163C187.836 31.6367 187.288 32.64 186.518 33.55C185.771 34.4367 184.838 35.1367 183.718 35.65C182.621 36.1633 181.373 36.42 179.973 36.42ZM180.008 21.86C178.911 21.86 177.943 22.175 177.103 22.805C176.263 23.4117 175.726 24.345 175.493 25.605H184.138C184.068 24.4617 183.648 23.5517 182.878 22.875C182.108 22.1983 181.151 21.86 180.008 21.86Z" fill="white"/>
<path d="M45 5H5V45L14.393 35.607L8.535 29.751L10.892 27.391L10.895 27.3925L10.8935 27.394L28.4995 45L30.856 42.643L8.5385 20.321L10.892 17.964L37.9295 45L40.2865 42.643L16.637 18.994L15.609 17.9655L17.964 15.607L34.463 32.106L36.82 29.7495L22.679 15.6055L25.0355 13.2505L42.643 30.856L45 28.4995L33.2505 16.7495L45 5Z" fill="white"/>
</svg>
