<svg width="290" height="120" viewBox="0 0 290 120" fill="none" xmlns="http://www.w3.org/2000/svg">
<path d="M0 15.1694C0 10.2921 3.885 6.30231 8.76058 6.17256L234.506 0.165147C238.242 0.0657277 241.65 2.2855 243.07 5.74252L284.899 107.581C287.331 113.503 282.976 120 276.574 120H9C4.02943 120 0 115.971 0 111V15.1694Z" fill="#008BF9"/>
<path d="M99.485 75L90.525 50.5H95.32L102.25 70.415L109.215 50.5H113.94L104.98 75H99.485ZM120.511 75.42C119.018 75.42 117.793 75.1867 116.836 74.72C115.879 74.23 115.168 73.5883 114.701 72.795C114.234 72.0017 114.001 71.1267 114.001 70.17C114.001 68.56 114.631 67.2533 115.891 66.25C117.151 65.2467 119.041 64.745 121.561 64.745H125.971V64.325C125.971 63.135 125.633 62.26 124.956 61.7C124.279 61.14 123.439 60.86 122.436 60.86C121.526 60.86 120.733 61.0817 120.056 61.525C119.379 61.945 118.959 62.575 118.796 63.415H114.421C114.538 62.155 114.958 61.0583 115.681 60.125C116.428 59.1917 117.384 58.48 118.551 57.99C119.718 57.4767 121.024 57.22 122.471 57.22C124.944 57.22 126.893 57.8383 128.316 59.075C129.739 60.3117 130.451 62.0617 130.451 64.325V75H126.636L126.216 72.2C125.703 73.1333 124.979 73.9033 124.046 74.51C123.136 75.1167 121.958 75.42 120.511 75.42ZM121.526 71.92C122.809 71.92 123.801 71.5 124.501 70.66C125.224 69.82 125.679 68.7817 125.866 67.545H122.051C120.861 67.545 120.009 67.7667 119.496 68.21C118.983 68.63 118.726 69.155 118.726 69.785C118.726 70.4617 118.983 70.9867 119.496 71.36C120.009 71.7333 120.686 71.92 121.526 71.92ZM134.726 75V57.64H138.681L139.031 60.58C139.568 59.5533 140.338 58.7367 141.341 58.13C142.368 57.5233 143.57 57.22 144.946 57.22C147.093 57.22 148.761 57.8967 149.951 59.25C151.141 60.6033 151.736 62.5867 151.736 65.2V75H147.256V65.62C147.256 64.1267 146.953 62.9833 146.346 62.19C145.74 61.3967 144.795 61 143.511 61C142.251 61 141.213 61.4433 140.396 62.33C139.603 63.2167 139.206 64.4533 139.206 66.04V75H134.726ZM156.02 75V49.8H160.5V64.675L166.66 57.64H171.98L164.875 65.55L173.135 75H167.535L160.5 66.285V75H156.02ZM178.328 54.945C177.511 54.945 176.834 54.7 176.298 54.21C175.784 53.72 175.528 53.1017 175.528 52.355C175.528 51.6083 175.784 51.0017 176.298 50.535C176.834 50.045 177.511 49.8 178.328 49.8C179.144 49.8 179.809 50.045 180.323 50.535C180.859 51.0017 181.128 51.6083 181.128 52.355C181.128 53.1017 180.859 53.72 180.323 54.21C179.809 54.7 179.144 54.945 178.328 54.945ZM176.088 75V57.64H180.568V75H176.088ZM185.244 75V57.64H189.199L189.549 60.58C190.085 59.5533 190.855 58.7367 191.859 58.13C192.885 57.5233 194.087 57.22 195.464 57.22C197.61 57.22 199.279 57.8967 200.469 59.25C201.659 60.6033 202.254 62.5867 202.254 65.2V75H197.774V65.62C197.774 64.1267 197.47 62.9833 196.864 62.19C196.257 61.3967 195.312 61 194.029 61C192.769 61 191.73 61.4433 190.914 62.33C190.12 63.2167 189.724 64.4533 189.724 66.04V75H185.244ZM214.973 75.42C213.223 75.42 211.671 75.0467 210.318 74.3C208.964 73.5533 207.903 72.5033 207.133 71.15C206.363 69.7967 205.978 68.2333 205.978 66.46C205.978 64.6633 206.351 63.065 207.098 61.665C207.868 60.265 208.918 59.18 210.248 58.41C211.601 57.6167 213.188 57.22 215.008 57.22C216.711 57.22 218.216 57.5933 219.523 58.34C220.829 59.0867 221.844 60.1133 222.568 61.42C223.314 62.7033 223.688 64.1383 223.688 65.725C223.688 65.9817 223.676 66.25 223.653 66.53C223.653 66.81 223.641 67.1017 223.618 67.405H210.423C210.516 68.7583 210.983 69.82 211.823 70.59C212.686 71.36 213.724 71.745 214.938 71.745C215.848 71.745 216.606 71.5467 217.213 71.15C217.843 70.73 218.309 70.1933 218.613 69.54H223.163C222.836 70.6367 222.288 71.64 221.518 72.55C220.771 73.4367 219.838 74.1367 218.718 74.65C217.621 75.1633 216.373 75.42 214.973 75.42ZM215.008 60.86C213.911 60.86 212.943 61.175 212.103 61.805C211.263 62.4117 210.726 63.345 210.493 64.605H219.138C219.068 63.4617 218.648 62.5517 217.878 61.875C217.108 61.1983 216.151 60.86 215.008 60.86Z" fill="white"/>
<path d="M80 44H40V84L49.393 74.607L43.535 68.751L45.892 66.391L45.895 66.3925L45.8935 66.394L63.4995 84L65.856 81.643L43.5385 59.321L45.892 56.964L72.9295 84L75.2865 81.643L51.637 57.994L50.609 56.9655L52.964 54.607L69.463 71.106L71.82 68.7495L57.679 54.6055L60.0355 52.2505L77.643 69.856L80 67.4995L68.2505 55.7495L80 44Z" fill="white"/>
</svg>
