<?xml version="1.0" standalone="no"?>
<!DOCTYPE svg PUBLIC "-//W3C//DTD SVG 20010904//EN"
 "http://www.w3.org/TR/2001/REC-SVG-20010904/DTD/svg10.dtd">
<svg version="1.0" xmlns="http://www.w3.org/2000/svg"
 width="840.000000pt" height="859.000000pt" viewBox="0 0 840.000000 859.000000"
 preserveAspectRatio="xMidYMid meet">

<g transform="translate(0.000000,859.000000) scale(0.100000,-0.100000)"
fill="#000000" stroke="none">
<path d="M3980 8220 c0 -6 -30 -10 -70 -10 -40 0 -70 -4 -70 -10 0 -5 -23 -10
-50 -10 -28 0 -58 -4 -68 -9 -16 -8 -91 -24 -184 -38 -21 -3 -38 -9 -38 -14 0
-5 -9 -9 -20 -9 -11 0 -28 -4 -38 -9 -9 -5 -44 -16 -77 -26 -33 -9 -68 -21
-77 -26 -10 -5 -26 -9 -37 -9 -11 0 -21 -4 -23 -8 -4 -11 -93 -52 -129 -59
-16 -3 -29 -9 -29 -14 0 -5 -7 -9 -15 -9 -8 0 -15 -4 -15 -10 0 -5 -9 -10 -20
-10 -11 0 -20 -3 -20 -7 0 -5 -20 -17 -45 -28 -25 -11 -45 -22 -45 -25 0 -4
-16 -12 -35 -20 -19 -8 -35 -17 -35 -21 0 -4 -10 -11 -22 -15 -12 -3 -31 -15
-42 -25 -11 -11 -26 -19 -33 -19 -7 0 -13 -4 -13 -9 0 -5 -8 -12 -19 -16 -10
-3 -33 -19 -50 -35 -17 -17 -33 -30 -37 -30 -3 0 -12 -6 -19 -12 -30 -27 -44
-38 -50 -38 -6 0 -33 -24 -125 -112 -27 -27 -52 -48 -55 -48 -8 0 -35 -27 -35
-35 0 -3 -21 -27 -47 -53 -60 -61 -113 -120 -113 -127 0 -3 -10 -16 -23 -29
-12 -13 -31 -36 -42 -51 -11 -16 -26 -34 -33 -41 -6 -7 -12 -17 -12 -22 0 -5
-11 -21 -25 -36 -14 -15 -25 -34 -25 -42 0 -7 -4 -14 -10 -14 -5 0 -10 -7 -10
-15 0 -8 -4 -15 -8 -15 -5 0 -21 -25 -37 -55 -15 -30 -31 -55 -36 -55 -5 0 -9
-9 -9 -19 0 -11 -3 -21 -7 -23 -11 -4 -83 -150 -83 -165 0 -7 -4 -13 -9 -13
-5 0 -17 -27 -27 -60 -11 -33 -22 -60 -26 -60 -5 0 -8 -11 -8 -25 0 -14 -4
-25 -10 -25 -5 0 -10 -13 -10 -30 0 -16 -4 -30 -9 -30 -5 0 -12 -20 -15 -45
-4 -24 -11 -47 -17 -50 -5 -4 -9 -19 -9 -35 0 -16 -4 -32 -10 -35 -5 -3 -10
-21 -10 -40 0 -19 -4 -36 -9 -39 -4 -3 -11 -25 -15 -48 -3 -24 -13 -86 -21
-138 -43 -271 -40 -631 6 -880 6 -30 13 -76 16 -102 3 -27 9 -48 14 -48 5 0 9
-16 9 -35 0 -19 5 -35 10 -35 6 0 10 -10 10 -22 0 -24 27 -123 41 -150 5 -10
9 -26 9 -37 0 -11 3 -21 8 -23 6 -3 30 -59 56 -135 6 -18 14 -33 18 -33 5 0 8
-11 8 -24 0 -13 3 -26 8 -28 4 -1 20 -30 37 -63 16 -33 32 -62 35 -65 3 -3 18
-30 34 -60 16 -30 32 -57 35 -60 3 -3 13 -18 21 -35 8 -16 25 -41 38 -55 12
-14 22 -30 22 -37 0 -7 3 -13 8 -13 4 0 21 -21 37 -45 17 -25 33 -45 38 -45 4
0 7 -5 7 -10 0 -10 8 -20 68 -85 12 -13 22 -27 22 -30 0 -3 15 -21 32 -40 47
-49 58 -63 58 -75 0 -5 3 -10 8 -10 4 0 12 -10 18 -23 19 -39 69 -132 74 -137
3 -3 14 -23 25 -45 11 -22 23 -41 28 -43 4 -2 7 -12 7 -23 0 -10 5 -19 10 -19
6 0 10 -7 10 -15 0 -8 4 -15 9 -15 5 0 17 -20 28 -45 10 -25 21 -45 26 -45 4
0 7 -9 7 -20 0 -11 5 -20 10 -20 6 0 10 -7 10 -15 0 -8 4 -15 9 -15 5 0 17
-20 28 -45 10 -25 21 -45 26 -45 4 0 7 -9 7 -20 0 -11 4 -20 8 -20 4 0 21 -26
37 -57 17 -32 33 -59 38 -61 4 -2 7 -12 7 -23 0 -10 4 -19 9 -19 5 0 17 -20
28 -45 10 -25 21 -45 26 -45 4 0 7 -7 7 -15 0 -8 5 -15 10 -15 6 0 10 -9 10
-20 0 -11 3 -20 8 -20 10 0 42 -58 42 -76 0 -8 5 -14 10 -14 6 0 10 -7 10 -15
0 -8 5 -15 10 -15 6 0 10 -5 10 -10 0 -6 11 -28 25 -50 14 -22 25 -46 25 -54
0 -8 3 -16 8 -18 9 -4 40 -54 55 -90 6 -16 15 -28 19 -28 4 0 8 -9 8 -20 0
-11 4 -20 9 -20 4 0 26 -35 47 -77 21 -43 42 -80 45 -83 3 -3 23 -39 45 -80
21 -41 42 -77 45 -80 12 -11 59 -103 59 -116 0 -8 4 -14 9 -14 5 0 21 -26 37
-57 16 -32 32 -59 37 -61 4 -2 7 -12 7 -23 0 -10 4 -19 9 -19 5 0 21 -26 37
-57 16 -32 34 -63 41 -70 6 -7 26 -43 45 -80 18 -38 36 -70 39 -73 4 -3 24
-39 45 -80 22 -41 42 -76 47 -78 4 -2 7 -8 7 -13 0 -6 11 -27 25 -47 14 -20
25 -44 25 -52 0 -9 9 -22 20 -30 11 -8 20 -20 20 -27 0 -8 11 -31 25 -53 14
-22 25 -46 25 -55 0 -8 4 -15 8 -15 5 0 18 -18 30 -41 37 -68 57 -104 62 -109
3 -3 15 -25 28 -49 31 -61 56 -105 62 -111 3 -3 19 -32 35 -64 41 -82 117
-210 127 -214 4 -2 8 -9 8 -15 0 -7 10 -31 22 -54 l22 -41 22 41 c13 23 31 59
41 79 10 21 21 38 25 38 5 0 8 9 8 20 0 11 4 20 8 20 4 0 21 26 37 58 17 31
33 58 38 60 4 2 7 12 7 23 0 10 3 19 8 19 10 0 42 58 42 76 0 8 5 14 10 14 6
0 10 7 10 15 0 8 5 15 10 15 6 0 10 9 10 20 0 11 4 20 10 20 5 0 12 11 16 25
3 14 9 25 13 25 4 0 13 16 21 35 8 19 17 35 21 35 4 0 15 20 26 45 10 25 21
45 26 45 4 0 7 9 7 19 0 11 3 21 8 23 9 4 36 48 64 108 12 25 26 50 30 55 21
25 78 129 78 141 0 8 4 14 8 14 5 0 17 19 28 43 10 23 27 51 36 61 10 11 18
28 18 38 0 10 4 18 9 18 5 0 17 20 28 45 10 25 21 45 26 45 4 0 7 5 7 11 0 6
8 23 18 37 11 15 36 59 57 97 78 144 87 160 104 185 9 14 30 52 46 85 17 33
33 62 36 65 3 3 23 39 45 80 21 41 41 77 44 80 5 5 25 41 62 109 12 23 25 41
30 41 4 0 8 7 8 15 0 9 10 32 23 53 12 20 29 49 36 65 8 15 18 27 23 27 4 0 8
7 8 15 0 9 11 33 25 55 14 22 25 46 25 55 0 8 4 15 8 15 5 0 18 18 30 41 37
68 57 104 62 109 3 3 21 36 40 74 19 38 40 74 45 80 6 7 23 37 39 69 16 31 32
57 37 57 5 0 9 6 9 14 0 18 68 140 81 144 5 2 9 9 9 17 0 12 48 105 59 115 3
3 24 39 45 80 22 41 42 77 46 80 3 3 16 26 28 52 12 25 33 58 47 72 14 14 25
29 25 33 0 4 20 29 45 55 25 27 45 50 45 53 0 7 14 25 48 60 12 13 22 27 22
30 0 4 6 13 13 20 29 33 37 45 37 54 0 6 9 16 20 23 11 7 20 21 20 30 0 10 3
18 8 18 4 0 20 24 36 53 16 28 32 54 35 57 3 3 24 41 46 85 22 44 43 82 48 83
4 2 7 10 7 17 0 18 32 89 43 93 4 2 7 15 7 28 0 13 5 24 10 24 6 0 10 7 10 15
0 8 4 23 9 33 5 9 17 44 27 77 9 33 21 64 26 70 4 5 8 24 8 42 0 18 4 33 9 33
5 0 11 15 14 33 3 17 15 72 26 121 12 50 21 105 21 122 0 18 5 36 10 39 6 3
10 37 10 75 0 38 5 72 10 75 6 4 10 102 10 261 0 163 -4 254 -10 254 -6 0 -10
32 -10 75 0 43 -4 75 -10 75 -5 0 -10 22 -10 48 0 27 -3 52 -7 56 -8 8 -29 98
-39 174 -4 23 -11 42 -15 42 -5 0 -9 7 -9 16 0 8 -11 49 -25 90 -14 41 -25 81
-25 89 0 8 -4 15 -10 15 -5 0 -10 11 -10 25 0 14 -4 25 -9 25 -5 0 -11 10 -14
23 -7 32 -51 131 -59 135 -5 2 -8 12 -8 23 0 10 -4 19 -10 19 -5 0 -10 9 -10
20 0 11 -4 20 -10 20 -5 0 -10 6 -10 14 0 7 -7 19 -15 26 -8 7 -15 21 -15 31
0 11 -4 19 -10 19 -5 0 -10 7 -10 15 0 8 -3 15 -7 15 -5 0 -21 25 -37 55 -16
30 -32 55 -37 55 -5 0 -9 5 -9 10 0 6 -11 23 -25 38 -14 15 -25 31 -25 37 0 6
-12 25 -27 42 -58 67 -98 116 -102 125 -6 16 -253 261 -306 303 -27 22 -58 48
-67 58 -10 9 -22 17 -28 17 -5 0 -20 11 -34 25 -14 14 -29 25 -33 25 -5 0 -20
11 -35 25 -15 14 -30 25 -34 25 -4 0 -14 8 -23 18 -9 11 -27 22 -41 25 -14 3
-35 15 -47 27 -12 11 -29 20 -38 20 -8 0 -15 5 -15 10 0 6 -7 10 -15 10 -8 0
-15 4 -15 9 0 5 -12 11 -27 14 -16 3 -38 15 -50 26 -12 12 -29 21 -38 21 -8 0
-15 5 -15 10 0 6 -10 10 -23 10 -13 0 -32 7 -43 15 -10 8 -27 15 -36 15 -10 0
-18 5 -18 10 0 6 -11 10 -25 10 -14 0 -25 5 -25 10 0 6 -9 10 -20 10 -11 0
-20 4 -20 8 0 7 -48 21 -132 39 -16 3 -28 9 -28 14 0 5 -13 9 -30 9 -16 0 -30
5 -30 10 0 6 -10 10 -22 10 -23 0 -135 24 -194 41 -17 5 -49 9 -72 9 -23 0
-42 5 -42 10 0 6 -32 10 -75 10 -43 0 -75 4 -75 10 0 6 -87 10 -240 10 -153 0
-240 -4 -240 -10z m500 -411 c41 -6 101 -13 133 -16 31 -3 60 -9 63 -14 3 -5
21 -9 40 -9 19 0 34 -4 34 -10 0 -5 16 -10 35 -10 19 0 35 -4 35 -10 0 -5 11
-10 25 -10 14 0 42 -7 62 -15 19 -8 44 -15 54 -15 11 0 19 -4 19 -10 0 -5 14
-10 30 -10 17 0 30 -4 30 -10 0 -5 7 -10 15 -10 15 0 23 -3 83 -33 19 -9 40
-17 48 -17 8 0 14 -4 14 -10 0 -5 7 -10 15 -10 8 0 15 -4 15 -10 0 -5 8 -10
19 -10 10 0 35 -11 55 -25 20 -14 41 -25 46 -25 6 0 10 -4 10 -10 0 -5 5 -10
10 -10 12 0 94 -52 98 -62 2 -5 9 -8 16 -8 6 0 18 -9 26 -20 8 -11 20 -20 28
-20 7 0 23 -11 36 -25 13 -14 28 -25 34 -25 6 0 47 -35 91 -79 44 -43 87 -81
96 -85 8 -3 15 -10 15 -15 0 -5 32 -42 70 -82 39 -39 70 -76 70 -80 0 -5 16
-24 35 -43 19 -20 35 -41 35 -48 0 -8 9 -20 20 -28 11 -8 20 -20 20 -27 0 -7
3 -13 8 -13 4 0 15 -15 26 -33 10 -17 28 -48 39 -67 36 -63 47 -85 47 -97 0
-7 5 -13 10 -13 6 0 10 -9 10 -20 0 -11 5 -20 10 -20 6 0 10 -9 10 -19 0 -11
3 -21 8 -23 10 -4 42 -75 42 -93 0 -8 5 -15 10 -15 6 0 10 -11 10 -25 0 -14 5
-25 10 -25 6 0 10 -11 10 -25 0 -14 5 -25 10 -25 6 0 10 -7 10 -17 0 -20 29
-121 41 -145 5 -10 9 -33 9 -51 0 -19 3 -37 7 -41 16 -16 34 -139 43 -297 11
-193 -1 -478 -25 -584 -9 -38 -19 -89 -22 -112 -3 -24 -9 -43 -13 -43 -4 0
-10 -12 -13 -27 -12 -64 -34 -141 -50 -172 -9 -19 -17 -42 -17 -53 0 -10 -4
-18 -10 -18 -5 0 -10 -6 -10 -14 0 -8 -6 -27 -14 -43 -8 -15 -29 -59 -47 -98
-19 -38 -36 -72 -40 -75 -3 -3 -14 -23 -25 -45 -10 -22 -26 -49 -36 -59 -10
-11 -20 -28 -24 -38 -3 -10 -9 -18 -13 -18 -5 0 -14 -13 -21 -30 -7 -16 -16
-30 -21 -30 -5 0 -9 -5 -9 -11 0 -6 -6 -16 -12 -24 -7 -7 -22 -26 -33 -41 -11
-16 -41 -51 -67 -78 -27 -27 -48 -52 -48 -56 0 -6 -73 -77 -197 -191 -23 -22
-46 -39 -51 -39 -4 0 -23 -15 -41 -34 -19 -19 -47 -40 -62 -47 -16 -6 -29 -15
-29 -20 0 -5 -6 -9 -14 -9 -8 0 -16 -3 -18 -7 -4 -11 -85 -63 -97 -63 -5 0
-11 -3 -13 -7 -4 -10 -110 -63 -126 -63 -6 0 -12 -4 -12 -10 0 -5 -9 -10 -19
-10 -11 0 -21 -4 -23 -8 -4 -10 -125 -62 -144 -62 -8 0 -14 -4 -14 -10 0 -5
-8 -10 -18 -10 -9 0 -48 -11 -86 -25 -38 -14 -79 -25 -92 -25 -12 0 -26 -4
-29 -10 -3 -5 -26 -10 -51 -10 -24 0 -44 -4 -44 -9 0 -5 -21 -12 -47 -15 -353
-41 -425 -43 -628 -20 -71 8 -154 17 -182 20 -29 3 -53 10 -53 15 0 5 -12 9
-27 9 -15 0 -40 4 -57 9 -17 5 -58 17 -91 27 -33 10 -64 21 -69 26 -6 4 -20 8
-32 8 -13 0 -26 5 -29 10 -3 6 -17 10 -30 10 -13 0 -26 4 -30 9 -3 5 -19 12
-35 16 -17 4 -30 11 -30 16 0 5 -11 9 -25 9 -14 0 -25 5 -25 10 0 6 -9 10 -20
10 -11 0 -20 5 -20 10 0 6 -6 10 -14 10 -18 0 -76 32 -76 43 0 4 -9 7 -20 7
-11 0 -20 5 -20 10 0 6 -5 10 -11 10 -6 0 -25 11 -43 25 -18 14 -38 25 -44 25
-7 0 -12 5 -12 10 0 6 -7 10 -15 10 -8 0 -15 4 -15 8 0 4 -15 16 -32 27 -18
10 -40 27 -49 37 -9 10 -21 18 -26 18 -5 0 -26 16 -46 35 -20 19 -39 35 -42
35 -6 0 -215 208 -215 214 0 3 -20 27 -45 53 -25 25 -45 50 -45 55 0 4 -13 22
-30 39 -16 17 -32 40 -35 50 -4 11 -11 19 -16 19 -5 0 -9 9 -9 19 0 11 -4 21
-9 23 -11 4 -81 114 -81 127 0 5 -4 11 -8 13 -9 3 -62 113 -62 128 0 6 -4 10
-10 10 -5 0 -10 9 -10 20 0 11 -4 20 -10 20 -5 0 -10 8 -10 18 0 10 -9 38 -21
61 -11 24 -23 59 -26 77 -3 19 -10 37 -14 40 -5 3 -9 16 -9 30 0 13 -4 24 -9
24 -5 0 -11 12 -14 28 -3 15 -13 59 -22 97 -9 39 -19 98 -22 133 -3 34 -9 62
-13 62 -13 0 -30 439 -17 447 4 2 7 42 7 88 0 46 4 86 9 89 5 3 11 32 14 63 3
32 13 87 22 123 9 36 19 80 22 98 3 18 9 35 14 38 5 3 9 16 9 30 0 13 5 24 10
24 6 0 10 10 10 23 0 12 12 49 25 82 14 33 25 68 25 77 0 9 3 18 8 20 9 4 62
110 62 126 0 6 5 12 10 12 6 0 10 4 10 9 0 9 63 118 80 138 5 7 10 17 10 23 0
5 5 10 10 10 6 0 10 6 10 14 0 7 11 25 25 40 14 15 25 30 25 35 0 4 8 16 18
27 10 10 25 30 34 43 36 52 240 271 253 271 5 0 18 10 80 68 13 12 27 22 30
22 3 0 17 11 31 25 14 14 29 25 35 25 5 0 23 13 40 30 17 16 40 32 50 35 11 4
19 11 19 16 0 5 9 9 20 9 11 0 20 5 20 10 0 6 7 10 15 10 8 0 15 4 15 8 0 10
99 62 118 62 6 0 12 5 12 10 0 6 7 10 15 10 8 0 15 5 15 10 0 6 7 10 15 10 18
0 89 32 93 43 2 4 17 7 33 7 16 0 29 5 29 10 0 6 11 10 25 10 14 0 25 5 25 10
0 6 9 10 19 10 11 0 22 4 26 9 3 5 30 13 60 16 30 4 55 11 55 16 0 5 16 9 35
9 19 0 35 5 35 10 0 6 15 10 34 10 19 0 37 4 40 9 3 4 34 11 68 15 35 4 90 10
123 15 87 12 418 12 505 0z"/>
</g>
</svg>
