<svg width="1471" height="188" viewBox="0 0 1471 188" fill="none" xmlns="http://www.w3.org/2000/svg">
<path d="M292.5 35.0996L272.7 0.900391H264.5V72.0996H273.2V16.7002L288.7 43.9004H296.3L311.8 16.5996V72.0996H320.4V0.900391H312.4L292.5 35.0996Z" fill="#34B5E2"/>
<path d="M359.4 0.199219C347.6 0.199219 334 8.19922 334 70.6992V71.999H343.7V70.5986C343.7 70.4986 343.5 56.6994 344 48.8994H374.8C375.2 56.5994 375.1 70.3986 375.1 70.5986V71.999H384.7V70.6992C384.7 7.49922 370.2 0.199219 359.4 0.199219ZM359.1 7.89941C366.8 7.89941 372.5 20.3988 374.5 41.2988H344.6C345.6 31.5988 348.6 7.89941 359.1 7.89941Z" fill="#34B5E2"/>
<path d="M426.2 35.0996L406.4 0.900391H398.2V72.0996H406.9V16.7002L422.4 43.9004H429.9L445.5 16.5996V72.0996H454.1V0.900391H446L426.2 35.0996Z" fill="#34B5E2"/>
<path d="M490.2 0.599219C483 1.49922 477.2 7.49981 474.8 12.6998L474.9 12.7994C473.4 14.9994 471.8 21 471.1 23.9C469.5 30.7 467.6 42.1992 467.6 58.5992V72.1998H476.6V58.5992C476.6 28.8992 482.9 15.1992 482.9 15.0992C484.3 12.1992 487.5 8.9 490.5 8.4C496.1 7.5 504.8 8.1 508 8.4V72.1998H516.9V1.09922L515.7 0.99961C515 0.79961 498.1 -0.300781 490.2 0.599219Z" fill="#34B5E2"/>
<path d="M573.6 64.7002H540V37.7998H565.8L567.6 30.0996H540V8.59961H572L573.4 0.900391H531.2V72.0996H573.6V64.7002Z" fill="#34B5E2"/>
<path d="M594.9 39.4004C597.6 39.3004 604 39.2004 608.7 39.4004C614.3 39.7004 615.6 42.4004 616.6 45.9004L624.6 72H634.7L634.1 70.2002C634 70.0002 627.2 49.7996 625.4 44.5996C623.9 40.1996 620.5 34.7996 615.5 32.5996C617.3 31.0996 618.6 29.1996 619.7 26.5996C621.1 22.8996 629.5 2.79961 629.6 2.59961L630.4 0.799805H620.3L620 1.7002C619.9 1.9002 612.6 21.4002 611.2 24.7002C610.2 27.1002 608.3 30.1996 603.5 30.5996C599.9 30.7996 596.6 30.7002 594.9 30.7002V0.0996094L586 1.7002V72.0996H594.9V39.4004Z" fill="#34B5E2"/>
<path d="M689.9 64.7002H656.4V37.7998H682.1L683.9 30.0996H656.4V8.59961H688.3L689.7 0.900391H647.5V72.0996H689.9V64.7002Z" fill="#34B5E2"/>
<path d="M725.8 72.0996V8.59961L746 9.2002V0.900391H696.8V9.2002L716.9 8.59961V72.0996H725.8Z" fill="#34B5E2"/>
<path d="M798.4 0.900391H749.3V9.2002L769.4 8.59961V72.0996H778.2V8.59961L798.4 9.2002V0.900391Z" fill="#34B5E2"/>
<path d="M854.9 72.0996V0.900391H846.6L816.1 53.5V0.0996094L807.2 1.59961V72.0996H815.5L846 19.5996V72.0996H854.9Z" fill="#34B5E2"/>
<path d="M917.2 70.2988C917.1 70.0988 910.3 49.8992 908.5 44.6992C907 40.2992 903.6 34.8992 898.6 32.6992C900.4 31.1992 901.7 29.2992 902.8 26.6992C904.2 22.9992 912.6 2.89922 912.7 2.69922L913.5 0.899414H903.4L903.1 1.79883C903 1.99883 895.7 21.4988 894.3 24.7988C893.3 27.1988 891.4 30.2992 886.6 30.6992C883 30.8992 879.7 30.7988 878 30.7988V0.199219L869.1 1.79883V72.1992H878V39.499C880.7 39.399 887.1 39.299 891.8 39.499C897.4 39.799 898.7 42.499 899.7 45.999L907.7 72.0986H917.8L917.2 70.2988Z" fill="#34B5E2"/>
<path d="M303.8 154.4C302.3 150 298.9 144.6 293.9 142.4C295.7 140.9 297 139 298.1 136.4C299.5 132.7 307.9 112.6 308 112.4L308.8 110.6H298.7L298.4 111.5C298.3 111.7 291 131.2 289.6 134.5C288.6 136.9 286.7 140 281.9 140.4C278.3 140.6 275 140.5 273.3 140.5V109.9L264.4 111.5V181.9H273.3V149.2C276 149.1 282.4 149 287.1 149.2C292.7 149.5 294 152.2 295 155.7L303 181.8H313.1L312.5 180C312.4 179.8 305.6 159.5 303.8 154.4Z" fill="#34B5E2"/>
<path d="M350.3 109.9C338.5 109.9 324.9 117.9 324.9 180.4V181.7H334.6V180.3C334.6 180.2 334.4 166.4 334.9 158.6H365.7C366.1 166.3 366 180.1 366 180.3V181.6H375.6V180.3C375.7 117.2 361.2 109.9 350.3 109.9ZM350 117.6C357.7 117.6 363.4 130.1 365.4 151H335.5C336.6 141.2 339.5 117.6 350 117.6Z" fill="#34B5E2"/>
<path d="M417.1 144.7L397.3 110.5H389.2V181.7H397.9V126.4L413.3 153.6H420.9L436.4 126.2V181.7H445V110.5H437L417.1 144.7Z" fill="#34B5E2"/>
<path d="M488 174.999C475.2 174.999 468.7 165.299 468.6 146.099C468.7 133.099 472 117.499 487.6 117.499C497.1 117.499 500.9 123.399 501.1 123.599L503 126.699L504.7 114.599L504.2 114.099C504 113.899 499.1 109.699 487.6 109.699C469 109.699 459.6 121.899 459.6 145.899C459.6 169.899 469.2 182.099 488.1 182.099C500.3 182.099 505.1 176.899 505.3 176.599L505.6 176.299L507 164.799L504.3 167.299C504.1 167.599 496 174.999 488 174.999Z" fill="#34B5E2"/>
<path d="M578.3 110.5H569.4V181.7H578.3V110.5Z" fill="#34B5E2"/>
<path d="M541 126.399C533.7 126.399 529.1 128.299 526.8 129.599V109.699L517.9 111.299V164.899C517.9 174.999 527.6 182.399 540.9 182.399C557 182.399 565.2 172.899 565.2 153.999C565.2 129.999 550 126.399 541 126.399ZM556.2 153.899C556.2 168.099 551.2 174.999 540.8 174.999C530.6 174.999 526.8 168.799 526.8 164.799V136.299C528 135.599 531.8 133.899 541 133.899C553.6 133.999 556.2 144.799 556.2 153.899Z" fill="#34B5E2"/>
<path d="M631.7 142.8C633.8 141.1 637 137.8 637 129.5C637 117 628.6 109.9 613.9 109.9C599.9 109.9 595.4 115.7 595.2 115.9L595 116.2L592.9 129.6L596 125.7C596.1 125.6 602.7 117.6 613.9 117.6C627.9 117.6 628.1 129 628.1 129.5C628.1 137.6 622.6 139.7 619.7 139.7C619.2 139.7 618.5 139.7 617.6 139.8C616.1 139.9 614 139.9 611.4 139.9C605.2 139.9 601.2 139.7 601.1 139.7H600L597.9 147.7H599.7C599.7 147.7 604.9 147.6 611.5 147.6C614.5 147.6 617 147.6 618.9 147.7C620 147.7 620.9 147.7 621.5 147.7C624.5 147.7 630.2 150.4 630.2 160.4C630.2 175 614.2 175.1 613.5 175.1C599.1 175.1 594.6 164.6 594.5 164.1L592.7 159.6L590.6 172.9L590.8 173.3C591 173.7 596.4 182.4 613.6 182.4C625.2 182.4 639 178.6 639 160.3C639 150.7 635.2 145.5 631.7 142.8Z" fill="#34B5E2"/>
<path d="M703.9 111.299L702.7 111.199C702 111.099 686.6 109.199 678.8 110.299C670.9 111.399 664.4 116.699 661.4 124.499L661.1 125.299C658.2 132.699 656.3 137.599 656.3 168.199V174.499H651.4L652.1 187.999H659.8L660.4 181.799H700.1L700.6 187.999H708.4L709 174.499H704.1V111.299H703.9ZM695 117.899V174.399H665.1V168.098C665.1 138.398 666.3 133.999 669.8 125.699C671.2 122.399 674.6 118.699 679.1 117.899C684.6 116.999 692.1 117.599 695 117.899Z" fill="#34B5E2"/>
<path d="M745.6 109.9C733.8 109.9 720.2 117.9 720.2 180.4V181.7H729.9V180.3C729.9 180.2 729.7 166.4 730.2 158.6H761C761.4 166.3 761.3 180.1 761.3 180.3V181.6H770.9V180.3C770.9 117.2 756.5 109.9 745.6 109.9ZM745.3 117.6C753 117.6 758.7 130.1 760.7 151H730.8C731.8 141.2 734.8 117.6 745.3 117.6Z" fill="#34B5E2"/>
<path d="M825.1 141.099H793.2V109.699L784.3 111.299V181.699H793.2V148.799H825.1V181.699H834V110.499H825.1V141.099Z" fill="#34B5E2"/>
<path d="M898.9 111.299L897.7 111.199C897 111.099 881.6 109.199 873.8 110.299C865.9 111.399 859.4 116.699 856.4 124.499L856.1 125.299C853.2 132.699 851.3 137.599 851.3 168.199V174.499H846.4L847.1 187.999H854.8L855.3 181.799H895L895.5 187.999H903.3L903.9 174.499H899V111.299H898.9ZM890 117.899V174.399H860.1V168.098C860.1 138.398 861.3 133.999 864.8 125.699C866.2 122.399 869.6 118.699 874.1 117.899C879.6 116.999 887.1 117.599 890 117.899Z" fill="#34B5E2"/>
<path d="M976.4 110.5H967.5V181.7H976.4V110.5Z" fill="#34B5E2"/>
<path d="M939.2 126.399C931.9 126.399 927.3 128.299 925 129.599V109.699L916.1 111.299V164.899C916.1 174.999 925.8 182.399 939.1 182.399C955.2 182.399 963.4 172.899 963.4 153.999C963.4 129.999 948.2 126.399 939.2 126.399ZM954.4 153.899C954.4 168.099 949.4 174.999 939 174.999C928.8 174.999 925 168.799 925 164.799V136.299C926.2 135.599 930 133.899 939.2 133.899C951.7 133.999 954.4 144.799 954.4 153.899Z" fill="#34B5E2"/>
<path d="M1014.8 110.2C1004.3 109.3 992 110.5 991.9 110.5L990.7 110.599V181.7H999.7V156.8C1001.9 157.9 1006.3 159.4 1015.1 159.4C1030 159.4 1036.9 151.3 1036.9 133.9C1036.8 119.6 1029.2 111.4 1014.8 110.2ZM1016.5 151.7C1006.8 151.7 1001.5 150.3 999.7 149.7V118C1002.3 117.7 1009.1 117 1016.5 118.3C1021.8 119.3 1028 122.8 1028 134.3C1027.9 146.9 1024.7 151.7 1016.5 151.7Z" fill="#34B5E2"/>
<path d="M1088.6 147.699C1087.4 148.999 1082.4 154.099 1072.8 154.099C1062.1 154.099 1057.2 146.199 1057.2 140.599V109.699L1048.3 111.299V140.999C1048.3 152.899 1058.9 161.799 1072.9 161.799C1079.7 161.799 1085.5 159.299 1088.6 156.199V162.199C1088.6 166.599 1085.1 174.999 1072 174.999C1059.3 174.999 1054.4 165.899 1054.2 165.499L1052.4 161.999L1049.9 175.499L1050.4 175.999C1050.7 176.299 1057.3 182.299 1072 182.299C1087.7 182.299 1097.5 175.199 1097.5 163.899V110.499H1088.6V147.699Z" fill="#34B5E2"/>
<path d="M1152 147.699C1150.8 148.999 1145.8 154.099 1136.2 154.099C1125.5 154.099 1120.6 146.199 1120.6 140.599V109.699L1111.7 111.299V140.999C1111.7 152.899 1122.3 161.799 1136.3 161.799C1143.1 161.799 1148.9 159.299 1152 156.199V162.199C1152 166.599 1148.5 174.999 1135.4 174.999C1122.7 174.999 1117.8 165.899 1117.6 165.499L1115.8 161.999L1113.3 175.499L1113.8 175.999C1114.1 176.299 1120.7 182.299 1135.4 182.299C1151.1 182.299 1160.9 175.199 1160.9 163.899V110.499H1152V147.699Z" fill="#34B5E2"/>
<path d="M1249.2 147.699C1248 148.999 1243 154.099 1233.4 154.099C1222.7 154.099 1217.8 146.199 1217.8 140.599V109.699L1208.9 111.299V140.999C1208.9 152.899 1219.5 161.799 1233.5 161.799C1240.3 161.799 1246.1 159.299 1249.2 156.199V162.199C1249.2 166.599 1245.7 174.999 1232.6 174.999C1219.9 174.999 1215 165.899 1214.8 165.499L1213 161.999L1210.5 175.499L1211 175.999C1211.3 176.299 1217.9 182.299 1232.6 182.299C1248.3 182.299 1258.1 175.199 1258.1 163.899V110.499H1249.2V147.699Z" fill="#34B5E2"/>
<path d="M1312.4 109.899C1295.3 109.899 1288.2 118.499 1287.3 140.499H1281.2V109.699L1272.3 111.299V181.699H1281.2V149.399H1287.3C1288.2 172.199 1295.9 182.399 1312.4 182.399C1330.3 182.399 1338 171.599 1338 146.199C1338 120.699 1330.3 109.899 1312.4 109.899ZM1312.4 174.999C1302.3 174.999 1296.4 170.299 1296.3 146.099C1296.4 122.299 1302.5 117.499 1312.4 117.499C1322.2 117.499 1328.8 122.399 1328.9 145.999C1328.8 170.199 1322.5 174.999 1312.4 174.999Z" fill="#34B5E2"/>
<path d="M1379.4 144.7L1359.6 110.5H1351.5V181.7H1360.2V126.4L1375.6 153.6H1383.2L1398.7 126.2V181.7H1407.3V110.5H1399.3L1379.4 144.7Z" fill="#34B5E2"/>
<path d="M1462.1 110.499V147.699C1460.9 148.999 1455.9 154.099 1446.3 154.099C1435.6 154.099 1430.7 146.199 1430.7 140.599V109.699L1421.8 111.299V140.999C1421.8 152.899 1432.4 161.799 1446.4 161.799C1453.2 161.799 1459 159.299 1462.1 156.199V162.199C1462.1 166.599 1458.6 174.999 1445.5 174.999C1432.8 174.999 1427.9 165.899 1427.7 165.499L1425.9 161.999L1423.4 175.499L1423.9 175.999C1424.2 176.299 1430.8 182.299 1445.5 182.299C1461.2 182.299 1471 175.199 1471 163.899V110.499H1462.1Z" fill="#34B5E2"/>
<path d="M193.9 83.2988C185.2 102.399 171 118.399 153.3 129.399C147.1 133.299 140.4 136.499 133.4 139.099C129.6 140.499 125.8 141.599 121.8 142.599C113.8 144.499 105.5 145.499 96.9 145.499C81.2 145.499 66.3 142.099 52.9 135.999C33 126.999 16.3 111.999 5.20004 93.2988C3.70004 90.6988 2.20002 88.0988 0.900024 85.2988C3.10002 83.8988 5.30003 82.699 7.50003 81.499C20.1 74.899 34.1 70.699 49 69.499H49.1C51.8 69.299 54.5 69.1992 57.2 69.1992C58.1 69.1992 59 69.1992 59.8 69.1992C79.4 70.2992 96.7 79.8994 108.1 94.3994C103.5 92.5994 98.5 91.5986 93.2 91.5986C81.2 91.5986 70.4 96.7986 62.9 105.099C75.4 107.999 88.5 109.499 101.9 109.499C106.9 109.499 111.8 109.299 116.7 108.899C119.7 108.599 122.8 108.299 125.8 107.899C129.8 107.399 133.8 106.699 137.7 105.799C158 101.799 176.9 93.9988 193.9 83.2988Z" fill="#0BB7A2"/>
<path d="M1 63.0996C9.7 43.9996 23.9 28 41.6 17C47.8 13.1 54.5 9.89981 61.5 7.2998C65.3 5.8998 69.1 4.7998 73.1 3.7998C81.1 1.8998 89.4 0.900391 98 0.900391C113.7 0.900391 128.6 4.30039 142 10.4004C161.9 19.4004 178.6 34.3996 189.7 53.0996C191.2 55.6996 192.7 58.2996 194 61.0996C191.8 62.4996 189.6 63.7004 187.4 64.9004C174.8 71.5004 160.8 75.7004 145.9 76.9004H145.8C143.1 77.1004 140.4 77.2002 137.7 77.2002C136.8 77.2002 135.9 77.2002 135.1 77.2002C115.5 76.1002 98.2 66.5 86.8 52C91.4 53.8 96.4 54.7998 101.7 54.7998C113.7 54.7998 124.5 49.5998 132 41.2998C119.5 38.3998 106.4 36.9004 93 36.9004C88 36.9004 83.1 37.1 78.2 37.5C75.2 37.8 72.1 38.1 69.1 38.5C65.1 39 61.1 39.6996 57.2 40.5996C36.8 44.5996 17.9 52.3996 1 63.0996Z" fill="#34B5E2"/>
<path d="M10.9 174.7C10.5 173.6 9.69996 172.3 8.39996 171.7C8.89996 171.3 9.19996 170.8 9.39996 170.2C9.79996 169.3 11.8 164.2 11.9 164.2L12.1 163.7H9.59998L9.49997 163.9C9.49997 163.9 7.59996 168.8 7.29996 169.6C6.99996 170.2 6.59996 171 5.39996 171.1C4.49996 171.1 3.69996 171.1 3.29996 171.1V163.5L1.09998 163.9V181.5H3.29996V173.3C3.99996 173.3 5.59996 173.2 6.79996 173.3C8.19996 173.4 8.49996 174.1 8.79996 174.9L10.8 181.4H13.3L13.1 180.9C13 181.1 11.3 176 10.9 174.7Z" fill="#0BB7A2"/>
<path d="M29.4999 163.699H27.2999V181.499H29.4999V163.699Z" fill="#0BB7A2"/>
<path d="M20.4999 167.7C18.6999 167.7 17.4999 168.2 16.9999 168.5V163.5L14.7999 163.9V177.3C14.7999 179.8 17.1999 181.7 20.5999 181.7C24.5999 181.7 26.7 179.3 26.7 174.6C26.5 168.6 22.6999 167.7 20.4999 167.7ZM24.2999 174.6C24.2999 178.2 22.9999 179.9 20.4999 179.9C17.9999 179.9 16.9999 178.3 16.9999 177.4V170.3C17.2999 170.1 18.1999 169.7 20.4999 169.7C23.5999 169.6 24.2999 172.3 24.2999 174.6Z" fill="#0BB7A2"/>
<path d="M38.6 163.702C36 163.502 33 163.801 32.9 163.801H32.6V181.601H34.9V175.402C35.4 175.702 36.6 176.001 38.7 176.001C42.4 176.001 44.2 174.001 44.2 169.601C44.2 166.001 42.3 164.002 38.6 163.702ZM39.1 174.001C36.7 174.001 35.4 173.701 34.9 173.501V165.601C35.6 165.501 37.3 165.402 39.1 165.702C40.4 165.902 42 166.802 42 169.702C41.9 173.302 40.8 174.001 39.1 174.001Z" fill="#0BB7A2"/>
<path d="M45.7999 163.699V181.599H47.9999V165.699H54.2999L53.8999 163.699H45.7999Z" fill="#0BB7A2"/>
<path d="M60.8999 167.7C59.0999 167.7 57.8999 168.2 57.3999 168.5V163.5L55.2 163.9V177.3C55.2 179.8 57.5999 181.7 60.9999 181.7C64.9999 181.7 67.0999 179.3 67.0999 174.6C66.9999 168.6 63.1999 167.7 60.8999 167.7ZM64.7 174.6C64.7 178.2 63.3999 179.9 60.8999 179.9C58.3999 179.9 57.3999 178.3 57.3999 177.4V170.3C57.6999 170.1 58.5999 169.7 60.8999 169.7C64.0999 169.6 64.7 172.3 64.7 174.6Z" fill="#0BB7A2"/>
<path d="M70.2 163.699H68V181.499H70.2V163.699Z" fill="#0BB7A2"/>
<path d="M83.3 171.8C83.8 171.4 84.6 170.5 84.6 168.5C84.6 165.4 82.5 163.6 78.8 163.6C75.3 163.6 74.2 165 74.1 165.1L74 165.2L73.5 168.6L74.3 167.6C74.3 167.6 76 165.6 78.8 165.6C82.3 165.6 82.3 168.5 82.3 168.6C82.3 170.6 80.9 171.1 80.2 171.1C80.1 171.1 79.9 171.1 79.7 171.1C79.3 171.1 78.8 171.1 78.2 171.1C76.7 171.1 75.6 171.1 75.6 171.1H75.3L74.8 173.1H75.3C75.3 173.1 76.6 173.1 78.2 173.1C78.9 173.1 79.6 173.1 80.1 173.1C80.4 173.1 80.6 173.1 80.8 173.1C81.6 173.1 83 173.8 83 176.3C83 179.9 79 180 78.8 180C75.2 180 74.1 177.4 74 177.3L73.5 176.2L73 179.5L73.1 179.6C73.2 179.7 74.5 181.9 78.8 181.9C81.7 181.9 85.2 180.9 85.2 176.4C85.1 173.8 84.2 172.5 83.3 171.8Z" fill="#0BB7A2"/>
<path d="M87.3999 163.699V181.599H89.6999V165.699H95.9999L95.5999 163.699H87.3999Z" fill="#0BB7A2"/>
<path d="M102.9 163.6C98.3 163.6 96.1 166.5 96.1 172.7C96.1 178.9 98.3 181.8 102.9 181.8C107.5 181.8 109.7 178.9 109.7 172.7C109.7 166.5 107.5 163.6 102.9 163.6ZM107.4 172.6C107.4 179 105.1 179.8 102.9 179.8C100.7 179.8 98.4 178.9 98.4 172.6C98.4 167.7 99.8 165.5 102.9 165.5C106 165.5 107.4 167.7 107.4 172.6Z" fill="#0BB7A2"/>
<path d="M118.4 179.9C115.2 179.9 113.6 177.5 113.6 172.7C113.6 169.4 114.4 165.6 118.3 165.6C120.7 165.6 121.6 167.1 121.7 167.1L122.2 167.9L122.6 164.8L122.5 164.7C122.4 164.7 121.2 163.6 118.3 163.6C113.6 163.6 111.3 166.7 111.3 172.7C111.3 178.7 113.7 181.8 118.4 181.8C121.4 181.8 122.6 180.5 122.7 180.4L122.8 180.3L123.2 177.4L122.5 178C122.4 178 120.4 179.9 118.4 179.9Z" fill="#0BB7A2"/>
<path d="M131.7 179.9C128.5 179.9 126.9 177.5 126.9 172.7C126.9 169.4 127.7 165.6 131.6 165.6C134 165.6 134.9 167.1 135 167.1L135.5 167.9L135.9 164.8L135.8 164.7C135.7 164.7 134.5 163.6 131.6 163.6C126.9 163.6 124.6 166.7 124.6 172.7C124.6 178.7 127 181.8 131.7 181.8C134.7 181.8 135.9 180.5 136 180.4L136.1 180.3L136.5 177.4L135.8 178C135.7 178 133.7 179.9 131.7 179.9Z" fill="#0BB7A2"/>
<path d="M137 165.899L142.1 165.699V181.599H144.3V165.699L149.4 165.899V163.699H137V165.899Z" fill="#0BB7A2"/>
<path d="M157.2 163.702C154.6 163.502 151.6 163.801 151.5 163.801H151.2V181.601H153.5V175.402C154 175.702 155.2 176.001 157.3 176.001C161 176.001 162.8 174.001 162.8 169.601C162.7 166.001 160.8 164.002 157.2 163.702ZM157.7 174.001C155.3 174.001 154 173.701 153.5 173.501V165.601C154.2 165.501 155.9 165.402 157.7 165.702C159 165.902 160.6 166.802 160.6 169.702C160.5 173.302 159.4 174.001 157.7 174.001Z" fill="#0BB7A2"/>
<path d="M171.4 163.6C168.4 163.6 165 165.6 165 181.2V181.5H167.4V181.2C167.4 181.2 167.3 177.7 167.5 175.8H175.2C175.3 177.7 175.3 181.2 175.3 181.2V181.5H177.7V181.2C177.7 165.4 174.1 163.6 171.4 163.6ZM175.1 173.9H167.6C167.9 171.4 168.6 165.6 171.2 165.6C173.2 165.5 174.7 168.6 175.1 173.9Z" fill="#0BB7A2"/>
<path d="M187.7 172.299L193.4 163.699H190.6L186.6 170.299L182.6 163.699H179.7L185.4 172.299L179.3 181.599H182.1L186.6 174.299L191 181.599H193.9L187.7 172.299Z" fill="#0BB7A2"/>
</svg>
