<svg width="1452" height="246" viewBox="0 0 1452 246" fill="none" xmlns="http://www.w3.org/2000/svg">
<path d="M375.4 88.2012C360.1 88.2012 353.2 70.8006 353.2 70.6006L350.3 62.9014L348.7 87.1006L349.3 87.7012C349.7 88.1012 359.6 98.001 375.5 98.001C397.9 98.001 411.3 86.4014 411.3 66.9014C411.3 62.3014 410.3 53.601 403.6 47.501C397.7 42.101 388.7 40.0006 377.1 41.1006C373 41.5006 369.3 40.5014 366.5 37.9014C363.6 35.3014 362 31.5008 362 27.3008C362 15.4008 366.9 10.1006 377.9 10.1006C393.3 10.1006 398.5 23.5006 398.8 24.1006L402.8 34.8008L401.5 7.60059L400.8 7.10059C400.4 6.80059 391.9 0.300781 377.9 0.300781C360.5 0.300781 350.1 10.4014 350.1 27.4014C350.1 31.8014 351 40.101 357.1 45.501C362 49.901 369.3 51.6006 378.7 50.6006C385.7 49.8006 391.1 51.0006 394.6 54.1006C397.7 56.9006 399.3 61.2014 399.3 66.9014C399.1 73.2014 396.8 88.2012 375.4 88.2012Z" fill="#34B5E2"/>
<path d="M445.2 97.0996H457.2V11.5L484.4 12.4004V1.09961H418.1V12.4004L445.2 11.5V97.0996Z" fill="#34B5E2"/>
<path d="M548.8 66C549.4 76.4 549.2 95.0002 549.2 95.2002V97H562.2V95.2002C562.2 10.0002 542.7 0.0996094 528 0.0996094C512.1 0.0996094 493.8 10.9002 493.8 95.2002V97H506.9V95.2002C506.9 95.0002 506.6 76.4 507.4 66H548.8ZM527.6 10.5996C538 10.5996 545.7 27.4002 548.3 55.7002H508C509.4 42.4002 513.4 10.5996 527.6 10.5996Z" fill="#34B5E2"/>
<path d="M598.6 97.0996H610.6V11.5L637.8 12.4004V1.09961H571.5V12.4004L598.6 11.5V97.0996Z" fill="#34B5E2"/>
<path d="M706.8 87.2002H661.6V50.9004H696.3L698.8 40.5H661.6V11.4004H704.7L706.6 1.09961H649.6V97.0996H706.8V87.2002Z" fill="#34B5E2"/>
<path d="M769.1 12.2998L780.3 11.5996V87.2002L769.1 86.5V97.0996H803.5V86.5L792.3 87.2002V11.5996L803.5 12.2998V1.09961H769.1V12.2998Z" fill="#34B5E2"/>
<path d="M875.1 71.9004L833.9 1.09961H822.7V97.0996H834.7V26.0996L875.9 97.0996H887.1V1.09961H875.1V71.9004Z" fill="#34B5E2"/>
<path d="M930.8 40.999C926.7 41.399 923 40.3988 920.2 37.7988C917.3 35.1988 915.7 31.3992 915.7 27.1992C915.7 15.2992 920.6 9.99902 931.6 9.99902C947 9.99902 952.2 23.399 952.5 23.999L956.5 34.6992L955.2 7.49902L954.5 6.99902C954.1 6.69902 945.6 0.199219 931.6 0.199219C914.2 0.199219 903.8 10.2988 903.8 27.2988C903.8 31.6988 904.7 39.9994 910.8 45.3994C915.7 49.7994 923 51.499 932.4 50.499C939.4 49.699 944.8 50.899 948.3 53.999C951.4 56.799 953 61.0988 953 66.7988C953 73.1988 950.7 88.1992 929.3 88.1992C914 88.1992 907.1 70.7986 907.1 70.5986L904.2 62.8994L902.6 87.0986L903.2 87.6992C903.6 88.0992 913.5 97.999 929.4 97.999C951.8 97.999 965.2 86.3994 965.2 66.8994C965.2 62.2994 964.2 53.599 957.5 47.499C951.4 41.999 942.5 39.899 930.8 40.999Z" fill="#34B5E2"/>
<path d="M1036 49.2012C1035.9 81.7012 1027.4 88.2012 1013.8 88.2012C1000.1 88.2012 991.6 81.7012 991.4 49.2012V0.300781L979.3 2.20117V49.2012C979.3 83.4012 989.6 97.9014 1013.8 97.9014C1038 97.9014 1048.3 83.3012 1048.3 49.2012V2.20117L1036.1 0.300781V49.2012H1036Z" fill="#34B5E2"/>
<path d="M1106.6 58.9003C1112.9 59.3003 1114.4 63.1999 1116 69.4999C1117.2 74.6999 1120.3 87.3997 1122.4 95.7997L1122.7 97.2001H1134.8L1134.3 94.9999C1132.2 86.2999 1129 72.5001 1127.9 67.7001C1126.8 62.2001 1124.4 57.4001 1121.4 54.2001C1128.5 49.6001 1131.5 42.9001 1131.5 32.2001C1131.5 5.40008 1116.5 1.19949 1101.8 0.599489C1086.3 -0.100511 1069.2 1.20008 1069 1.20008L1067.3 1.29968V97.2001H1079.3V55.9999C1081.3 56.8999 1084.8 57.8003 1090.8 58.4003C1096.9 58.9003 1101.9 58.9999 1104.5 58.9999C1105.6 58.7999 1106.2 58.8003 1106.6 58.9003ZM1079.4 10.7001C1082.8 10.6001 1091.1 10.5003 1103.3 10.9003C1110.3 11.1003 1119.5 13.6003 1119.5 32.9003C1119.5 39.9003 1116.9 48.2997 1104.7 48.2997C1089.2 48.2997 1082 47.2001 1079.4 46.7001V10.7001Z" fill="#34B5E2"/>
<path d="M1161.7 95.2988C1161.7 95.0988 1161.4 76.4986 1162.2 66.0986H1203.7C1204.3 76.4986 1204.1 95.0988 1204.1 95.2988V97.0986H1217.1V95.2988C1217.1 10.0988 1197.6 0.199219 1182.9 0.199219C1167 0.199219 1148.7 10.9988 1148.7 95.2988V97.0986H1161.8L1161.7 95.2988ZM1182.5 10.5986C1192.9 10.5986 1200.6 27.3992 1203.2 55.6992H1162.9C1164.3 42.3992 1168.3 10.5986 1182.5 10.5986Z" fill="#34B5E2"/>
<path d="M1286.1 71.9004L1245 1.09961H1233.8V97.0996H1245.7V26.0996L1286.9 97.0996H1298.1V1.09961H1286.1V71.9004Z" fill="#34B5E2"/>
<path d="M1353.2 88.1006C1335.9 88.1006 1327.1 75.0006 1327 49.1006C1327.1 31.5006 1331.6 10.6006 1352.6 10.6006C1365.4 10.6006 1370.6 18.5014 1370.8 18.9014L1373.4 23.1006L1375.7 6.80078L1375 6.20117C1374.7 6.00117 1368.2 0.300781 1352.6 0.300781C1327.5 0.300781 1314.8 16.7012 1314.8 49.2012C1314.8 81.6012 1327.7 98.1006 1353.2 98.1006C1369.6 98.1006 1376.1 91.0012 1376.4 90.7012L1376.8 90.3008L1378.7 74.7012L1375.1 78.1006C1374.9 78.0006 1364.1 88.1006 1353.2 88.1006Z" fill="#34B5E2"/>
<path d="M1406.8 87.2002V50.9004H1441.5L1444 40.5H1406.8V11.4004H1449.9L1451.7 1.09961H1394.8V97.0996H1452V87.2002H1406.8Z" fill="#34B5E2"/>
<path d="M385.3 148.1C360.4 148.1 348.7 163.6 348.7 197C348.7 230.3 360.3 245.9 385.3 245.9C410.2 245.9 421.8 230.4 421.8 197C421.8 163.6 410.2 148.1 385.3 148.1ZM409.6 196.9C409.5 231.3 397.2 235.9 385.3 235.9C373.4 235.9 361.1 231.3 361 196.9C361.1 170.3 368.6 158.4 385.3 158.4C402 158.4 409.5 170.3 409.6 196.9Z" fill="#34B5E2"/>
<path d="M497.8 215.401C496.7 209.901 494.3 205.101 491.3 201.901C498.4 197.301 501.4 190.601 501.4 179.901C501.4 153.101 486.4 148.901 471.7 148.301C456.2 147.601 439.1 148.901 438.9 148.901L437.2 149.001V244.901H449.2V203.701C451.2 204.601 454.7 205.5 460.7 206.1C466.8 206.6 471.8 206.701 474.4 206.701C475.3 206.701 476 206.701 476.4 206.701C482.7 207.101 484.2 211.001 485.8 217.301C487 222.501 490.1 235.2 492.2 243.6L492.5 245.001H504.6L504.1 242.801C502.1 234.001 498.9 220.201 497.8 215.401ZM449.3 158.501C452.7 158.401 461 158.301 473.2 158.701C480.2 158.901 489.4 161.401 489.4 180.701C489.4 187.701 486.8 196.201 474.6 196.201C459.1 196.201 451.9 195.1 449.3 194.6V158.501Z" fill="#34B5E2"/>
<path d="M550.7 200.9H571V231.2C565.9 234 561.2 235.4 556.9 235.4C539.3 235.4 530.7 222.8 530.6 196.9C530.7 179.3 535.2 158.4 556.3 158.4C569.1 158.4 574.3 166.3 574.5 166.7L577.1 170.9L579.4 154.6L578.7 154C578.4 153.8 571.8 148.1 556.3 148.1C531.2 148.1 518.5 164.5 518.5 197C518.5 229.4 531.4 245.9 556.9 245.9C575.9 245.9 582.6 231 582.8 230.4L583 230.1V191.2H551.9L550.7 200.9Z" fill="#34B5E2"/>
<path d="M632.7 148.1C616.8 148.1 598.5 158.9 598.5 243.2V245H611.6V243.2C611.6 243 611.3 224.4 612.1 214H653.6C654.2 224.4 654 243 654 243.2V245H667V243.2C666.9 157.9 647.4 148.1 632.7 148.1ZM632.3 158.4C642.7 158.4 650.4 175.2 653 203.5H612.7C614.2 190.3 618.2 158.4 632.3 158.4Z" fill="#34B5E2"/>
<path d="M736 219.7L694.8 148.9H683.6V244.9H695.6V173.9L736.8 244.9H748V148.9H736V219.7Z" fill="#34B5E2"/>
<path d="M767.2 160.2L778.4 159.4V235.1L767.2 234.3V244.9H801.6V234.3L790.4 235.1V159.4L801.6 160.2V148.9H767.2V160.2Z" fill="#34B5E2"/>
<path d="M819.7 159.4L866.4 158.8L814.6 236.4V244.9H881.5V234.4L829.7 235.1L881.5 157.5V148.9H819.7V159.4Z" fill="#34B5E2"/>
<path d="M927.5 148.1C911.6 148.1 893.3 158.9 893.3 243.2V245H906.4V243.2C906.4 243 906.1 224.4 906.9 214H948.4C949 224.4 948.8 243 948.8 243.2V245H961.8V243.2C961.7 157.9 942.2 148.1 927.5 148.1ZM927.2 158.4C937.6 158.4 945.3 175.2 947.9 203.5H907.6C909 190.3 913 158.4 927.2 158.4Z" fill="#34B5E2"/>
<path d="M971.1 160.2L998.2 159.4V244.9H1010.2V159.4L1037.4 160.2V148.9H971.1V160.2Z" fill="#34B5E2"/>
<path d="M1049.2 160.2L1060.4 159.4V235.1L1049.2 234.3V244.9H1083.6V234.3L1072.4 235.1V159.4L1083.6 160.2V148.9H1049.2V160.2Z" fill="#34B5E2"/>
<path d="M1131.9 148.1C1107 148.1 1095.4 163.6 1095.4 197C1095.4 230.3 1107 245.9 1131.9 245.9C1156.8 245.9 1168.4 230.4 1168.4 197C1168.5 163.6 1156.9 148.1 1131.9 148.1ZM1156.3 196.9C1156.2 231.3 1143.9 235.9 1132 235.9C1120.1 235.9 1107.8 231.3 1107.7 196.9C1107.8 170.3 1115.3 158.4 1132 158.4C1148.6 158.4 1156.2 170.3 1156.3 196.9Z" fill="#34B5E2"/>
<path d="M1236.4 219.7L1195.2 148.9H1184V244.9H1196V173.9L1237.1 244.9H1248.3V148.9H1236.4V219.7Z" fill="#34B5E2"/>
<path d="M261 112.6C249.2 138.4 229.9 160.1 206.1 175C197.7 180.3 188.7 184.7 179.2 188.1C174.1 190 168.9 191.5 163.5 192.8C152.7 195.4 141.4 196.8 129.8 196.8C108.6 196.8 88.4 192.2 70.3 184C43.4 171.8 20.8 151.5 5.79999 126.2C3.69999 122.7 1.8 119.1 0 115.4C2.9 113.6 5.9 111.8 9 110.2C26 101.2 45 95.5 65.1 94C65.1 94 65.2 94 65.3 94C68.9 93.7 72.6 93.5996 76.2 93.5996C77.4 93.5996 78.6 93.5996 79.8 93.5996C106.3 95.0996 129.8 108.1 145.1 127.7C138.9 125.2 132.1 123.9 125 123.9C108.7 123.9 94.1 131 84.1 142.2C101 146.1 118.7 148.2 136.8 148.2C143.5 148.2 150.2 147.9 156.8 147.3C160.9 147 165 146.5 169.1 145.9C174.5 145.2 179.9 144.2 185.2 143.1C212.5 137.6 238.1 127 261 112.6Z" fill="#0BB7A2"/>
<path d="M0 85.2998C11.8 59.4998 31.1 37.8004 54.9 22.9004C63.3 17.6004 72.3 13.1998 81.8 9.7998C86.9 7.8998 92.1 6.39961 97.5 5.09961C108.3 2.49961 119.6 1.09961 131.2 1.09961C152.4 1.09961 172.6 5.70039 190.7 13.9004C217.6 26.1004 240.2 46.4002 255.2 71.7002C257.3 75.2002 259.2 78.8 261 82.5C258.1 84.3 255.1 86.1002 252 87.7002C235 96.7002 216 102.4 195.9 103.9C195.9 103.9 195.8 103.9 195.7 103.9C192.1 104.2 188.4 104.3 184.8 104.3C183.6 104.3 182.4 104.3 181.2 104.3C154.7 102.8 131.2 89.8002 115.9 70.2002C122.1 72.7002 128.9 74 136 74C152.3 74 166.9 66.9002 176.9 55.7002C160 51.8002 142.3 49.7002 124.2 49.7002C117.5 49.7002 110.8 49.9996 104.2 50.5996C100.1 50.8996 96 51.4 91.9 52C86.5 52.7 81.1 53.6998 75.8 54.7998C48.5 60.2998 22.9 70.7998 0 85.2998Z" fill="#34B5E2"/>
<path d="M13.4 236.298C12.9 234.798 11.7 232.998 10.1 232.298C10.7 231.798 11.2 231.098 11.5 230.298C12 229.098 14.8 222.198 14.8 222.198L15.1 221.598H11.7L11.6 221.898C11.6 221.998 9.09998 228.598 8.59998 229.698C8.29998 230.498 7.59997 231.598 5.99997 231.698C4.79997 231.798 3.69998 231.698 3.09998 231.698V221.398L0.0999756 221.898V245.798H3.09998V234.698C3.99998 234.698 6.19996 234.598 7.79996 234.698C9.69996 234.798 10.1 235.698 10.5 236.898L13.2 245.698H16.6L16.4 245.098C16.3 244.898 14 238.098 13.4 236.298Z" fill="#0BB7A2"/>
<path d="M38.6 221.5H35.6V245.6H38.6V221.5Z" fill="#0BB7A2"/>
<path d="M26.4 226.799C23.9 226.799 22.4 227.399 21.6 227.899V221.199L18.6 221.699V239.799C18.6 243.199 21.9 245.699 26.4 245.699C31.9 245.699 34.6 242.499 34.6 236.099C34.6 228.099 29.4 226.799 26.4 226.799ZM31.5 236.199C31.5 240.999 29.8 243.299 26.3 243.299C22.9 243.299 21.6 241.199 21.6 239.899V230.299C22 230.099 23.3 229.499 26.4 229.499C30.6 229.399 31.5 233.099 31.5 236.199Z" fill="#0BB7A2"/>
<path d="M50.8999 221.401C47.2999 221.101 43.2999 221.5 43.0999 221.5H42.7V245.6H45.7999V237.201C46.4999 237.601 48.0999 238.1 50.9999 238.1C55.9999 238.1 58.3999 235.4 58.3999 229.5C58.3999 224.6 55.7999 221.801 50.8999 221.401ZM51.4999 235.401C48.1999 235.401 46.4999 234.901 45.7999 234.701V224C46.6999 223.9 48.9999 223.7 51.4999 224.1C53.2999 224.4 55.3999 225.6 55.3999 229.5C55.3999 234.4 53.7999 235.401 51.4999 235.401Z" fill="#0BB7A2"/>
<path d="M60.6 221.5V245.6H63.6V224.1H72.2L71.6 221.5H60.6Z" fill="#0BB7A2"/>
<path d="M81.0999 226.799C78.5999 226.799 77.0999 227.399 76.2999 227.899V221.199L73.2999 221.699V239.799C73.2999 243.199 76.5999 245.699 81.0999 245.699C86.5999 245.699 89.2999 242.499 89.2999 236.099C89.2999 228.099 84.1999 226.799 81.0999 226.799ZM86.2999 236.199C86.2999 240.999 84.5999 243.299 81.0999 243.299C77.6999 243.299 76.3999 241.199 76.3999 239.899V230.299C76.7999 230.099 78.1 229.499 81.2 229.499C85.4 229.399 86.2999 233.099 86.2999 236.199Z" fill="#0BB7A2"/>
<path d="M93.7 221.5H90.7V245.6H93.7V221.5Z" fill="#0BB7A2"/>
<path d="M111.4 232.399C112.1 231.799 113.2 230.699 113.2 227.899C113.2 223.699 110.3 221.299 105.4 221.299C100.6 221.299 99.1 223.299 99.1 223.299L99 223.399L98.3 227.999L99.4 226.699C99.4 226.699 101.7 223.999 105.4 223.999C110.1 223.999 110.2 227.899 110.2 227.999C110.2 230.699 108.3 231.399 107.4 231.399C107.2 231.399 107 231.399 106.7 231.399C106.2 231.399 105.5 231.399 104.6 231.399C102.5 231.399 101.1 231.299 101.1 231.299H100.7L100 233.999H100.6C100.6 233.999 102.4 233.999 104.6 233.999C105.6 233.999 106.5 233.999 107.1 233.999C107.5 233.999 107.8 233.999 108 233.999C109 233.999 110.9 234.899 110.9 238.299C110.9 243.199 105.5 243.299 105.3 243.299C100.4 243.299 98.9 239.799 98.9 239.599L98.3 238.099L97.6 242.599L97.7 242.699C97.8 242.799 99.6 245.799 105.4 245.799C109.3 245.799 114 244.499 114 238.299C113.8 235.099 112.6 233.299 111.4 232.399Z" fill="#0BB7A2"/>
<path d="M116.9 221.5V245.6H120V224.1H128.5L128 221.5H116.9Z" fill="#0BB7A2"/>
<path d="M137.9 221.299C131.6 221.299 128.7 225.199 128.7 233.599C128.7 241.999 131.6 245.899 137.9 245.899C144.2 245.899 147.1 241.999 147.1 233.599C147.1 225.199 144.2 221.299 137.9 221.299ZM144 233.499C144 242.099 140.9 243.299 137.9 243.299C134.9 243.299 131.8 242.099 131.8 233.499C131.8 226.799 133.7 223.899 137.9 223.899C142.1 223.899 144 226.899 144 233.499Z" fill="#0BB7A2"/>
<path d="M158.9 243.299C154.6 243.299 152.4 239.999 152.3 233.499C152.3 229.099 153.4 223.899 158.7 223.899C161.9 223.899 163.2 225.899 163.3 225.999L164 227.099L164.6 222.999L164.4 222.799C164.3 222.699 162.7 221.299 158.8 221.299C152.5 221.299 149.3 225.399 149.3 233.599C149.3 241.799 152.5 245.899 158.9 245.899C163 245.899 164.7 244.099 164.7 243.999L164.8 243.899L165.3 239.999L164.4 240.899C164.4 240.799 161.6 243.299 158.9 243.299Z" fill="#0BB7A2"/>
<path d="M176.9 243.299C172.6 243.299 170.4 239.999 170.3 233.499C170.3 229.099 171.4 223.899 176.7 223.899C179.9 223.899 181.2 225.899 181.3 225.999L182 227.099L182.6 222.999L182.4 222.799C182.3 222.699 180.7 221.299 176.8 221.299C170.5 221.299 167.3 225.399 167.3 233.599C167.3 241.799 170.5 245.899 176.9 245.899C181 245.899 182.7 244.099 182.7 243.999L182.8 243.899L183.3 239.999L182.4 240.899C182.3 240.799 179.6 243.299 176.9 243.299Z" fill="#0BB7A2"/>
<path d="M184.1 224.3L190.9 224.1V245.6H193.9V224.1L200.8 224.3V221.5H184.1V224.3Z" fill="#0BB7A2"/>
<path d="M211.4 221.401C207.8 221.101 203.8 221.5 203.6 221.5H203.2V245.6H206.3V237.201C207 237.601 208.6 238.1 211.5 238.1C216.5 238.1 218.9 235.4 218.9 229.5C218.9 224.6 216.3 221.801 211.4 221.401ZM212 235.401C208.7 235.401 207 234.901 206.3 234.701V224C207.2 223.9 209.5 223.7 212 224.1C213.8 224.4 215.9 225.6 215.9 229.5C215.9 234.4 214.3 235.401 212 235.401Z" fill="#0BB7A2"/>
<path d="M230.6 221.299C226.6 221.299 222 223.999 222 245.199V245.699H225.3V245.199C225.3 245.199 225.2 240.499 225.4 237.899H235.8C235.9 240.499 235.9 245.199 235.9 245.199V245.699H239.2V245.199C239.2 223.699 234.3 221.299 230.6 221.299ZM235.7 235.199H225.6C226 231.899 227 223.899 230.5 223.899C233.1 223.899 235 228.099 235.7 235.199Z" fill="#0BB7A2"/>
<path d="M252.7 233.1L260.4 221.5H256.5L251.1 230.4L245.7 221.5H241.8L249.5 233.1L241.2 245.6H245.1L251.1 235.7L257.1 245.6H261L252.7 233.1Z" fill="#0BB7A2"/>
</svg>
