<svg width="1472" height="186" viewBox="0 0 1472 186" fill="none" xmlns="http://www.w3.org/2000/svg">
<path d="M273.2 8.5H298.2L296.5 0.900391H264.3V71.2998H273.2V8.5Z" fill="#34B5E2"/>
<path d="M327 71.9004C345.3 71.9004 353.8 60.5 353.8 36C353.8 11.5 345.3 0.0996094 327 0.0996094C308.7 0.0996094 300.2 11.5 300.2 36C300.2 60.6 308.7 71.9004 327 71.9004ZM309.2 36.0996C309.3 16.5996 314.8 7.90039 327 7.90039C339.3 7.90039 344.8 16.5996 344.8 36.0996C344.7 61.2996 335.7 64.7002 327 64.7002C318.3 64.7002 309.3 61.2996 309.2 36.0996Z" fill="#34B5E2"/>
<path d="M410.4 66.501L410.7 66.2012L412.1 54.8008L409.4 57.3008C409.3 57.4008 401.4 64.7012 393.4 64.7012C380.7 64.7012 374.3 55.1006 374.2 36.1006C374.3 23.2006 377.6 7.90137 392.9 7.90137C402.3 7.90137 406.1 13.701 406.2 14.001L408.1 17.1006L409.8 5.10059L409.3 4.60059C409.1 4.40059 404.3 0.300781 392.9 0.300781C374.5 0.300781 365.2 12.4012 365.2 36.2012C365.2 60.0012 374.7 72.1006 393.4 72.1006C405.4 71.9006 410.2 66.801 410.4 66.501Z" fill="#34B5E2"/>
<path d="M471.6 53.7002V0.900391H462.8V37.7002C461.7 39.0002 456.7 44 447.1 44C436.5 44 431.7 36.2002 431.7 30.7002V0.0996094L422.9 1.7002V31.0996C422.9 42.7996 433.4 51.7002 447.3 51.7002C454 51.7002 459.7 49.2002 462.8 46.2002V52.0996C462.8 56.4996 459.4 64.7998 446.4 64.7998C433.9 64.7998 429 55.8004 428.8 55.4004L427 52L424.5 65.4004L425 65.9004C425.3 66.2004 431.8 72.0996 446.3 72.0996C462 71.8996 471.6 65.0002 471.6 53.7002Z" fill="#34B5E2"/>
<path d="M492.6 71.2995H531.8L532.3 77.4001H540L540.6 63.9997H535.8V1.59933L534.6 1.49972C534 1.39972 518.7 -0.500668 510.9 0.599332C503.1 1.69933 496.6 6.89933 493.7 14.5993L493.4 15.4001C490.5 22.7001 488.6 27.5995 488.6 57.7995V63.9997H483.7L484.4 77.4001H492L492.6 71.2995ZM527 8.19992V64.0993H497.5V57.9001C497.5 28.5001 498.7 24.2001 502.2 15.9001C503.6 12.6001 506.9 8.89992 511.4 8.19992C516.8 7.29992 524.2 7.89992 527 8.19992Z" fill="#34B5E2"/>
<path d="M561.5 69.999C561.5 69.899 561.3 56.1986 561.8 48.5986H592.3C592.7 56.1986 592.6 69.899 592.6 69.999V71.2988H602.1V69.999C602.1 7.49902 587.8 0.199219 577 0.199219C565.3 0.199219 551.9 8.09902 551.9 69.999V71.2988H561.5V69.999ZM576.8 7.89941C584.4 7.89941 590.1 20.199 592 40.999H562.5C563.4 31.199 566.4 7.89941 576.8 7.89941Z" fill="#34B5E2"/>
<path d="M624.2 46.699C626.3 47.799 630.8 49.199 639.4 49.199C654.1 49.199 661 41.1988 661 23.9988C661 9.79881 653.5 1.69881 639.2 0.498809C628.8 -0.401191 616.7 0.798614 616.5 0.798614L615.3 0.8992V71.199H624.2V46.699ZM640.8 41.5984C631.2 41.5984 626 40.1984 624.1 39.5984V8.199C626.7 7.899 633.4 7.19881 640.7 8.49881C645.9 9.39881 652.1 12.9992 652.1 24.3992C652.2 36.7992 649 41.5984 640.8 41.5984Z" fill="#34B5E2"/>
<path d="M700.5 71.9014C712.5 71.9014 717.3 66.701 717.5 66.501L717.8 66.2012L719.2 54.8008L716.5 57.3008C716.4 57.4008 708.5 64.7012 700.5 64.7012C687.8 64.7012 681.4 55.1006 681.3 36.1006C681.4 23.2006 684.7 7.90137 700 7.90137C709.4 7.90137 713.2 13.701 713.3 14.001L715.2 17.1006L716.9 5.10059L716.4 4.60059C716.2 4.40059 711.4 0.300781 700 0.300781C681.6 0.300781 672.3 12.4012 672.3 36.2012C672.3 59.9012 681.8 71.9014 700.5 71.9014Z" fill="#34B5E2"/>
<path d="M744.6 71.2998H753.3V8.5L773.3 9.2002V0.900391H724.7V9.2002L744.6 8.5V71.2998Z" fill="#34B5E2"/>
<path d="M818.8 32.101C822.3 29.301 824.2 24.0012 824 17.8012C823.7 13.6012 823.1 3.70101 810 1.10101C800.8 -0.798987 783.9 0.701208 783.2 0.801208L782 0.901794V71.101L783.2 71.2016C783.3 71.2016 790.4 71.8012 798.7 71.8012C802.9 71.8012 807.4 71.6016 811.4 71.2016C823.1 69.9016 830 61.1016 829.5 48.2016C829.2 39.5016 823.9 34.301 818.8 32.101ZM790.8 37.0014C792.6 37.0014 796 36.9018 799.6 36.9018C803.6 36.9018 804.5 36.901 807.7 37.101L811.6 37.3012C817.9 37.6012 821.1 43.2016 821.6 48.7016C822.1 54.8016 819.2 62.1016 811.7 63.7016C804.9 65.1016 794.3 64.3014 790.8 64.0014V37.0014ZM807.8 28.8012C805.7 29.0012 804.8 29.1016 804.3 29.2016C803.6 29.3016 803.6 29.3012 799.9 29.3012C795.9 29.3012 792.6 29.2016 790.9 29.2016V8.10101C794.1 7.90101 803.3 7.40101 809.4 9.10101C813.5 10.201 815 14.701 815 18.601C815 24.801 812.5 28.3012 807.8 28.8012Z" fill="#34B5E2"/>
<path d="M882.4 64.0996H849.2V37.4004H874.7L876.5 29.7998H849.2V8.5H880.8L882.2 0.900391H840.4V71.2998H882.4V64.0996Z" fill="#34B5E2"/>
<path d="M935.1 31.2002H903.6V0.0996094L894.7 1.59961V71.2998H903.6V38.7998H935.1V71.2998H943.9V0.900391H935.1V31.2002Z" fill="#34B5E2"/>
<path d="M966.8 38.7998H998.4V71.2998H1007.1V0.900391H998.4V31.2002H966.8V0.0996094L958 1.59961V71.2998H966.8V38.7998Z" fill="#34B5E2"/>
<path d="M1029.9 69.999C1029.9 69.899 1029.7 56.1986 1030.2 48.5986H1060.7C1061.1 56.1986 1061 69.899 1061 69.999V71.2988H1070.5V69.999C1070.5 7.49902 1056.2 0.199219 1045.4 0.199219C1033.7 0.199219 1020.3 8.09902 1020.3 69.999V71.2988H1029.9V69.999ZM1045.1 7.89941C1052.7 7.89941 1058.4 20.199 1060.3 40.999H1030.8C1031.8 31.199 1034.7 7.89941 1045.1 7.89941Z" fill="#34B5E2"/>
<path d="M1121.3 71.3011H1130.1V1.00133L1128.9 0.901719C1128.8 0.901719 1116.2 -0.0982813 1104.9 0.401719C1094.1 0.801719 1083.1 3.90094 1083.1 23.6009C1083.1 31.5009 1085.3 36.4015 1090.5 39.7015C1088.3 42.0015 1086.6 45.6009 1085.7 49.6009C1084.9 53.1009 1082.5 63.2015 1081 69.7015L1080.6 71.3011H1089.5L1089.8 70.3011C1091.3 64.1011 1093.6 54.8009 1094.5 51.1009C1095.7 46.4009 1096.8 43.6011 1101.5 43.3011C1101.7 43.3011 1102.2 43.3011 1102.9 43.3011C1104.9 43.3011 1108.5 43.3017 1113 42.9017C1117.1 42.5017 1119.8 41.6013 1121.4 41.0013V71.3011H1121.3ZM1121.3 7.90172V34.3011C1119.4 34.7011 1114.1 35.5013 1102.7 35.5013C1093.7 35.5013 1091.8 29.3015 1091.8 24.2015C1091.8 10.0015 1098.6 8.20094 1103.7 8.10094C1108.5 8.00094 1112.5 7.90172 1115.5 7.90172C1118.2 7.80172 1120.1 7.90172 1121.3 7.90172Z" fill="#34B5E2"/>
<path d="M296.1 173.201C283.4 173.201 277 163.601 276.9 144.601C277 131.701 280.3 116.401 295.6 116.401C305 116.401 308.8 122.201 308.9 122.501L310.8 125.601L312.5 113.601L312 113.101C311.8 112.901 307 108.801 295.6 108.801C277.2 108.801 267.9 120.901 267.9 144.701C267.9 168.501 277.4 180.601 296.1 180.601C308.1 180.601 312.9 175.401 313.1 175.201L313.4 174.901L314.8 163.501L312.1 166.001C312 165.801 304.1 173.201 296.1 173.201Z" fill="#34B5E2"/>
<path d="M320.3 117.601L340.2 117.001V179.801H349V117.001L368.9 117.601V109.301H320.3V117.601Z" fill="#34B5E2"/>
<path d="M401.4 109.1C391 108.2 378.9 109.401 378.7 109.401L377.5 109.501V179.8H386.4V155.201C388.5 156.301 393 157.701 401.6 157.701C416.3 157.701 423.2 149.701 423.2 132.501C423.3 118.401 415.7 110.3 401.4 109.1ZM403.1 150.1C393.5 150.1 388.3 148.7 386.4 148.1V116.701C389 116.401 395.7 115.701 403 117.001C408.2 117.901 414.4 121.501 414.4 132.901C414.5 145.301 411.3 150.1 403.1 150.1Z" fill="#34B5E2"/>
<path d="M458.8 108.699C447.1 108.699 433.7 116.599 433.7 178.499V179.799H443.3V178.499C443.3 178.399 443.1 164.699 443.6 157.099H474.1C474.5 164.699 474.4 178.399 474.4 178.499V179.799H483.9V178.499C483.9 115.899 469.6 108.699 458.8 108.699ZM458.5 116.299C466.1 116.299 471.8 128.599 473.7 149.399H444.2C445.2 139.699 448.1 116.299 458.5 116.299Z" fill="#34B5E2"/>
<path d="M547.3 109.301H536.1L520.3 135.501L504.4 109.301H493.1L515.6 143.201L491.4 179.801H502.7L520.3 150.901L537.8 179.801H549L524.8 143.201L547.3 109.301Z" fill="#34B5E2"/>
<path d="M580.7 108.699C562.4 108.699 553.9 120.099 553.9 144.599C553.9 169.099 562.4 180.499 580.7 180.499C599 180.499 607.5 169.099 607.5 144.599C607.5 120.099 598.9 108.699 580.7 108.699ZM598.5 144.599C598.4 169.799 589.4 173.199 580.7 173.199C571.9 173.199 563 169.799 562.9 144.599C563 125.099 568.5 116.399 580.7 116.399C592.9 116.299 598.4 124.999 598.5 144.599Z" fill="#34B5E2"/>
<path d="M655.6 140.601C659.1 137.801 661 132.501 660.8 126.301C660.5 122.101 659.9 112.201 646.8 109.601C637.6 107.701 620.7 109.201 620 109.301L618.8 109.402V179.601L620 179.702C620.1 179.702 627.2 180.301 635.5 180.301C639.7 180.301 644.2 180.102 648.2 179.702C659.9 178.402 666.8 169.602 666.3 156.702C666 148.002 660.8 142.801 655.6 140.601ZM627.7 145.501C629.5 145.501 632.9 145.402 636.5 145.402C640.5 145.402 641.4 145.401 644.6 145.601L648.5 145.801C654.8 146.101 658 151.702 658.5 157.202C659 163.302 656.1 170.602 648.6 172.202C641.8 173.602 631.2 172.801 627.7 172.501V145.501ZM644.6 137.301C642.5 137.501 641.6 137.602 641.1 137.702C640.4 137.802 640.4 137.801 636.7 137.801C632.7 137.801 629.4 137.702 627.7 137.702V116.601C630.9 116.401 640.1 115.901 646.2 117.601C650.3 118.701 651.8 123.201 651.8 127.101C651.8 133.301 649.4 136.801 644.6 137.301Z" fill="#34B5E2"/>
<path d="M701.5 108.699C689.8 108.699 676.4 116.599 676.4 178.499V179.799H686V178.499C686 178.399 685.8 164.699 686.3 157.099H716.8C717.2 164.699 717.1 178.399 717.1 178.499V179.799H726.6V178.499C726.6 115.899 712.3 108.699 701.5 108.699ZM701.2 116.299C708.8 116.299 714.5 128.599 716.4 149.399H686.9C687.9 139.699 690.8 116.299 701.2 116.299Z" fill="#34B5E2"/>
<path d="M760.9 108.9C750.1 109.3 739.1 112.4 739.1 132.1C739.1 140 741.3 144.9 746.5 148.2C744.3 150.5 742.6 154.1 741.7 158.1C740.9 161.6 738.5 171.7 737 178.2L736.6 179.8H745.5L745.8 178.8C747.3 172.6 749.6 163.3 750.5 159.6C751.7 154.9 752.8 152.1 757.5 151.8C757.7 151.8 758.2 151.8 758.9 151.8C760.9 151.8 764.5 151.8 769 151.4C773.1 151 775.8 150.1 777.4 149.5V179.9H786.2V109.6L785 109.5C784.8 109.3 772.2 108.3 760.9 108.9ZM777.4 116.4V142.8C775.5 143.2 770.2 144 758.8 144C749.8 144 747.9 137.8 747.9 132.7C747.9 118.5 754.7 116.7 759.8 116.6C764.6 116.5 768.6 116.4 771.6 116.4C774.3 116.3 776.2 116.3 777.4 116.4Z" fill="#34B5E2"/>
<path d="M857.8 108.699C839.5 108.699 831 120.099 831 144.599C831 169.099 839.5 180.499 857.8 180.499C876.1 180.499 884.6 169.099 884.6 144.599C884.6 120.099 876.1 108.699 857.8 108.699ZM875.6 144.599C875.5 169.799 866.5 173.199 857.8 173.199C849.1 173.199 840.1 169.799 840 144.599C840.1 125.099 845.6 116.399 857.8 116.399C870 116.299 875.5 124.999 875.6 144.599Z" fill="#34B5E2"/>
<path d="M919.8 109.1C909.4 108.2 897.3 109.401 897.1 109.401L895.9 109.501V179.8H904.8V155.201C906.9 156.301 911.4 157.701 920 157.701C934.7 157.701 941.6 149.701 941.6 132.501C941.6 118.401 934.1 110.3 919.8 109.1ZM921.5 150.1C911.9 150.1 906.7 148.7 904.8 148.1V116.701C907.4 116.401 914.1 115.701 921.4 117.001C926.6 117.901 932.8 121.501 932.8 132.901C932.8 145.301 929.6 150.1 921.5 150.1Z" fill="#34B5E2"/>
<path d="M949.4 109.301V179.801H958.2V117.001H983.2L981.6 109.301H949.4Z" fill="#34B5E2"/>
<path d="M1012.1 108.699C1000.4 108.699 987 116.599 987 178.499V179.799H996.6V178.499C996.6 178.399 996.4 164.699 996.9 157.099H1027.4C1027.8 164.699 1027.7 178.399 1027.7 178.499V179.799H1037.2V178.499C1037.2 115.899 1022.9 108.699 1012.1 108.699ZM1011.9 116.299C1019.5 116.299 1025.2 128.599 1027.1 149.399H997.6C998.5 139.699 1001.5 116.299 1011.9 116.299Z" fill="#34B5E2"/>
<path d="M1090.8 139.6H1059.3V108.5L1050.4 110.1V179.8H1059.3V147.2H1090.8V179.8H1099.6V109.3H1090.8V139.6Z" fill="#34B5E2"/>
<path d="M1122.5 161.4V108.5L1113.7 110.1V179.8H1121.9L1152.1 127.8V179.8H1160.9V109.3H1152.7L1122.5 161.4Z" fill="#34B5E2"/>
<path d="M1213.7 141.299C1215.8 139.599 1219 136.399 1219 128.099C1219 115.799 1210.7 108.699 1196.2 108.699C1182.3 108.699 1177.9 114.399 1177.7 114.699L1177.5 114.999L1175.4 128.199L1178.5 124.399C1178.6 124.299 1185.1 116.399 1196.2 116.399C1210.1 116.399 1210.2 127.699 1210.2 128.199C1210.2 136.199 1204.7 138.299 1201.8 138.299C1201.3 138.299 1200.6 138.299 1199.7 138.399C1198.2 138.499 1196.1 138.499 1193.6 138.499C1187.5 138.499 1183.5 138.299 1183.4 138.299H1182.3L1180.2 146.199H1181.9C1181.9 146.199 1187 146.099 1193.5 146.099C1196.5 146.099 1199 146.099 1200.8 146.199C1201.9 146.199 1202.8 146.199 1203.4 146.199C1206.4 146.199 1212 148.799 1212 158.799C1212 173.199 1196.2 173.399 1195.5 173.399C1181.3 173.399 1176.8 162.999 1176.7 162.599L1174.9 158.199L1172.8 171.299L1173 171.699C1173.2 172.099 1178.6 180.699 1195.6 180.699C1207 180.699 1220.7 176.899 1220.7 158.899C1221 149.099 1217.3 143.999 1213.7 141.299Z" fill="#34B5E2"/>
<path d="M1259.3 108.699C1247.6 108.699 1234.2 116.599 1234.2 178.499V179.799H1243.8V178.499C1243.8 178.399 1243.6 164.699 1244.1 157.099H1274.6C1275 164.699 1274.9 178.399 1274.9 178.499V179.799H1284.4V178.499C1284.4 115.899 1270 108.699 1259.3 108.699ZM1259 116.299C1266.6 116.299 1272.3 128.599 1274.2 149.399H1244.7C1245.7 139.699 1248.6 116.299 1259 116.299Z" fill="#34B5E2"/>
<path d="M1346.7 109.299H1337.8V172.199H1306.3V108.699L1297.5 110.099V179.799H1344.6L1345.1 185.899H1352.3L1352.9 172.199H1346.7V109.299Z" fill="#34B5E2"/>
<path d="M1372.1 161.4V108.5L1363.3 110.1V179.8H1371.6L1401.7 127.8V179.8H1410.5V109.3H1402.3L1372.1 161.4Z" fill="#34B5E2"/>
<path d="M1469.8 109.3C1469.7 109.3 1457.1 108.3 1445.8 108.8C1435 109.2 1424 112.3 1424 132C1424 139.9 1426.2 144.8 1431.4 148.1C1429.2 150.4 1427.5 154 1426.6 158C1425.8 161.5 1423.4 171.6 1421.9 178.1L1421.5 179.701H1430.4L1430.7 178.701C1432.2 172.501 1434.5 163.2 1435.4 159.5C1436.6 154.8 1437.7 152.001 1442.4 151.701C1442.6 151.701 1443.1 151.701 1443.8 151.701C1445.8 151.701 1449.4 151.7 1453.9 151.3C1458 150.9 1460.7 150.001 1462.3 149.401V179.8H1471.1V109.5L1469.8 109.3ZM1462.2 116.401V142.8C1460.3 143.2 1455 144 1443.6 144C1434.6 144 1432.7 137.801 1432.7 132.701C1432.7 118.501 1439.5 116.7 1444.6 116.6C1449.4 116.5 1453.4 116.401 1456.4 116.401C1459.1 116.301 1461.1 116.301 1462.2 116.401Z" fill="#34B5E2"/>
<path d="M197.4 84.2002C188.5 103.6 174 120 156 131.2C149.7 135.2 142.9 138.5 135.8 141.1C132 142.5 128 143.7 124 144.6C115.9 146.6 107.4 147.6 98.7 147.6C82.7 147.6 67.6 144.1 53.9 138C33.6 128.8 16.7 113.5 5.39999 94.5C3.79999 91.9 2.4 89.2004 1 86.4004C3.2 85.0004 5.49999 83.7 7.79999 82.5C20.6 75.7 34.9 71.4998 50 70.2998H50.1C52.8 70.0998 55.6 70 58.3 70C59.2 70 60.1 70 61 70C81 71.1 98.6 80.9002 110.2 95.7002C105.5 93.8002 100.4 92.7998 95.1 92.7998C82.9 92.7998 71.9 98.0996 64.3 106.6C77.1 109.5 90.3 111.1 104 111.1C109.1 111.1 114.1 110.9 119.1 110.5C122.2 110.2 125.3 109.9 128.3 109.5C132.4 108.9 136.4 108.2 140.4 107.4C160.9 103 180.2 95.1002 197.4 84.2002Z" fill="#0BB7A2"/>
<path d="M1 63.5986C9.9 44.1986 24.4 27.7986 42.4 16.5986C48.7 12.5986 55.5 9.29922 62.6 6.69922C66.4 5.29922 70.4 4.09922 74.4 3.19922C82.5 1.19922 91 0.199219 99.7 0.199219C115.7 0.199219 130.8 3.69883 144.5 9.79883C164.8 18.9988 181.7 34.2988 193 53.2988C194.6 55.8988 196 58.5994 197.4 61.3994C195.2 62.7994 192.9 64.0988 190.6 65.2988C177.8 72.0988 163.5 76.299 148.4 77.499H148.3C145.6 77.699 142.8 77.7988 140.1 77.7988C139.2 77.7988 138.3 77.7988 137.4 77.7988C117.4 76.6988 99.8 66.8986 88.2 52.0986C92.9 53.8986 98 54.999 103.3 54.999C115.5 54.999 126.5 49.6992 134.1 41.1992C121.3 38.2992 108.1 36.6992 94.4 36.6992C89.3 36.6992 84.3 36.8988 79.3 37.2988C76.2 37.5988 73.1 37.8988 70.1 38.2988C66 38.8988 62 39.5994 58 40.3994C37.5 44.7994 18.2 52.7986 1 63.5986Z" fill="#34B5E2"/>
<path d="M11.1 177.3C10.7 176.2 9.90004 174.8 8.60004 174.3C9.10004 173.9 9.40004 173.4 9.70004 172.8C10.1 171.9 12.2 166.7 12.2 166.7L12.4 166.2H9.80002L9.70004 166.4C9.70004 166.4 7.80002 171.4 7.40002 172.2C7.10002 172.8 6.70002 173.6 5.40002 173.7C4.50002 173.7 3.70004 173.7 3.20004 173.7V165.9L0.900024 166.3V184.3H3.20004V176C3.90004 176 5.50004 175.9 6.70004 176C8.10004 176.1 8.40004 176.8 8.70004 177.7L10.7 184.3H13.3L13.1 183.8C13.3 183.8 11.5 178.7 11.1 177.3Z" fill="#0BB7A2"/>
<path d="M30.1001 166.199H27.8V184.399H30.1001V166.199Z" fill="#0BB7A2"/>
<path d="M20.8 170.2C18.9 170.2 17.8 170.7 17.2 171V165.9L14.9 166.3V180C14.9 182.6 17.4 184.5 20.8 184.5C24.9 184.5 27 182.1 27 177.3C27 171.1 23.1 170.2 20.8 170.2ZM24.7 177.2C24.7 180.8 23.4 182.6 20.8 182.6C18.2 182.6 17.2 181 17.2 180V172.8C17.5 172.6 18.5 172.2 20.8 172.2C24 172.2 24.7 174.9 24.7 177.2Z" fill="#0BB7A2"/>
<path d="M39.3 166.1C36.6 165.9 33.6001 166.2 33.5001 166.2H33.2001V184.3H35.5001V178C36.1001 178.3 37.2001 178.6 39.4001 178.6C43.2001 178.6 45.0001 176.5 45.0001 172.1C45.0001 168.5 43 166.4 39.3 166.1ZM39.8 176.7C37.4 176.7 36.0001 176.4 35.5001 176.2V168.1C36.2001 168 37.9 167.9 39.8 168.2C41.1 168.4 42.7001 169.3 42.7001 172.3C42.7001 175.9 41.5 176.7 39.8 176.7Z" fill="#0BB7A2"/>
<path d="M46.6001 166.199V184.299H48.9001V168.099H55.3001L54.9001 166.199H46.6001Z" fill="#0BB7A2"/>
<path d="M62.1001 170.2C60.2001 170.2 59.1001 170.7 58.5001 171V165.9L56.2001 166.3V180C56.2001 182.6 58.7001 184.5 62.1001 184.5C66.2001 184.5 68.3 182.1 68.3 177.3C68.2 171.1 64.4001 170.2 62.1001 170.2ZM65.9001 177.2C65.9001 180.8 64.6001 182.6 62.0001 182.6C59.4001 182.6 58.4001 181 58.4001 180V172.8C58.7001 172.6 59.7001 172.2 62.0001 172.2C65.3001 172.2 65.9001 174.9 65.9001 177.2Z" fill="#0BB7A2"/>
<path d="M71.6001 166.199H69.3V184.399H71.6001V166.199Z" fill="#0BB7A2"/>
<path d="M84.8 174.4C85.3 174 86.2 173.1 86.2 171C86.2 167.8 84.1 166 80.3 166C76.7 166 75.6 167.5 75.5 167.5L75.4 167.6L74.9 171L75.7 170C75.7 170 77.4 167.9 80.2 167.9C83.8 167.9 83.8 170.8 83.8 170.9C83.8 172.9 82.4 173.5 81.7 173.5C81.6 173.5 81.4 173.5 81.2 173.5C80.8 173.5 80.3 173.5 79.6 173.5C78 173.5 77 173.5 77 173.5H76.7L76.2 175.5H76.7C76.7 175.5 78 175.5 79.7 175.5C80.5 175.5 81.1 175.5 81.6 175.5C81.9 175.5 82.1 175.5 82.3 175.5C83.1 175.5 84.5 176.2 84.5 178.7C84.5 182.4 80.4 182.4 80.3 182.4C76.6 182.4 75.5 179.7 75.5 179.6L75 178.5L74.5 181.9L74.6 182C74.7 182.1 76 184.3 80.4 184.3C83.4 184.3 86.9 183.3 86.9 178.7C86.7 176.4 85.7 175.1 84.8 174.4Z" fill="#0BB7A2"/>
<path d="M89 166.199V184.299H91.3V168.099H97.7L97.3 166.199H89Z" fill="#0BB7A2"/>
<path d="M104.8 166C100.1 166 97.9 168.9 97.9 175.2C97.9 181.5 100.1 184.4 104.8 184.4C109.5 184.4 111.7 181.5 111.7 175.2C111.7 168.9 109.5 166 104.8 166ZM109.4 175.2C109.4 181.7 107.1 182.6 104.8 182.6C102.5 182.6 100.2 181.7 100.2 175.2C100.2 170.2 101.6 167.9 104.8 167.9C108 168 109.4 170.2 109.4 175.2Z" fill="#0BB7A2"/>
<path d="M120.6 182.6C117.3 182.6 115.7 180.1 115.7 175.2C115.7 171.9 116.6 167.9 120.5 167.9C122.9 167.9 123.9 169.4 123.9 169.5L124.4 170.3L124.8 167.2L124.7 167.1C124.6 167.1 123.4 166 120.5 166C115.8 166 113.4 169.1 113.4 175.2C113.4 181.3 115.8 184.4 120.7 184.4C123.8 184.4 125 183.1 125.1 183L125.2 182.9L125.6 179.9L124.9 180.6C124.7 180.7 122.7 182.6 120.6 182.6Z" fill="#0BB7A2"/>
<path d="M134.1 182.6C130.8 182.6 129.2 180.1 129.2 175.2C129.2 171.9 130.1 167.9 134 167.9C136.4 167.9 137.4 169.4 137.4 169.5L137.9 170.3L138.3 167.2L138.2 167.1C138.1 167.1 136.9 166 134 166C129.3 166 126.9 169.1 126.9 175.2C126.9 181.3 129.3 184.4 134.2 184.4C137.3 184.4 138.5 183.1 138.6 183L138.7 182.9L139.1 179.9L138.4 180.6C138.2 180.7 136.2 182.6 134.1 182.6Z" fill="#0BB7A2"/>
<path d="M139.6 168.299L144.7 168.199V184.299H147V168.199L152.1 168.299V166.199H139.6V168.299Z" fill="#0BB7A2"/>
<path d="M160.1 166.1C157.4 165.9 154.4 166.2 154.3 166.2H154V184.3H156.3V178C156.9 178.3 158 178.6 160.2 178.6C164 178.6 165.8 176.5 165.8 172.1C165.8 168.5 163.8 166.4 160.1 166.1ZM160.6 176.7C158.2 176.7 156.8 176.4 156.3 176.2V168.1C157 168 158.7 167.9 160.6 168.2C161.9 168.4 163.5 169.3 163.5 172.3C163.5 175.9 162.3 176.7 160.6 176.7Z" fill="#0BB7A2"/>
<path d="M174.5 166C171.5 166 168 168 168 184V184.3H170.5V183.9C170.5 183.9 170.4 180.4 170.6 178.4H178.4C178.5 180.4 178.5 183.9 178.5 183.9V184.3H181V184C181 167.9 177.3 166 174.5 166ZM178.4 176.5H170.8C171.1 174 171.8 168 174.5 168C176.4 168 177.9 171.2 178.4 176.5Z" fill="#0BB7A2"/>
<path d="M191.2 174.899L197 166.199H194.1L190 172.899L185.9 166.199H183L188.8 174.899L182.6 184.299H185.5L190 176.899L194.5 184.299H197.4L191.2 174.899Z" fill="#0BB7A2"/>
</svg>
