<svg xmlns="http://www.w3.org/2000/svg" width="30" height="30"
                                                            viewBox="0 0 30 30" fill="none">
                                                            <g clip-path="url(#clip0_83_3572)">
                                                                <path
                                                                    d="M26.483 20.0345C25.6767 22.2199 24.4572 24.1201 22.858 25.6817C21.0377 27.4592 18.6541 28.8717 15.7734 29.8792C15.6789 29.9122 15.5802 29.9392 15.4811 29.9591C15.3502 29.985 15.217 29.9989 15.0849 30.0007H15.0591C14.9183 30.0007 14.7768 29.9866 14.6365 29.9591C14.5374 29.9392 14.4402 29.9122 14.3461 29.8799C11.4619 28.874 9.07539 27.4622 7.25326 25.6847C5.65338 24.1231 4.43412 22.224 3.62891 20.0387C2.16476 16.0653 2.24807 11.6881 2.31513 8.17066L2.31628 8.11664C2.32978 7.82619 2.33848 7.52109 2.34328 7.18418C2.36777 5.53005 3.68293 4.16156 5.33729 4.06932C8.78654 3.87683 11.4548 2.75188 13.7347 0.529663L13.7547 0.511352C14.1332 0.164138 14.6102 -0.00615009 15.0849 0.000945288C15.5427 0.00689624 15.9986 0.176956 16.3637 0.511352L16.3831 0.529663C18.6635 2.75188 21.3318 3.87683 24.781 4.06932C26.4354 4.16156 27.7506 5.53005 27.7751 7.18418C27.7799 7.52338 27.7886 7.82802 27.8021 8.11664L27.8027 8.13953C27.8696 11.6636 27.9524 16.0495 26.483 20.0345Z"
                                                                    fill="#00DD80">
                                                                </path>
                                                                <path
                                                                    d="M26.4831 20.0346C25.6767 22.2199 24.4572 24.1201 22.858 25.6818C21.0377 27.4593 18.6541 28.8717 15.7734 29.8792C15.6789 29.9122 15.5803 29.9392 15.4812 29.9591C15.3502 29.985 15.217 29.9989 15.085 30.0008V0.000976562C15.5427 0.00692751 15.9987 0.176987 16.3637 0.511384L16.3832 0.529694C18.6635 2.75191 21.3318 3.87687 24.7811 4.06936C26.4354 4.16159 27.7506 5.53008 27.7751 7.18421C27.7799 7.52341 27.7886 7.82806 27.8021 8.11668L27.8028 8.13956C27.8696 11.6637 27.9525 16.0495 26.4831 20.0346Z"
                                                                    fill="#00AA63">
                                                                </path>
                                                                <path
                                                                    d="M22.5351 15.0008C22.5351 19.1145 19.195 22.4631 15.0848 22.4777H15.0584C10.936 22.4777 7.58154 19.1235 7.58154 15.0008C7.58154 10.8784 10.936 7.52417 15.0584 7.52417H15.0848C19.195 7.53882 22.5351 10.8874 22.5351 15.0008Z"
                                                                    fill="white">
                                                                </path>
                                                                <path
                                                                    d="M22.5353 15.0008C22.5353 19.1145 19.1952 22.4631 15.085 22.4777V7.52417C19.1952 7.53882 22.5353 10.8874 22.5353 15.0008Z"
                                                                    fill="#E1EBF0">
                                                                </path>
                                                                <path
                                                                    d="M18.4521 13.9241L15.0848 17.2918L14.3571 18.0194C14.1853 18.1913 13.9598 18.2772 13.7346 18.2772C13.5091 18.2772 13.2839 18.1913 13.1118 18.0194L11.5474 16.4543C11.2036 16.1106 11.2036 15.5537 11.5474 15.2097C11.8907 14.8659 12.4483 14.8659 12.792 15.2097L13.7346 16.1522L17.2074 12.6794C17.5512 12.3354 18.1087 12.3354 18.4521 12.6794C18.7959 13.0232 18.7959 13.5807 18.4521 13.9241Z"
                                                                    fill="#B4D2D7">
                                                                </path>
                                                                <path
                                                                    d="M18.4523 13.9241L15.085 17.2918V14.8018L17.2076 12.6794C17.5514 12.3354 18.109 12.3354 18.4523 12.6794C18.7961 13.0232 18.7961 13.5807 18.4523 13.9241Z"
                                                                    fill="#6FA5AA">
                                                                </path>
                                                            </g>
                                                            <defs>
                                                                <clipPath id="clip0_83_3572">
                                                                    <rect width="30" height="30" fill="white"
                                                                        transform="translate(0 0.000732422)"></rect>
                                                                </clipPath>
                                                            </defs>
                                                        </svg> 