<svg width="918" height="400" viewBox="0 0 918 400" fill="none" xmlns="http://www.w3.org/2000/svg">
<path d="M135.7 264.702H154.8L153.5 258.902H128.9V312.602H135.7V264.702Z" fill="#34B5E2"/>
<path d="M176.8 313.1C190.7 313.1 197.2 304.4 197.2 285.8C197.2 267.2 190.7 258.5 176.8 258.5C162.9 258.5 156.4 267.2 156.4 285.8C156.3 304.4 162.8 313.1 176.8 313.1ZM163.1 285.8C163.2 270.9 167.4 264.3 176.7 264.3C186 264.3 190.2 270.9 190.3 285.8C190.2 305 183.4 307.6 176.7 307.6C170.1 307.6 163.2 305 163.1 285.8Z" fill="#34B5E2"/>
<path d="M240.3 309.002L240.5 308.802L241.6 300.102L239.6 302.002C239.5 302.102 233.5 307.702 227.4 307.702C217.7 307.702 212.8 300.402 212.8 285.902C212.8 276.102 215.4 264.402 227.1 264.402C234.3 264.402 237.2 268.802 237.3 269.002L238.8 271.402L240.1 262.302L239.7 261.902C239.5 261.802 235.9 258.602 227.2 258.602C213.2 258.602 206.1 267.802 206.1 285.902C206.1 304.002 213.3 313.202 227.6 313.202C236.5 313.102 240.1 309.102 240.3 309.002Z" fill="#34B5E2"/>
<path d="M287 299.201V258.901H280.3V287.001C279.4 288.001 275.6 291.801 268.3 291.801C260.2 291.801 256.6 285.901 256.6 281.601V258.301L249.9 259.501V281.901C249.9 290.801 257.9 297.601 268.5 297.601C273.6 297.601 278 295.701 280.3 293.401V297.901C280.3 301.201 277.7 307.601 267.8 307.601C258.2 307.601 254.5 300.701 254.4 300.401L253 297.801L251.1 308.001L251.5 308.401C251.7 308.601 256.7 313.201 267.8 313.201C279.6 313.101 287 307.801 287 299.201Z" fill="#34B5E2"/>
<path d="M303 312.6H332.9L333.2 317.3H339.1L339.5 307.1H335.8V259.501L334.9 259.401C334.4 259.301 322.8 257.901 316.9 258.701C310.9 259.501 306 263.501 303.8 269.401L303.6 270.001C301.4 275.601 300 279.301 300 302.401V307.1H296.3L296.8 317.3H302.6L303 312.6ZM329.2 264.501V307.1H306.7V302.401C306.7 280.001 307.6 276.701 310.3 270.401C311.3 267.901 313.9 265.101 317.3 264.501C321.4 263.801 327.1 264.301 329.2 264.501Z" fill="#34B5E2"/>
<path d="M355.6 311.6C355.6 311.5 355.4 301.1 355.9 295.3H379.1C379.4 301.1 379.3 311.5 379.3 311.7V312.7H386.6V311.7C386.6 264 375.7 258.5 367.5 258.5C358.6 258.5 348.4 264.5 348.4 311.7V312.7H355.7L355.6 311.6ZM367.2 264.2C373 264.2 377.3 273.6 378.8 289.4H356.3C357 282 359.2 264.2 367.2 264.2Z" fill="#34B5E2"/>
<path d="M403.3 293.9C404.9 294.8 408.3 295.8 414.9 295.8C426.1 295.8 431.3 289.7 431.3 276.6C431.3 265.8 425.5 259.6 414.7 258.7C406.8 258 397.5 258.9 397.4 258.9L396.5 259V312.6H403.3V293.9ZM416 290C408.7 290 404.7 289 403.3 288.5V264.6C405.3 264.3 410.4 263.9 416 264.9C420 265.6 424.7 268.3 424.7 277C424.7 286.3 422.3 290 416 290Z" fill="#34B5E2"/>
<path d="M461.5 313.102C470.7 313.102 474.3 309.102 474.5 309.002L474.7 308.802L475.8 300.102L473.8 302.002C473.7 302.102 467.7 307.702 461.6 307.702C451.9 307.702 447 300.402 447 285.902C447 276.102 449.6 264.402 461.3 264.402C468.5 264.402 471.4 268.802 471.5 269.002L473 271.402L474.3 262.302L473.9 261.902C473.7 261.802 470.1 258.602 461.4 258.602C447.4 258.602 440.3 267.802 440.3 285.902C440 303.902 447.3 313.102 461.5 313.102Z" fill="#34B5E2"/>
<path d="M495.1 312.602H501.8V264.702L517 265.202V258.902H479.9V265.202L495.1 264.702V312.602Z" fill="#34B5E2"/>
<path d="M551.7 282.701C554.3 280.601 555.8 276.5 555.6 271.8C555.4 268.6 554.9 261 544.9 259.1C537.9 257.6 525 258.801 524.5 258.901L523.6 259.001V312.501L524.5 312.6C524.6 312.6 530 313.1 536.3 313.1C539.5 313.1 542.9 313 546 312.6C554.9 311.6 560.2 304.9 559.8 295.1C559.6 288.4 555.6 284.401 551.7 282.701ZM530.4 286.501C531.8 286.501 534.3 286.401 537.1 286.401C540.2 286.401 540.8 286.4 543.3 286.6L546.3 286.8C551.1 287 553.5 291.301 553.9 295.501C554.3 300.101 552.1 305.701 546.4 307.001C541.2 308.101 533.1 307.501 530.5 307.201V286.501H530.4ZM543.3 280.201C541.7 280.401 541 280.501 540.6 280.501C540 280.601 540 280.6 537.2 280.6C534.1 280.6 531.6 280.501 530.3 280.501V264.401C532.8 264.201 539.8 263.8 544.4 265.1C547.6 266 548.7 269.4 548.7 272.3C548.8 277.2 546.9 279.801 543.3 280.201Z" fill="#34B5E2"/>
<path d="M600.2 307.102H574.9V286.802H594.4L595.7 281.002H574.9V264.702H599L600.1 258.902H568.2V312.602H600.2V307.102Z" fill="#34B5E2"/>
<path d="M640.4 282.001H616.3V258.301L609.6 259.501V312.601H616.3V287.801H640.4V312.601H647.1V258.901H640.4V282.001Z" fill="#34B5E2"/>
<path d="M664.6 287.801H688.6V312.601H695.3V258.901H688.6V282.001H664.6V258.301L657.8 259.501V312.601H664.6V287.801Z" fill="#34B5E2"/>
<path d="M712.7 311.6C712.7 311.5 712.5 301.1 713 295.3H736.2C736.5 301.1 736.4 311.5 736.4 311.7V312.7H743.7V311.7C743.7 264 732.8 258.5 724.6 258.5C715.7 258.5 705.5 264.5 705.5 311.7V312.7H712.8L712.7 311.6ZM724.3 264.2C730.1 264.2 734.4 273.6 735.9 289.4H713.4C714.1 282 716.4 264.2 724.3 264.2Z" fill="#34B5E2"/>
<path d="M782.4 312.602H789.1V259.002L788.2 258.903C788.1 258.903 778.5 258.102 769.9 258.602C761.7 258.902 753.3 261.302 753.3 276.302C753.3 282.302 755 286.002 759 288.602C757.3 290.402 756 293.102 755.4 296.102C754.8 298.802 753 306.503 751.8 311.403L751.5 312.602H758.3L758.5 311.802C759.7 307.102 761.4 300.002 762.1 297.102C763 293.502 763.9 291.402 767.5 291.202C767.6 291.202 768 291.202 768.5 291.202C770 291.202 772.8 291.203 776.2 290.903C779.3 290.603 781.4 289.903 782.6 289.403V312.602H782.4ZM782.4 264.302V284.403C780.9 284.703 776.9 285.302 768.2 285.302C761.3 285.302 759.9 280.602 759.9 276.702C759.9 265.902 765.1 264.503 769 264.403C772.7 264.303 775.7 264.302 778 264.302C780 264.202 781.5 264.202 782.4 264.302Z" fill="#34B5E2"/>
<path d="M21.8 390.299C12.1 390.299 7.19995 382.999 7.19995 368.499C7.19995 358.699 9.8 346.999 21.5 346.999C28.7 346.999 31.6 351.399 31.7 351.599L33.2 353.999L34.5 344.899L34.1001 344.499C33.9001 344.399 30.3001 341.199 21.6001 341.199C7.6001 341.199 0.5 350.399 0.5 368.499C0.5 386.599 7.7 395.799 22 395.799C31.2 395.799 34.8 391.799 35 391.699L35.2 391.499L36.3 382.799L34.3 384.699C34 384.699 27.9 390.299 21.8 390.299Z" fill="#34B5E2"/>
<path d="M40.3 347.9L55.3999 347.4V395.3H62.1001V347.4L77.3 347.9V341.6H40.3V347.9Z" fill="#34B5E2"/>
<path d="M102.1 341.4C94.2001 340.7 84.9 341.599 84.8 341.599L83.8999 341.699V395.299H90.7V376.599C92.3 377.499 95.7 378.499 102.3 378.499C113.5 378.499 118.7 372.399 118.7 359.299C118.8 348.499 113 342.3 102.1 341.4ZM103.4 372.699C96.0999 372.699 92.1 371.699 90.7 371.199V347.299C92.7 346.999 97.7999 346.599 103.4 347.599C107.4 348.299 112.1 350.999 112.1 359.699C112.1 368.999 109.6 372.699 103.4 372.699Z" fill="#34B5E2"/>
<path d="M145.9 341.1C137 341.1 126.8 347.1 126.8 394.3V395.3H134.1V394.3C134.1 394.2 133.9 383.8 134.4 378H157.6C157.9 383.8 157.8 394.2 157.8 394.4V395.4H165.1V394.4C165 346.6 154.1 341.1 145.9 341.1ZM145.7 346.9C151.5 346.9 155.8 356.3 157.3 372.1H134.8C135.5 364.7 137.7 346.9 145.7 346.9Z" fill="#34B5E2"/>
<path d="M213.4 341.6H204.8L192.7 361.6L180.6 341.6H172L189.2 367.4L170.7 395.3H179.3L192.7 373.3L206.1 395.3H214.7L196.2 367.4L213.4 341.6Z" fill="#34B5E2"/>
<path d="M238.8 341.1C224.9 341.1 218.4 349.8 218.4 368.4C218.4 387 224.9 395.7 238.8 395.7C252.7 395.7 259.2 387 259.2 368.4C259.2 349.8 252.7 341.1 238.8 341.1ZM252.4 368.5C252.3 387.7 245.5 390.3 238.8 390.3C232.1 390.3 225.3 387.7 225.2 368.5C225.3 353.6 229.5 347 238.8 347C248.1 347 252.3 353.6 252.4 368.5Z" fill="#34B5E2"/>
<path d="M295.9 365.4C298.5 363.3 300 359.2 299.8 354.5C299.6 351.3 299.1 343.7 289.1 341.8C282.1 340.3 269.2 341.5 268.7 341.6L267.8 341.7V395.2L268.7 395.3C268.8 395.3 274.2 395.8 280.5 395.8C283.7 395.8 287.1 395.7 290.2 395.3C299.1 394.3 304.4 387.6 304 377.8C303.9 371.1 299.9 367.1 295.9 365.4ZM274.7 369.2C276.1 369.2 278.6 369.1 281.4 369.1C284.5 369.1 285.1 369.1 287.6 369.3L290.6 369.5C295.4 369.7 297.8 374 298.2 378.2C298.6 382.8 296.4 388.4 290.7 389.7C285.5 390.8 277.4 390.2 274.8 389.9V369.2H274.7ZM287.5 362.9C285.9 363.1 285.2 363.2 284.8 363.2C284.2 363.3 284.2 363.3 281.4 363.3C278.3 363.3 275.8 363.2 274.5 363.2V347.1C277 346.9 284 346.5 288.6 347.8C291.8 348.7 292.9 352.1 292.9 355C293 359.9 291.2 362.5 287.5 362.9Z" fill="#34B5E2"/>
<path d="M330.9 341.1C322 341.1 311.8 347.1 311.8 394.3V395.3H319.1V394.3C319.1 394.2 318.9 383.8 319.4 378H342.6C342.9 383.8 342.8 394.2 342.8 394.4V395.4H350.1V394.4C350.1 346.6 339.1 341.1 330.9 341.1ZM330.7 346.9C336.5 346.9 340.8 356.3 342.3 372.1H319.8C320.5 364.7 322.8 346.9 330.7 346.9Z" fill="#34B5E2"/>
<path d="M376.2 341.299C368 341.599 359.6 343.999 359.6 358.999C359.6 364.999 361.3 368.699 365.3 371.299C363.6 373.099 362.3 375.799 361.7 378.799C361.1 381.499 359.3 389.199 358.1 394.099L357.8 395.299H364.5L364.7 394.499C365.9 389.799 367.6 382.699 368.3 379.799C369.2 376.199 370.1 374.1 373.7 373.9C373.8 373.9 374.2 373.9 374.7 373.9C376.2 373.9 379 373.899 382.4 373.599C385.5 373.299 387.6 372.599 388.8 372.099V395.299H395.5V341.7L394.6 341.599C394.4 341.599 384.9 340.899 376.2 341.299ZM388.8 346.999V367.099C387.3 367.399 383.3 367.999 374.6 367.999C367.7 367.999 366.3 363.3 366.3 359.4C366.3 348.6 371.5 347.199 375.4 347.099C379.1 346.999 382.1 346.999 384.4 346.999C386.4 346.899 387.9 346.899 388.8 346.999Z" fill="#34B5E2"/>
<path d="M450.1 341.1C436.2 341.1 429.7 349.8 429.7 368.4C429.7 387 436.2 395.7 450.1 395.7C464 395.7 470.5 387 470.5 368.4C470.5 349.8 464 341.1 450.1 341.1ZM463.7 368.5C463.6 387.7 456.8 390.3 450.1 390.3C443.4 390.3 436.6 387.7 436.5 368.5C436.6 353.6 440.8 347 450.1 347C459.4 347 463.6 353.6 463.7 368.5Z" fill="#34B5E2"/>
<path d="M497.4 341.4C489.5 340.7 480.2 341.599 480.1 341.599L479.2 341.699V395.299H486V376.599C487.6 377.499 491 378.499 497.6 378.499C508.8 378.499 514 372.399 514 359.299C514 348.499 508.3 342.3 497.4 341.4ZM498.7 372.699C491.4 372.699 487.4 371.699 486 371.199V347.299C488 346.999 493.1 346.599 498.7 347.599C502.7 348.299 507.4 350.999 507.4 359.699C507.3 368.999 504.9 372.699 498.7 372.699Z" fill="#34B5E2"/>
<path d="M519.9 341.6V395.3H526.7V347.4H545.7L544.5 341.6H519.9Z" fill="#34B5E2"/>
<path d="M567.8 341.1C558.9 341.1 548.7 347.1 548.7 394.3V395.3H556V394.3C556 394.2 555.8 383.8 556.3 378H579.5C579.8 383.8 579.7 394.2 579.7 394.4V395.4H587V394.4C586.9 346.6 576 341.1 567.8 341.1ZM567.6 346.9C573.4 346.9 577.7 356.3 579.2 372.1H556.7C557.4 364.7 559.7 346.9 567.6 346.9Z" fill="#34B5E2"/>
<path d="M627.8 364.7H603.7V341L597 342.2V395.3H603.7V370.5H627.8V395.3H634.5V341.6H627.8V364.7Z" fill="#34B5E2"/>
<path d="M651.9 381.3V341L645.2 342.2V395.3H651.5L674.5 355.7V395.3H681.2V341.6H674.9L651.9 381.3Z" fill="#34B5E2"/>
<path d="M721.5 365.9C723.1 364.6 725.5 362.1 725.5 355.9C725.5 346.5 719.2 341.1 708.1 341.1C697.5 341.1 694.1 345.5 694 345.6L693.9 345.8L692.3 355.9L694.7 353C694.7 352.9 699.7 346.9 708.2 346.9C718.8 346.9 718.9 355.5 718.9 355.9C718.9 362 714.7 363.6 712.5 363.6C712.1 363.6 711.6 363.6 710.9 363.6C709.8 363.6 708.2 363.7 706.2 363.7C701.5 363.7 698.5 363.6 698.5 363.6H697.7L696.1 369.6H697.4C697.4 369.6 701.3 369.5 706.3 369.5C708.6 369.5 710.5 369.5 711.9 369.5C712.7 369.5 713.4 369.5 713.9 369.5C716.2 369.5 720.5 371.5 720.5 379.1C720.5 390.1 708.4 390.2 707.9 390.2C697 390.2 693.7 382.3 693.5 381.9L692.1 378.5L690.5 388.5L690.7 388.8C690.9 389.1 694.9 395.6 707.9 395.6C716.6 395.6 727 392.7 727 378.9C727 371.9 724.2 368 721.5 365.9Z" fill="#34B5E2"/>
<path d="M756.2 341.1C747.3 341.1 737.1 347.1 737.1 394.3V395.3H744.4V394.3C744.4 394.2 744.2 383.8 744.7 378H767.9C768.2 383.8 768.1 394.2 768.1 394.4V395.4H775.4V394.4C775.3 346.6 764.4 341.1 756.2 341.1ZM756 346.9C761.8 346.9 766.1 356.3 767.6 372.1H745.1C745.8 364.7 748.1 346.9 756 346.9Z" fill="#34B5E2"/>
<path d="M822.9 341.6H816.1V389.5H792.1V341.1L785.4 342.2V395.3H821.3L821.6 400H827.1L827.6 389.5H822.9V341.6Z" fill="#34B5E2"/>
<path d="M842.3 381.3V341L835.6 342.2V395.3H841.8L864.8 355.7V395.3H871.5V341.6H865.3L842.3 381.3Z" fill="#34B5E2"/>
<path d="M916.7 341.601C916.6 341.601 907 340.801 898.4 341.301C890.2 341.601 881.8 344.001 881.8 359.001C881.8 365.001 883.5 368.701 887.5 371.301C885.8 373.101 884.5 375.801 883.9 378.801C883.3 381.501 881.5 389.201 880.3 394.101L880 395.301H886.8L887 394.501C888.2 389.801 889.9 382.701 890.6 379.801C891.5 376.201 892.4 374.102 896 373.902C896.1 373.902 896.5 373.902 897 373.902C898.5 373.902 901.3 373.901 904.7 373.601C907.8 373.301 909.9 372.601 911.1 372.101V395.301H917.8V341.702L916.7 341.601ZM911 347.001V367.101C909.5 367.401 905.5 368.001 896.8 368.001C889.9 368.001 888.5 363.302 888.5 359.402C888.5 348.602 893.7 347.201 897.6 347.101C901.3 347.001 904.3 347.001 906.6 347.001C908.6 346.901 910.1 346.901 911 347.001Z" fill="#34B5E2"/>
<path d="M571.1 96.7998C560.8 119.2 544.2 138 523.4 151C516.1 155.6 508.3 159.4 500.1 162.4C495.7 164 491.1 165.4 486.5 166.5C477.1 168.8 467.3 169.9 457.3 169.9C438.9 169.9 421.4 165.9 405.6 158.8C382.2 148.2 362.7 130.6 349.6 108.7C347.8 105.7 346.1 102.6 344.6 99.4004C347.1 97.8004 349.7 96.3004 352.4 94.9004C367.1 87.1004 383.6 82.2004 401.1 80.9004H401.2C404.3 80.7004 407.5 80.5 410.7 80.5C411.7 80.5 412.8 80.5 413.8 80.5C436.8 81.8 457.2 93.0996 470.5 110.1C465.1 108 459.2 106.8 453.1 106.8C439 106.8 426.3 112.9 417.6 122.7C432.3 126.1 447.6 127.9 463.4 127.9C469.3 127.9 475 127.6 480.8 127.2C484.4 126.9 487.9 126.5 491.4 126C496.1 125.4 500.8 124.5 505.4 123.6C529 118.5 551.2 109.3 571.1 96.7998Z" fill="#0BB7A2"/>
<path d="M344.6 73.0996C354.9 50.6996 371.5 31.9004 392.3 18.9004C399.6 14.3004 407.4 10.5 415.6 7.5C420 5.9 424.6 4.50039 429.2 3.40039C438.6 1.10039 448.4 0 458.4 0C476.8 0 494.3 3.99961 510.1 11.0996C533.5 21.6996 553 39.3002 566.1 61.2002C567.9 64.2002 569.6 67.3 571.1 70.5C568.6 72.1 566 73.6 563.3 75C548.6 82.8 532.1 87.7 514.6 89H514.5C511.4 89.2 508.2 89.4004 505 89.4004C504 89.4004 502.9 89.4004 501.9 89.4004C478.9 88.1004 458.5 76.7998 445.2 59.7998C450.6 61.8998 456.5 63.0996 462.6 63.0996C476.7 63.0996 489.4 57.0002 498.1 47.2002C483.4 43.8002 468.1 42 452.3 42C446.4 42 440.7 42.3002 434.9 42.7002C431.3 43.0002 427.8 43.4004 424.3 43.9004C419.6 44.5004 414.9 45.3998 410.3 46.2998C386.7 51.3998 364.5 60.4996 344.6 73.0996Z" fill="#34B5E2"/>
<path d="M356.2 204.1C355.8 202.8 354.8 201.2 353.3 200.6C353.8 200.2 354.2 199.6 354.5 198.8C354.9 197.7 357.4 191.8 357.4 191.8L357.6 191.2H354.6L354.5 191.5C354.5 191.6 352.3 197.3 351.9 198.2C351.6 198.9 351 199.8 349.6 199.9C348.5 200 347.6 199.9 347.1 199.9V190.9L344.5 191.4V212.1H347.1V202.5C347.9 202.5 349.8 202.4 351.2 202.5C352.8 202.6 353.2 203.4 353.5 204.4L355.8 212.1H358.8L358.6 211.6C358.8 211.6 356.8 205.7 356.2 204.1Z" fill="#0BB7A2"/>
<path d="M378.1 191.301H375.5V212.201H378.1V191.301Z" fill="#0BB7A2"/>
<path d="M367.5 195.9C365.4 195.9 364 196.5 363.3 196.8V191L360.7 191.5V207.2C360.7 210.2 363.5 212.4 367.5 212.4C372.2 212.4 374.6 209.6 374.6 204.1C374.6 197 370.2 195.9 367.5 195.9ZM372 204C372 208.2 370.5 210.2 367.5 210.2C364.5 210.2 363.4 208.4 363.4 207.2V198.8C363.7 198.6 364.9 198.1 367.6 198.1C371.2 198.2 372 201.4 372 204Z" fill="#0BB7A2"/>
<path d="M388.9 191.201C385.8 190.901 382.3 191.301 382.2 191.301H381.8V212.201H384.5V204.902C385.1 205.202 386.5 205.601 389 205.601C393.4 205.601 395.4 203.201 395.4 198.101C395.3 194.001 393.1 191.501 388.9 191.201ZM389.4 203.402C386.6 203.402 385 203.001 384.5 202.801V193.501C385.3 193.401 387.3 193.201 389.4 193.601C390.9 193.901 392.8 194.901 392.8 198.301C392.7 202.501 391.4 203.402 389.4 203.402Z" fill="#0BB7A2"/>
<path d="M397.2 191.301V212.201H399.9V193.501H407.3L406.8 191.301H397.2Z" fill="#0BB7A2"/>
<path d="M415.1 195.9C413 195.9 411.6 196.5 410.9 196.8V191L408.3 191.5V207.2C408.3 210.2 411.1 212.4 415.1 212.4C419.8 212.4 422.2 209.6 422.2 204.1C422.2 197 417.7 195.9 415.1 195.9ZM419.5 204C419.5 208.2 418 210.2 415 210.2C412 210.2 410.9 208.4 410.9 207.2V198.8C411.2 198.6 412.4 198.1 415.1 198.1C418.7 198.2 419.5 201.4 419.5 204Z" fill="#0BB7A2"/>
<path d="M426 191.301H423.4V212.201H426V191.301Z" fill="#0BB7A2"/>
<path d="M441.3 200.7C441.9 200.2 442.9 199.2 442.9 196.8C442.9 193.1 440.4 191 436.1 191C432 191 430.7 192.7 430.6 192.8L430.5 192.9L429.9 196.9L430.8 195.7C430.8 195.7 432.8 193.3 436 193.3C440.1 193.3 440.2 196.6 440.2 196.8C440.2 199.2 438.6 199.8 437.7 199.8C437.5 199.8 437.3 199.8 437.1 199.8C436.7 199.8 436 199.8 435.3 199.8C433.5 199.8 432.3 199.7 432.3 199.7H432L431.4 202.1H431.9C431.9 202.1 433.4 202.1 435.4 202.1C436.3 202.1 437 202.1 437.6 202.1C437.9 202.1 438.2 202.1 438.4 202.1C439.3 202.1 441 202.9 441 205.8C441 210.1 436.3 210.1 436.1 210.1C431.9 210.1 430.6 207 430.5 206.9L430 205.6L429.4 209.5L429.5 209.6C429.6 209.7 431.2 212.3 436.2 212.3C439.6 212.3 443.7 211.2 443.7 205.8C443.4 203.1 442.3 201.6 441.3 200.7Z" fill="#0BB7A2"/>
<path d="M446.1 191.301V212.201H448.8V193.501H456.2L455.7 191.301H446.1Z" fill="#0BB7A2"/>
<path d="M464.3 191.1C458.9 191.1 456.3 194.5 456.3 201.8C456.3 209.1 458.8 212.5 464.3 212.5C469.7 212.5 472.3 209.1 472.3 201.8C472.3 194.5 469.8 191.1 464.3 191.1ZM469.6 201.7C469.6 209.2 466.9 210.2 464.3 210.2C461.7 210.2 459 209.2 459 201.7C459 195.9 460.7 193.3 464.3 193.3C467.9 193.3 469.6 195.9 469.6 201.7Z" fill="#0BB7A2"/>
<path d="M482.6 210.2C478.8 210.2 476.9 207.3 476.9 201.7C476.9 197.9 477.9 193.3 482.5 193.3C485.3 193.3 486.4 195 486.5 195.1L487.1 196L487.6 192.4L487.4 192.3C487.3 192.2 485.9 191 482.5 191C477 191 474.3 194.6 474.3 201.7C474.3 208.8 477.1 212.4 482.7 212.4C486.3 212.4 487.7 210.9 487.7 210.8L487.8 210.7L488.2 207.3L487.4 208.1C487.3 208 484.9 210.2 482.6 210.2Z" fill="#0BB7A2"/>
<path d="M498.1 210.2C494.3 210.2 492.4 207.3 492.4 201.7C492.4 197.9 493.4 193.3 498 193.3C500.8 193.3 501.9 195 502 195.1L502.6 196L503.1 192.4L502.9 192.3C502.8 192.2 501.4 191 498 191C492.5 191 489.8 194.6 489.8 201.7C489.8 208.8 492.6 212.4 498.2 212.4C501.8 212.4 503.2 210.9 503.2 210.8L503.3 210.7L503.7 207.3L502.9 208.1C502.8 208 500.5 210.2 498.1 210.2Z" fill="#0BB7A2"/>
<path d="M504.4 193.701L510.3 193.601V212.201H512.9V193.601L518.9 193.701V191.301H504.4V193.701Z" fill="#0BB7A2"/>
<path d="M528.1 191.201C525 190.901 521.5 191.301 521.4 191.301H521V212.201H523.7V204.902C524.3 205.202 525.7 205.601 528.2 205.601C532.6 205.601 534.6 203.201 534.6 198.101C534.6 194.001 532.4 191.501 528.1 191.201ZM528.6 203.402C525.8 203.402 524.2 203.001 523.7 202.801V193.501C524.5 193.401 526.5 193.201 528.6 193.601C530.1 193.901 532 194.901 532 198.301C532 202.501 530.6 203.402 528.6 203.402Z" fill="#0BB7A2"/>
<path d="M544.7 191.1C541.2 191.1 537.2 193.5 537.2 211.8V212.2H540.1V211.8C540.1 211.8 540 207.7 540.2 205.4H549.2C549.3 207.7 549.3 211.7 549.3 211.8V212.2H552.1V211.8C552.2 193.2 547.9 191.1 544.7 191.1ZM549.2 203.2H540.5C540.8 200.3 541.7 193.4 544.8 193.4C546.9 193.4 548.6 197 549.2 203.2Z" fill="#0BB7A2"/>
<path d="M563.9 201.301L570.6 191.301H567.3L562.6 199.001L557.9 191.301H554.5L561.2 201.301L554 212.201H557.4L562.6 203.601L567.8 212.201H571.1L563.9 201.301Z" fill="#0BB7A2"/>
</svg>
