<svg width="638" height="401" viewBox="0 0 638 401" fill="none" xmlns="http://www.w3.org/2000/svg">
<path d="M15.6997 309.899C6.89971 309.899 2.89966 299.799 2.89966 299.699L1.19971 295.299L0.299805 309.299L0.599854 309.599C0.799854 309.799 6.59971 315.499 15.6997 315.499C28.6997 315.499 36.3997 308.799 36.3997 297.499C36.3997 294.799 35.7997 289.799 31.8997 286.299C28.4997 283.199 23.2999 281.899 16.5999 282.599C14.1999 282.899 12.0998 282.199 10.4998 280.799C8.79976 279.299 7.89966 277.099 7.89966 274.699C7.89966 267.799 10.6999 264.799 17.0999 264.799C25.9999 264.799 28.9997 272.599 29.1997 272.899L31.4998 279.099L30.6997 263.399L30.2998 263.099C30.0998 262.899 25.1999 259.199 17.0999 259.199C6.99985 259.199 0.999756 264.999 0.999756 274.799C0.999756 277.399 1.49985 282.099 5.09985 285.299C7.99985 287.899 12.1999 288.799 17.5999 288.199C21.6999 287.699 24.7998 288.399 26.7998 290.199C28.5998 291.799 29.4998 294.299 29.4998 297.599C29.3998 301.299 27.9997 309.899 15.6997 309.899Z" fill="#34B5E2"/>
<path d="M55.9998 315.1H62.8997V265.6L78.7 266.1V259.6H40.2996V266.1L55.9998 265.6V315.1Z" fill="#34B5E2"/>
<path d="M115.9 297.099C116.2 303.099 116.1 313.899 116.1 313.999V315.099H123.6V314.099C123.6 264.899 112.3 259.199 103.8 259.199C94.5996 259.199 83.9998 265.399 83.9998 314.099V315.099H91.5999V313.999C91.5999 313.899 91.3997 303.199 91.8997 297.099H115.9ZM103.6 265.099C109.6 265.099 114 274.799 115.6 291.099H92.2996C93.0996 283.499 95.3999 265.099 103.6 265.099Z" fill="#34B5E2"/>
<path d="M144.6 315.1H151.6V265.6L167.3 266.1V259.6H129V266.1L144.6 265.6V315.1Z" fill="#34B5E2"/>
<path d="M207.2 309.4H181V288.4H201.1L202.5 282.4H181V265.6H205.9L207 259.6H174.1V315.1H207.2V309.4Z" fill="#34B5E2"/>
<path d="M243.2 266.1L249.7 265.6V309.4L243.2 308.9V315.1H263.1V308.9L256.6 309.4V265.6L263.1 266.1V259.6H243.2V266.1Z" fill="#34B5E2"/>
<path d="M304.4 300.5L280.6 259.6H274.1V315.1H281.1V274L304.9 315.1H311.3V259.6H304.4V300.5Z" fill="#34B5E2"/>
<path d="M336.6 282.701C334.2 283.001 332.1 282.301 330.5 280.901C328.8 279.401 327.9 277.201 327.9 274.801C327.9 267.901 330.7 264.901 337.1 264.901C346 264.901 349 272.701 349.2 273.001L351.5 279.201L350.7 263.501L350.3 263.201C350.1 263.001 345.2 259.301 337.1 259.301C327 259.301 321 265.101 321 274.901C321 277.501 321.5 282.201 325.1 285.401C328 288.001 332.2 288.901 337.6 288.301C341.7 287.801 344.8 288.501 346.8 290.301C348.6 291.901 349.5 294.401 349.5 297.701C349.5 301.401 348.2 310.001 335.8 310.001C327 310.001 323 299.901 323 299.801L321.3 295.401L320.4 309.401L320.7 309.701C320.9 309.901 326.7 315.601 335.8 315.601C348.8 315.601 356.5 308.901 356.5 297.601C356.5 294.901 355.9 289.901 352 286.401C348.5 283.301 343.3 282.001 336.6 282.701Z" fill="#34B5E2"/>
<path d="M397.4 287.4C397.3 306.2 392.4 309.9 384.6 309.9C376.7 309.9 371.8 306.1 371.7 287.4V259.1L364.7 260.2V287.4C364.7 307.1 370.7 315.6 384.6 315.6C398.6 315.6 404.5 307.2 404.5 287.4V260.2L397.4 259.1V287.4Z" fill="#34B5E2"/>
<path d="M438.2 293C441.8 293.2 442.7 295.5 443.7 299.1C444.4 302.1 446.2 309.4 447.4 314.3L447.6 315.1H454.6L454.3 313.8C453.1 308.7 451.2 300.8 450.6 298C449.9 294.8 448.6 292.001 446.8 290.201C450.9 287.601 452.7 283.7 452.7 277.5C452.7 262 444 259.601 435.5 259.201C426.6 258.801 416.7 259.5 416.6 259.6L415.6 259.701V315.1H422.5V291.3C423.7 291.8 425.7 292.401 429.1 292.701C432.6 293.001 435.5 293 437 293C437.6 293 437.9 293 438.2 293ZM422.5 265.1C424.5 265.1 429.3 265.001 436.3 265.201C440.3 265.301 445.7 266.701 445.7 277.901C445.7 282.001 444.2 286.8 437.1 286.8C428.1 286.8 424 286.201 422.5 285.901V265.1Z" fill="#34B5E2"/>
<path d="M470 313.999C470 313.899 469.8 303.199 470.3 297.099H494.3C494.6 303.099 494.5 313.899 494.5 313.999V315.099H502V314.099C502 264.899 490.7 259.199 482.2 259.199C473 259.199 462.4 265.399 462.4 314.099V315.099H470V313.999ZM482 265.099C488 265.099 492.4 274.799 494 291.099H470.7C471.5 283.499 473.8 265.099 482 265.099Z" fill="#34B5E2"/>
<path d="M541.9 300.5L518.1 259.6H511.7V315.1H518.6V274L542.4 315.1H548.9V259.6H541.9V300.5Z" fill="#34B5E2"/>
<path d="M580.7 309.8C570.7 309.8 565.6 302.2 565.6 287.3C565.6 277.2 568.2 265.1 580.4 265.1C587.8 265.1 590.8 269.7 590.9 269.9L592.4 272.3L593.7 262.9L593.3 262.5C593.1 262.4 589.3 259.1 580.4 259.1C565.9 259.1 558.6 268.6 558.6 287.3C558.6 306 566.1 315.5 580.8 315.5C590.3 315.5 594 311.4 594.2 311.2L594.4 311L595.5 302L593.4 304C593.2 304.1 587 309.8 580.7 309.8Z" fill="#34B5E2"/>
<path d="M611.6 309.4V288.4H631.7L633.1 282.4H611.6V265.6H636.5L637.6 259.6H604.7V315.1H637.8V309.4H611.6Z" fill="#34B5E2"/>
<path d="M80.2002 344.5C65.8002 344.5 59.1001 353.5 59.1001 372.7C59.1001 392 65.8002 400.9 80.2002 400.9C94.6002 400.9 101.3 391.9 101.3 372.7C101.3 353.5 94.6002 344.5 80.2002 344.5ZM94.2998 372.8C94.1998 392.7 87.1002 395.3 80.2002 395.3C73.3002 395.3 66.2001 392.6 66.1001 372.8C66.2001 357.4 70.5002 350.6 80.2002 350.6C89.9002 350.5 94.1998 357.4 94.2998 372.8Z" fill="#34B5E2"/>
<path d="M145.2 383.401C144.5 380.201 143.2 377.4 141.4 375.6C145.5 373 147.3 369.101 147.3 362.901C147.3 347.401 138.6 345 130.1 344.6C121.2 344.2 111.3 345.001 111.2 345.001L110.2 345.1V400.501H117.1V376.701C118.3 377.201 120.3 377.8 123.7 378.1C127.2 378.4 130.1 378.401 131.6 378.401C132.1 378.401 132.5 378.401 132.7 378.401C136.3 378.601 137.2 380.901 138.2 384.501C138.9 387.501 140.7 394.801 141.9 399.701L142.1 400.501H149.1L148.8 399.201C147.7 394.201 145.9 386.201 145.2 383.401ZM117.2 350.6C119.2 350.6 124 350.501 131 350.701C135 350.801 140.4 352.201 140.4 363.401C140.4 367.501 138.9 372.3 131.8 372.3C122.8 372.3 118.7 371.701 117.2 371.401V350.6Z" fill="#34B5E2"/>
<path d="M175.8 375.102H187.5V392.602C184.6 394.202 181.8 395.002 179.4 395.002C169.2 395.002 164.3 387.702 164.2 372.802C164.2 362.702 166.9 350.602 179 350.602C186.4 350.602 189.4 355.202 189.5 355.402L191 357.802L192.3 348.402L191.9 348.002C191.7 347.902 187.9 344.602 179 344.602C164.5 344.602 157.2 354.102 157.2 372.802C157.2 391.502 164.7 401.002 179.4 401.002C190.4 401.002 194.2 392.402 194.4 392.002L194.5 391.802V369.302H176.5L175.8 375.102Z" fill="#34B5E2"/>
<path d="M223.2 344.5C214 344.5 203.4 350.7 203.4 399.4V400.4H211V399.3C211 399.2 210.8 388.5 211.3 382.4H235.3C235.6 388.4 235.5 399.2 235.5 399.3V400.4H243V399.4C242.9 350.2 231.7 344.5 223.2 344.5ZM223 350.5C229 350.5 233.4 360.2 235 376.5H211.7C212.5 368.9 214.8 350.5 223 350.5Z" fill="#34B5E2"/>
<path d="M282.9 385.9L259.1 345H252.6V400.5H259.5V359.5L283.3 400.5H289.8V345H282.9V385.9Z" fill="#34B5E2"/>
<path d="M300.9 351.5L307.4 351.1V394.8L300.9 394.4V400.5H320.8V394.4L314.3 394.8V351.1L320.8 351.5V345H300.9V351.5Z" fill="#34B5E2"/>
<path d="M331.2 351.1L358.2 350.7L328.3 395.6V400.5H367V394.4L337 394.8L367 350V345H331.2V351.1Z" fill="#34B5E2"/>
<path d="M393.5 344.5C384.3 344.5 373.7 350.7 373.7 399.4V400.4H381.3V399.3C381.3 399.2 381.1 388.5 381.6 382.4H405.6C405.9 388.4 405.8 399.2 405.8 399.3V400.4H413.3V399.4C413.3 350.2 402 344.5 393.5 344.5ZM393.3 350.5C399.3 350.5 403.7 360.2 405.3 376.5H382C382.8 368.9 385.1 350.5 393.3 350.5Z" fill="#34B5E2"/>
<path d="M418.7 351.5L434.4 351V400.5H441.3V351L457 351.5V345H418.7V351.5Z" fill="#34B5E2"/>
<path d="M463.8 351.5L470.3 351.1V394.8L463.8 394.4V400.5H483.7V394.4L477.2 394.8V351.1L483.7 351.5V345H463.8V351.5Z" fill="#34B5E2"/>
<path d="M511.7 344.5C497.3 344.5 490.6 353.5 490.6 372.7C490.6 392 497.3 400.9 511.7 400.9C526.1 400.9 532.8 391.9 532.8 372.7C532.8 353.5 526.1 344.5 511.7 344.5ZM525.7 372.8C525.6 392.7 518.5 395.3 511.6 395.3C504.7 395.3 497.6 392.6 497.5 372.8C497.6 357.4 501.9 350.6 511.6 350.6C521.3 350.5 525.7 357.4 525.7 372.8Z" fill="#34B5E2"/>
<path d="M572 385.9L548.2 345H541.7V400.5H548.7V359.5L572.4 400.5H578.9V345H572V385.9Z" fill="#34B5E2"/>
<path d="M432.4 98C422.1 120.4 405.4 139.3 384.6 152.3C377.3 156.9 369.5 160.7 361.3 163.7C356.9 165.3 352.3 166.7 347.7 167.8C338.3 170.1 328.5 171.3 318.4 171.3C300 171.3 282.4 167.3 266.7 160.2C243.3 149.6 223.7 131.9 210.6 110C208.8 107 207.1 103.8 205.6 100.6C208.1 98.9996 210.7 97.4996 213.4 96.0996C228.2 88.2996 244.7 83.4 262.2 82H262.3C265.4 81.8 268.6 81.5996 271.8 81.5996C272.8 81.5996 273.9 81.5996 274.9 81.5996C297.9 82.8996 318.3 94.1998 331.7 111.3C326.3 109.2 320.4 108 314.2 108C300.1 108 287.4 114.1 278.6 123.9C293.3 127.3 308.7 129.1 324.4 129.1C330.3 129.1 336 128.8 341.8 128.4C345.4 128.1 348.9 127.7 352.4 127.2C357.1 126.6 361.8 125.7 366.4 124.8C390.3 119.7 412.5 110.5 432.4 98Z" fill="#0BB7A2"/>
<path d="M205.6 74.2002C215.9 51.8002 232.6 32.9004 253.4 19.9004C260.7 15.3004 268.5 11.5 276.7 8.5C281.1 6.9 285.7 5.50039 290.3 4.40039C299.7 2.10039 309.5 0.900391 319.6 0.900391C338 0.900391 355.6 4.9 371.3 12C394.7 22.6 414.3 40.3002 427.4 62.2002C429.2 65.2002 430.9 68.3996 432.4 71.5996C429.9 73.1996 427.3 74.6996 424.6 76.0996C409.8 83.8996 393.3 88.8002 375.8 90.2002H375.7C372.6 90.4002 369.4 90.5996 366.2 90.5996C365.2 90.5996 364.1 90.5996 363.1 90.5996C340.1 89.2996 319.7 78.0004 306.3 60.9004C311.7 63.0004 317.6 64.2002 323.8 64.2002C337.9 64.2002 350.6 58.0998 359.4 48.2998C344.7 44.8998 329.3 43.0996 313.6 43.0996C307.7 43.0996 302 43.3998 296.2 43.7998C292.6 44.0998 289.1 44.5 285.6 45C280.9 45.6 276.2 46.5004 271.6 47.4004C247.7 52.5004 225.5 61.6002 205.6 74.2002Z" fill="#34B5E2"/>
<path d="M217.2 205.501C216.8 204.201 215.8 202.601 214.3 202.001C214.8 201.601 215.2 201.001 215.5 200.201C215.9 199.101 218.4 193.201 218.4 193.101L218.6 192.501H215.6L215.5 192.801C215.5 192.901 213.3 198.601 212.9 199.601C212.6 200.301 212 201.201 210.6 201.301C209.5 201.401 208.6 201.301 208.1 201.301V192.301L205.5 192.801V213.501H208.1V203.901C208.9 203.901 210.8 203.801 212.2 203.901C213.8 204.001 214.2 204.801 214.5 205.801L216.8 213.501H219.8L219.6 213.001C219.7 212.901 217.7 207.001 217.2 205.501Z" fill="#0BB7A2"/>
<path d="M239.1 192.602H236.5V213.602H239.1V192.602Z" fill="#0BB7A2"/>
<path d="M228.5 197.201C226.4 197.201 225 197.801 224.3 198.101V192.301L221.7 192.801V208.601C221.7 211.601 224.5 213.801 228.5 213.801C233.2 213.801 235.6 211.001 235.6 205.401C235.6 198.301 231.2 197.201 228.5 197.201ZM233 205.301C233 209.501 231.5 211.501 228.5 211.501C225.5 211.501 224.4 209.701 224.4 208.501V200.101C224.7 199.901 225.9 199.401 228.6 199.401C232.2 199.501 233 202.701 233 205.301Z" fill="#0BB7A2"/>
<path d="M249.9 192.502C246.8 192.202 243.3 192.602 243.2 192.602H242.8V213.502H245.5V206.202C246.1 206.502 247.5 206.903 250 206.903C254.4 206.903 256.4 204.503 256.4 199.403C256.4 195.203 254.1 192.802 249.9 192.502ZM250.4 204.702C247.6 204.702 246 204.302 245.5 204.102V194.802C246.3 194.702 248.3 194.503 250.4 194.903C251.9 195.203 253.8 196.202 253.8 199.602C253.7 203.802 252.4 204.702 250.4 204.702Z" fill="#0BB7A2"/>
<path d="M258.2 192.602V213.502H260.9V194.802H268.3L267.8 192.602H258.2Z" fill="#0BB7A2"/>
<path d="M276.1 197.201C274 197.201 272.6 197.801 271.9 198.101V192.301L269.3 192.801V208.601C269.3 211.601 272.1 213.801 276.1 213.801C280.8 213.801 283.2 211.001 283.2 205.401C283.2 198.301 278.8 197.201 276.1 197.201ZM280.6 205.301C280.6 209.501 279.1 211.501 276.1 211.501C273.1 211.501 272 209.701 272 208.501V200.101C272.3 199.901 273.5 199.401 276.2 199.401C279.8 199.501 280.6 202.701 280.6 205.301Z" fill="#0BB7A2"/>
<path d="M287 192.602H284.4V213.602H287V192.602Z" fill="#0BB7A2"/>
<path d="M302.4 202.102C303 201.602 304 200.602 304 198.202C304 194.502 301.5 192.402 297.2 192.402C293.1 192.402 291.7 194.102 291.7 194.202L291.6 194.302L291 198.302L291.9 197.102C291.9 197.102 293.9 194.702 297.2 194.702C301.3 194.702 301.4 198.102 301.4 198.202C301.4 200.602 299.8 201.202 298.9 201.202C298.7 201.202 298.5 201.202 298.3 201.202C297.9 201.202 297.2 201.202 296.5 201.202C294.7 201.202 293.5 201.102 293.5 201.102H293.2L292.6 203.502H293.1C293.1 203.502 294.6 203.502 296.6 203.502C297.5 203.502 298.2 203.502 298.8 203.502C299.1 203.502 299.4 203.502 299.6 203.502C300.5 203.502 302.2 204.302 302.2 207.202C302.2 211.502 297.5 211.502 297.3 211.502C293.1 211.502 291.8 208.402 291.7 208.302L291.2 207.002L290.6 210.902L290.7 211.002C290.8 211.102 292.4 213.702 297.4 213.702C300.8 213.702 304.9 212.602 304.9 207.202C304.5 204.402 303.4 202.902 302.4 202.102Z" fill="#0BB7A2"/>
<path d="M307.2 192.602V213.502H309.9V194.802H317.3L316.8 192.602H307.2Z" fill="#0BB7A2"/>
<path d="M325.4 192.402C320 192.402 317.4 195.802 317.4 203.102C317.4 210.402 319.9 213.802 325.4 213.802C330.9 213.802 333.4 210.402 333.4 203.102C333.4 195.802 330.9 192.402 325.4 192.402ZM330.7 203.002C330.7 210.502 328 211.502 325.4 211.502C322.8 211.502 320.1 210.502 320.1 203.002C320.1 197.202 321.8 194.602 325.4 194.602C329 194.602 330.7 197.202 330.7 203.002Z" fill="#0BB7A2"/>
<path d="M343.7 211.501C339.9 211.501 338 208.601 338 203.001C338 199.201 339 194.601 343.6 194.601C346.4 194.601 347.5 196.301 347.6 196.401L348.2 197.301L348.7 193.701L348.5 193.601C348.4 193.501 347 192.301 343.6 192.301C338.1 192.301 335.4 195.901 335.4 203.001C335.4 210.101 338.2 213.701 343.8 213.701C347.4 213.701 348.8 212.201 348.9 212.101L349 212.001L349.4 208.601L348.6 209.401C348.4 209.401 346.1 211.501 343.7 211.501Z" fill="#0BB7A2"/>
<path d="M359.3 211.501C355.5 211.501 353.6 208.601 353.6 203.001C353.6 199.201 354.6 194.601 359.2 194.601C362 194.601 363.1 196.301 363.2 196.401L363.8 197.301L364.3 193.701L364.1 193.601C364 193.501 362.6 192.301 359.2 192.301C353.7 192.301 351 195.901 351 203.001C351 210.101 353.8 213.701 359.4 213.701C363 213.701 364.4 212.201 364.5 212.101L364.6 212.001L365 208.601L364.2 209.401C364 209.401 361.7 211.501 359.3 211.501Z" fill="#0BB7A2"/>
<path d="M365.6 195.002L371.5 194.902V213.502H374.1V194.902L380.1 195.002V192.602H365.6V195.002Z" fill="#0BB7A2"/>
<path d="M389.3 192.502C386.2 192.202 382.7 192.602 382.6 192.602H382.2V213.502H384.9V206.202C385.5 206.502 386.9 206.903 389.4 206.903C393.8 206.903 395.8 204.503 395.8 199.403C395.8 195.203 393.6 192.802 389.3 192.502ZM389.8 204.702C387 204.702 385.4 204.302 384.9 204.102V194.802C385.7 194.702 387.7 194.503 389.8 194.903C391.3 195.203 393.2 196.202 393.2 199.602C393.2 203.802 391.9 204.702 389.8 204.702Z" fill="#0BB7A2"/>
<path d="M406 192.402C402.5 192.402 398.5 194.802 398.5 213.102V213.502H401.4V213.102C401.4 213.102 401.3 209.002 401.5 206.702H410.5C410.6 209.002 410.6 213.002 410.6 213.102V213.502H413.5V213.102C413.4 194.502 409.2 192.402 406 192.402ZM410.4 204.502H401.6C401.9 201.602 402.8 194.702 405.9 194.702C408.2 194.702 409.8 198.302 410.4 204.502Z" fill="#0BB7A2"/>
<path d="M425.2 202.602L431.9 192.602H428.5L423.8 200.302L419.1 192.602H415.8L422.4 202.602L415.3 213.502H418.6L423.8 204.902L429 213.502H432.4L425.2 202.602Z" fill="#0BB7A2"/>
</svg>
