<svg width="912" height="401" viewBox="0 0 912 401" fill="none" xmlns="http://www.w3.org/2000/svg">
<path d="M230.4 285.599L215.4 259.699H209.3V313.499H215.8V271.699L227.5 292.199H233.2L245 271.599V313.499H251.5V259.699H245.4L230.4 285.599Z" fill="#34B5E2"/>
<path d="M280.9 259.199C272 259.199 261.7 265.299 261.7 312.499V313.499H269V312.499C269 312.399 268.8 301.999 269.3 296.099H292.6C292.9 301.899 292.8 312.399 292.8 312.499V313.499H300.1V312.499C300 264.699 289.1 259.199 280.9 259.199ZM280.7 264.999C286.5 264.999 290.8 274.399 292.3 290.199H269.7C270.5 282.899 272.7 264.999 280.7 264.999Z" fill="#34B5E2"/>
<path d="M331.4 285.599L316.4 259.699H310.2V313.499H316.8V271.699L328.5 292.199H334.2L345.9 271.599V313.499H352.4V259.699H346.4L331.4 285.599Z" fill="#34B5E2"/>
<path d="M379.7 259.501C374.3 260.101 369.9 264.701 368.1 268.601H368.2C367 270.301 365.9 274.801 365.4 277.001C364.2 282.101 362.7 290.801 362.7 303.201V313.501H369.5V303.201C369.5 280.801 374.3 270.401 374.3 270.301C375.4 268.101 377.8 265.601 380 265.301C384.2 264.701 390.8 265.101 393.2 265.301V313.501H399.9V259.801L399 259.701C398.4 259.701 385.7 258.801 379.7 259.501Z" fill="#34B5E2"/>
<path d="M442.7 307.999H417.4V287.599H436.8L438.2 281.799H417.4V265.499H441.5L442.6 259.699H410.7V313.499H442.7V307.999Z" fill="#34B5E2"/>
<path d="M458.8 288.8C460.8 288.7 465.7 288.6 469.3 288.8C473.5 289 474.5 291.1 475.3 293.7L481.3 313.4H488.9L488.5 312.1C488.4 311.9 483.3 296.7 481.9 292.8C480.8 289.5 478.2 285.4 474.5 283.8C475.9 282.7 476.9 281.2 477.7 279.2C478.8 276.4 485.1 261.2 485.1 261.1L485.7 259.7H478.1L477.9 260.4C477.8 260.5 472.3 275.2 471.2 277.7C470.4 279.5 469 281.9 465.4 282.1C462.6 282.2 460.2 282.2 458.9 282.1V259L452.2 260.2V313.4H458.9V288.8H458.8Z" fill="#34B5E2"/>
<path d="M530.6 307.999H505.2V287.599H524.7L526.1 281.799H505.2V265.499H529.4L530.4 259.699H498.5V313.499H530.6V307.999Z" fill="#34B5E2"/>
<path d="M557.7 313.499V265.499L572.9 265.999V259.699H535.8V265.999L551 265.499V313.499H557.7Z" fill="#34B5E2"/>
<path d="M612.5 259.699H575.4V265.999L590.6 265.499V313.499H597.3V265.499L612.5 265.999V259.699Z" fill="#34B5E2"/>
<path d="M655.2 313.5V259.7H648.9L625.9 299.5V259.1L619.2 260.3V313.5H625.4L648.5 273.8V313.5H655.2Z" fill="#34B5E2"/>
<path d="M702.3 312.2C702.2 312 697.1 296.8 695.7 292.9C694.6 289.6 692 285.5 688.3 283.9C689.7 282.8 690.7 281.3 691.5 279.3C692.6 276.5 698.9 261.3 698.9 261.2L699.5 259.8H691.9L691.7 260.5C691.6 260.6 686.1 275.3 685 277.8C684.2 279.6 682.8 282 679.2 282.2C676.4 282.3 674 282.3 672.7 282.2V259.1L666 260.3V313.5H672.7V288.8C674.7 288.7 679.6 288.6 683.2 288.8C687.4 289 688.4 291.1 689.2 293.7L695.2 313.4H702.8L702.3 312.2Z" fill="#34B5E2"/>
<path d="M30.0999 375.601C28.9999 372.301 26.3997 368.201 22.6997 366.601C24.0997 365.501 25.0998 364.001 25.7998 362.001C26.8998 359.201 33.1997 344.001 33.1997 343.901L33.7998 342.501H26.1997L25.9998 343.201C25.8998 343.301 20.3998 358.001 19.2998 360.501C18.4998 362.301 17.0998 364.701 13.4998 364.901C10.6998 365.001 8.29976 365.001 6.99976 364.901V341.801L0.299805 343.001V396.201H6.99976V371.501C8.99976 371.401 13.8998 371.301 17.4998 371.501C21.6998 371.701 22.6998 373.801 23.4998 376.401L29.4998 396.101H37.0999L36.6997 394.801C36.5997 394.801 31.3999 379.501 30.0999 375.601Z" fill="#34B5E2"/>
<path d="M65.1997 342C56.2997 342 45.9998 348.1 45.9998 395.3V396.3H53.2998V395.3C53.2998 395.2 53.0999 384.8 53.5999 378.9H76.8997C77.1997 384.7 77.0999 395.2 77.0999 395.3V396.3H84.3997V395.3C84.3997 347.6 73.3997 342 65.1997 342ZM64.9998 347.9C70.7998 347.9 75.0999 357.3 76.5999 373.1H53.9998C54.7998 365.7 57.0998 347.9 64.9998 347.9Z" fill="#34B5E2"/>
<path d="M115.7 368.4L100.7 342.5H94.5999V396.3H101.1V354.5L112.8 375H118.5L130.2 354.4V396.3H136.7V342.5H130.7L115.7 368.4Z" fill="#34B5E2"/>
<path d="M169.2 391.3C159.5 391.3 154.6 384 154.5 369.5C154.5 359.7 157.1 347.9 168.8 347.9C176 347.9 178.9 352.3 179 352.5L180.5 354.9L181.8 345.7L181.4 345.3C181.2 345.2 177.6 342 168.9 342C154.9 342 147.7 351.2 147.7 369.4C147.7 387.6 154.9 396.8 169.2 396.8C178.4 396.8 182 392.8 182.2 392.7L182.4 392.5L183.5 383.8L181.5 385.7C181.4 385.6 175.3 391.3 169.2 391.3Z" fill="#34B5E2"/>
<path d="M237.4 342.5H230.7V396.3H237.4V342.5Z" fill="#34B5E2"/>
<path d="M209.2 354.502C203.7 354.502 200.2 355.902 198.5 356.902V341.902L191.8 343.102V383.602C191.8 391.302 199.1 396.802 209.2 396.802C221.4 396.802 227.5 389.602 227.5 375.402C227.5 357.202 216.1 354.502 209.2 354.502ZM220.7 375.302C220.7 386.002 216.9 391.302 209.1 391.302C201.4 391.302 198.5 386.602 198.5 383.602V362.102C199.4 361.602 202.2 360.302 209.2 360.302C218.7 360.302 220.7 368.402 220.7 375.302Z" fill="#34B5E2"/>
<path d="M277.7 366.902C279.3 365.602 281.7 363.102 281.7 356.902C281.7 347.502 275.3 342.102 264.3 342.102C253.7 342.102 250.3 346.502 250.2 346.602L250 346.802L248.4 356.902L250.8 354.002C250.8 353.902 255.8 347.902 264.3 347.902C274.9 347.902 275 356.502 275 356.902C275 363.002 270.8 364.602 268.6 364.602C268.2 364.602 267.7 364.602 267 364.602C265.9 364.602 264.3 364.702 262.3 364.702C257.6 364.702 254.6 364.602 254.5 364.602H253.7L252.1 370.602H253.4C253.4 370.602 257.3 370.502 262.3 370.502C264.6 370.502 266.5 370.502 267.9 370.502C268.7 370.502 269.4 370.502 269.9 370.502C272.2 370.502 276.5 372.502 276.5 380.102C276.5 391.102 264.4 391.202 263.9 391.202C253 391.202 249.7 383.302 249.5 382.902L248.1 379.502L246.5 389.502L246.7 389.802C246.9 390.102 250.9 396.602 263.9 396.602C272.6 396.602 283.1 393.702 283.1 379.902C283.3 372.902 280.4 369.002 277.7 366.902Z" fill="#34B5E2"/>
<path d="M332.3 343.1L331.4 343.001C330.9 342.901 319.3 341.5 313.3 342.3C307.3 343.1 302.4 347.101 300.1 353.001L299.9 353.6C297.7 359.2 296.3 362.901 296.3 386.001V390.701H292.6L293.1 400.901H298.9L299.3 396.201H329.3L329.6 400.901H335.5L335.9 390.701H332.2V343.1H332.3ZM325.6 348.1V390.8H303V386.1C303 363.7 303.9 360.301 306.6 354.001C307.6 351.501 310.2 348.7 313.6 348.1C317.7 347.4 323.4 347.9 325.6 348.1Z" fill="#34B5E2"/>
<path d="M363.8 342C354.9 342 344.6 348.1 344.6 395.3V396.3H352V395.3C352 395.2 351.8 384.8 352.3 378.9H375.6C375.9 384.7 375.8 395.2 375.8 395.3V396.3H383.1V395.3C382.9 347.6 372 342 363.8 342ZM363.6 347.9C369.4 347.9 373.7 357.3 375.2 373.1H352.6C353.4 365.7 355.6 347.9 363.6 347.9Z" fill="#34B5E2"/>
<path d="M423.8 365.602H399.8V341.902L393 343.102V396.302H399.8V371.502H423.8V396.302H430.5V342.502H423.8V365.602Z" fill="#34B5E2"/>
<path d="M479.5 343.1L478.6 343.001C478.1 342.901 466.5 341.5 460.5 342.3C454.5 343.1 449.6 347.101 447.3 353.001L447.1 353.6C444.9 359.2 443.5 362.901 443.5 386.001V390.701H439.8L440.3 400.901H446.1L446.5 396.201H476.5L476.8 400.901H482.7L483.1 390.701H479.4V343.1H479.5ZM472.8 348.1V390.8H450.2V386.1C450.2 363.7 451.1 360.301 453.8 354.001C454.8 351.501 457.4 348.7 460.8 348.1C465 347.4 470.7 347.9 472.8 348.1Z" fill="#34B5E2"/>
<path d="M538.1 342.5H531.4V396.3H538.1V342.5Z" fill="#34B5E2"/>
<path d="M510 354.502C504.5 354.502 501 355.902 499.3 356.902V341.902L492.6 343.102V383.602C492.6 391.302 499.9 396.802 510 396.802C522.2 396.802 528.3 389.602 528.3 375.402C528.3 357.202 516.8 354.502 510 354.502ZM521.5 375.302C521.5 386.002 517.7 391.302 509.9 391.302C502.2 391.302 499.3 386.602 499.3 383.602V362.102C500.2 361.602 503 360.302 510 360.302C519.5 360.302 521.5 368.402 521.5 375.302Z" fill="#34B5E2"/>
<path d="M567.1 342.302C559.2 341.602 549.9 342.502 549.8 342.502L548.9 342.601V396.302H555.7V377.502C557.3 378.402 560.7 379.402 567.3 379.402C578.5 379.402 583.8 373.302 583.8 360.202C583.8 349.402 578 343.202 567.1 342.302ZM568.4 373.702C561.1 373.702 557.1 372.702 555.7 372.202V348.202C557.7 347.902 562.8 347.502 568.4 348.502C572.4 349.202 577.1 351.901 577.1 360.601C577 370.001 574.6 373.702 568.4 373.702Z" fill="#34B5E2"/>
<path d="M622.9 370.601C622 371.601 618.2 375.401 610.9 375.401C602.8 375.401 599.1 369.501 599.1 365.201V341.801L592.4 343.001V365.401C592.4 374.401 600.4 381.101 611 381.101C616.1 381.101 620.5 379.201 622.8 376.901V381.401C622.8 384.801 620.2 391.101 610.3 391.101C600.7 391.101 597 384.201 596.8 383.901L595.4 381.301L593.5 391.501L593.9 391.901C594.1 392.101 599.1 396.701 610.2 396.701C622.1 396.701 629.4 391.401 629.4 382.801V342.401H622.7V370.601H622.9Z" fill="#34B5E2"/>
<path d="M670.8 370.601C669.9 371.601 666.1 375.401 658.8 375.401C650.7 375.401 647 369.501 647 365.201V341.801L640.3 343.001V365.401C640.3 374.401 648.3 381.101 658.9 381.101C664 381.101 668.4 379.201 670.7 376.901V381.401C670.7 384.801 668.1 391.101 658.2 391.101C648.6 391.101 644.9 384.201 644.7 383.901L643.3 381.301L641.4 391.501L641.8 391.901C642 392.101 647 396.701 658.1 396.701C670 396.701 677.3 391.401 677.3 382.801V342.401H670.6V370.601H670.8Z" fill="#34B5E2"/>
<path d="M744.2 370.601C743.3 371.601 739.5 375.401 732.2 375.401C724.1 375.401 720.4 369.501 720.4 365.201V341.801L713.7 343.001V365.401C713.7 374.401 721.7 381.101 732.3 381.101C737.4 381.101 741.8 379.201 744.1 376.901V381.401C744.1 384.801 741.5 391.101 731.6 391.101C722 391.101 718.3 384.201 718.1 383.901L716.7 381.301L714.8 391.501L715.2 391.901C715.4 392.101 720.4 396.701 731.5 396.701C743.4 396.701 750.7 391.401 750.7 382.801V342.401H744V370.601H744.2Z" fill="#34B5E2"/>
<path d="M791.9 342.002C779 342.002 773.6 348.502 773 365.102H768.4V341.902L761.7 343.102V396.302H768.4V371.902H773C773.7 389.102 779.5 396.802 791.9 396.802C805.4 396.802 811.2 388.602 811.2 369.402C811.2 350.202 805.5 342.002 791.9 342.002ZM791.9 391.302C784.2 391.302 779.8 387.702 779.7 369.502C779.8 351.502 784.4 347.902 791.9 347.902C799.3 347.902 804.3 351.602 804.4 369.502C804.3 387.602 799.6 391.302 791.9 391.302Z" fill="#34B5E2"/>
<path d="M842.6 368.4L827.6 342.5H821.4V396.3H828V354.5L839.7 375H845.4L857.1 354.4V396.3H863.6V342.5H857.5L842.6 368.4Z" fill="#34B5E2"/>
<path d="M905 342.501V370.601C904.1 371.601 900.3 375.401 893 375.401C884.9 375.401 881.2 369.501 881.2 365.201V341.801L874.5 343.001V365.401C874.5 374.401 882.5 381.101 893.1 381.101C898.2 381.101 902.6 379.201 904.9 376.901V381.401C904.9 384.801 902.3 391.101 892.4 391.101C882.8 391.101 879.1 384.201 878.9 383.901L877.5 381.301L875.6 391.501L876 391.901C876.2 392.101 881.2 396.701 892.3 396.701C904.2 396.701 911.5 391.401 911.5 382.801V342.401H905V342.501Z" fill="#34B5E2"/>
<path d="M569.4 98C559.1 120.4 542.4 139.3 521.6 152.3C514.3 156.9 506.5 160.7 498.3 163.7C493.9 165.3 489.3 166.7 484.7 167.8C475.3 170.1 465.5 171.3 455.4 171.3C437 171.3 419.4 167.3 403.7 160.2C380.3 149.6 360.7 131.9 347.6 110C345.8 107 344.1 103.8 342.6 100.6C345.1 98.9996 347.7 97.4996 350.4 96.0996C365.2 88.2996 381.7 83.4 399.2 82H399.3C402.4 81.8 405.6 81.5996 408.8 81.5996C409.8 81.5996 410.9 81.5996 411.9 81.5996C435 82.8996 455.3 94.1998 468.7 111.3C463.3 109.2 457.4 108 451.2 108C437.1 108 424.4 114.1 415.6 123.9C430.3 127.3 445.7 129.1 461.4 129.1C467.3 129.1 473.1 128.8 478.8 128.4C482.4 128.1 485.9 127.7 489.4 127.2C494.1 126.6 498.8 125.7 503.4 124.8C527.3 119.7 549.5 110.5 569.4 98Z" fill="#0BB7A2"/>
<path d="M342.6 74.2002C352.9 51.8002 369.6 32.9004 390.4 19.9004C397.7 15.3004 405.5 11.5 413.7 8.5C418.1 6.9 422.7 5.50039 427.3 4.40039C436.7 2.10039 446.5 0.900391 456.6 0.900391C475 0.900391 492.6 4.9 508.3 12C531.7 22.6 551.3 40.3002 564.4 62.2002C566.2 65.2002 567.9 68.3996 569.4 71.5996C566.9 73.1996 564.3 74.6996 561.6 76.0996C546.8 83.8996 530.3 88.8002 512.8 90.2002H512.7C509.6 90.4002 506.4 90.5996 503.2 90.5996C502.2 90.5996 501.1 90.5996 500.1 90.5996C477 89.2996 456.7 78.0004 443.3 60.9004C448.7 63.0004 454.6 64.2002 460.8 64.2002C474.9 64.2002 487.6 58.0998 496.4 48.2998C481.7 44.8998 466.3 43.0996 450.6 43.0996C444.7 43.0996 438.9 43.3998 433.2 43.7998C429.6 44.0998 426.1 44.5 422.6 45C417.9 45.6 413.2 46.5004 408.6 47.4004C384.7 52.5004 362.5 61.6002 342.6 74.2002Z" fill="#34B5E2"/>
<path d="M354.2 205.501C353.8 204.201 352.8 202.601 351.3 202.001C351.8 201.601 352.2 201.001 352.5 200.201C352.9 199.101 355.4 193.201 355.4 193.101L355.6 192.501H352.6L352.5 192.801C352.5 192.901 350.3 198.601 349.9 199.601C349.6 200.301 349 201.201 347.6 201.301C346.5 201.401 345.6 201.301 345.1 201.301V192.301L342.5 192.801V213.501H345.1V203.901C345.9 203.901 347.8 203.801 349.2 203.901C350.8 204.001 351.2 204.801 351.5 205.801L353.8 213.501H356.8L356.6 213.001C356.7 212.901 354.7 207.001 354.2 205.501Z" fill="#0BB7A2"/>
<path d="M376.1 192.602H373.5V213.602H376.1V192.602Z" fill="#0BB7A2"/>
<path d="M365.5 197.201C363.4 197.201 362 197.801 361.3 198.101V192.301L358.7 192.801V208.601C358.7 211.601 361.5 213.801 365.5 213.801C370.2 213.801 372.6 211.001 372.6 205.401C372.6 198.301 368.2 197.201 365.5 197.201ZM370 205.301C370 209.501 368.5 211.501 365.5 211.501C362.5 211.501 361.4 209.701 361.4 208.501V200.101C361.7 199.901 362.9 199.401 365.6 199.401C369.2 199.501 370 202.701 370 205.301Z" fill="#0BB7A2"/>
<path d="M386.9 192.502C383.8 192.202 380.3 192.602 380.2 192.602H379.8V213.502H382.5V206.202C383.1 206.502 384.5 206.903 387 206.903C391.4 206.903 393.4 204.503 393.4 199.403C393.3 195.303 391.1 192.802 386.9 192.502ZM387.4 204.702C384.6 204.702 383 204.302 382.5 204.102V194.802C383.3 194.702 385.3 194.503 387.4 194.903C388.9 195.203 390.8 196.202 390.8 199.602C390.7 203.802 389.4 204.702 387.4 204.702Z" fill="#0BB7A2"/>
<path d="M395.2 192.602V213.502H397.9V194.802H405.3L404.8 192.602H395.2Z" fill="#0BB7A2"/>
<path d="M413.1 197.201C411 197.201 409.6 197.801 408.9 198.101V192.301L406.3 192.801V208.601C406.3 211.601 409.1 213.801 413.1 213.801C417.8 213.801 420.2 211.001 420.2 205.401C420.2 198.301 415.8 197.201 413.1 197.201ZM417.6 205.301C417.6 209.501 416.1 211.501 413.1 211.501C410.1 211.501 409 209.701 409 208.501V200.101C409.3 199.901 410.5 199.401 413.2 199.401C416.8 199.501 417.6 202.701 417.6 205.301Z" fill="#0BB7A2"/>
<path d="M424 192.602H421.4V213.602H424V192.602Z" fill="#0BB7A2"/>
<path d="M439.4 202.102C440 201.602 441 200.602 441 198.202C441 194.502 438.5 192.402 434.2 192.402C430.1 192.402 428.7 194.102 428.7 194.202L428.6 194.302L428 198.302L428.9 197.102C428.9 197.102 430.9 194.702 434.2 194.702C438.3 194.702 438.4 198.102 438.4 198.202C438.4 200.602 436.8 201.202 435.9 201.202C435.7 201.202 435.5 201.202 435.3 201.202C434.9 201.202 434.2 201.202 433.5 201.202C431.7 201.202 430.5 201.102 430.5 201.102H430.2L429.6 203.502H430.1C430.1 203.502 431.6 203.502 433.6 203.502C434.5 203.502 435.2 203.502 435.8 203.502C436.1 203.502 436.4 203.502 436.6 203.502C437.5 203.502 439.2 204.302 439.2 207.202C439.2 211.502 434.5 211.502 434.3 211.502C430.1 211.502 428.8 208.402 428.7 208.302L428.2 207.002L427.6 210.902L427.7 211.002C427.8 211.102 429.4 213.702 434.4 213.702C437.8 213.702 441.9 212.602 441.9 207.202C441.5 204.402 440.4 202.902 439.4 202.102Z" fill="#0BB7A2"/>
<path d="M444.2 192.602V213.502H446.9V194.802H454.3L453.8 192.602H444.2Z" fill="#0BB7A2"/>
<path d="M462.4 192.402C457 192.402 454.4 195.802 454.4 203.102C454.4 210.402 456.9 213.802 462.4 213.802C467.8 213.802 470.4 210.402 470.4 203.102C470.4 195.802 467.9 192.402 462.4 192.402ZM467.7 203.002C467.7 210.502 465 211.502 462.4 211.502C459.8 211.502 457.1 210.502 457.1 203.002C457.1 197.202 458.8 194.602 462.4 194.602C466.1 194.702 467.7 197.202 467.7 203.002Z" fill="#0BB7A2"/>
<path d="M480.7 211.501C476.9 211.501 475 208.601 475 203.001C475 199.201 476 194.601 480.6 194.601C483.4 194.601 484.5 196.301 484.6 196.401L485.2 197.301L485.7 193.701L485.5 193.601C485.4 193.501 484 192.301 480.6 192.301C475.1 192.301 472.4 195.901 472.4 203.001C472.4 210.101 475.2 213.701 480.8 213.701C484.4 213.701 485.8 212.201 485.9 212.101L486 212.001L486.4 208.601L485.6 209.401C485.4 209.401 483.1 211.501 480.7 211.501Z" fill="#0BB7A2"/>
<path d="M496.3 211.501C492.5 211.501 490.6 208.601 490.6 203.001C490.6 199.201 491.6 194.601 496.2 194.601C499 194.601 500.1 196.301 500.2 196.401L500.8 197.301L501.3 193.701L501.1 193.601C501 193.501 499.6 192.301 496.2 192.301C490.7 192.301 488 195.901 488 203.001C488 210.101 490.8 213.701 496.4 213.701C500 213.701 501.4 212.201 501.5 212.101L501.6 212.001L502 208.601L501.2 209.401C501 209.401 498.7 211.501 496.3 211.501Z" fill="#0BB7A2"/>
<path d="M502.6 195.002L508.5 194.902V213.502H511.1V194.902L517.1 195.002V192.602H502.6V195.002Z" fill="#0BB7A2"/>
<path d="M526.3 192.502C523.2 192.202 519.7 192.602 519.6 192.602H519.2V213.502H521.9V206.202C522.5 206.502 523.9 206.903 526.4 206.903C530.8 206.903 532.8 204.503 532.8 199.403C532.8 195.303 530.6 192.802 526.3 192.502ZM526.8 204.702C524 204.702 522.4 204.302 521.9 204.102V194.802C522.7 194.702 524.7 194.503 526.8 194.903C528.3 195.203 530.2 196.202 530.2 199.602C530.2 203.802 528.9 204.702 526.8 204.702Z" fill="#0BB7A2"/>
<path d="M543 192.402C539.5 192.402 535.5 194.802 535.5 213.102V213.502H538.4V213.102C538.4 213.102 538.3 209.002 538.5 206.702H547.5C547.6 209.002 547.6 213.002 547.6 213.102V213.502H550.5V213.102C550.5 194.502 546.2 192.402 543 192.402ZM547.4 204.502H538.6C538.9 201.602 539.8 194.702 542.9 194.702C545.2 194.702 546.8 198.302 547.4 204.502Z" fill="#0BB7A2"/>
<path d="M562.2 202.602L568.9 192.602H565.5L560.8 200.302L556.1 192.602H552.8L559.5 202.602L552.3 213.502H555.6L560.8 204.902L566.1 213.502H569.4L562.2 202.602Z" fill="#0BB7A2"/>
</svg>
